<svg width="200" height="146" viewBox="0 0 200 146" fill="none" xmlns="http://www.w3.org/2000/svg">
<path fill-rule="evenodd" clip-rule="evenodd" d="M82.1219 23.4439L19.5641 0L0 52.205L62.5578 75.6489L82.1219 23.4439ZM12.2857 52.1926L12.0435 53H29.8367H31.4205H60.8398L66.4107 40.405H65.6033C62.8583 45.9758 59.7095 47.6713 52.2009 47.6713H39.2022L44.0465 44.8455C54.0579 39.0324 63.9886 33.0579 63.9886 25.7108C63.9886 20.1399 58.0948 17.7985 52.2817 17.7985C43.9657 17.7985 38.96 22.562 38.96 27.9714C38.96 32.2505 42.028 34.9148 45.5805 34.9148C49.2944 34.9148 52.3624 32.089 52.3624 28.3751C52.3624 27.487 52.2009 26.6796 51.9587 26.1144L51.3128 26.3567C51.555 27.0026 51.6358 27.6485 51.6358 28.2136C51.6358 31.5238 48.9714 34.1882 45.6612 34.1882C42.5124 34.1882 39.7674 31.7661 39.7674 27.9714C39.7674 23.3694 43.8042 19.2518 49.9403 19.2518C54.3808 19.2518 57.3681 21.4317 57.3681 26.8411C57.3681 29.9091 56.3993 33.0579 53.8157 36.1259C50.344 40.3242 44.7731 43.5537 41.1399 45.6529L29.9289 52.1926H25.2037L35.9418 19.0903H42.4008L42.643 18.2829H23.266L23.0238 19.0903H29.4828L18.7447 52.1926H12.2857Z" fill="#FFB600"/>
<path d="M150.58 64.0146V59.975H155.783V38.613H148.731V46.5553H144.281V34.5734H171.736V46.5553H167.286V38.613H160.234V59.975H166.053V64.0146H150.58Z" fill="#FFB600"/>
<path d="M115.918 145.66C109.882 145.66 108.101 142.79 105.726 133.489C104.143 127.156 103.351 123.594 100.778 122.208H100.086L92.6645 145.066H84.7485L96.0288 110.235C96.4246 109.048 96.7215 107.861 96.7215 106.97C96.7215 105.486 95.9299 104.397 94.3467 104.397C92.2687 104.397 89.696 106.475 87.2223 111.72L86.4306 111.324C89.5971 104.298 93.654 101.924 98.1068 101.924C102.56 101.924 104.341 104.298 104.341 107.267C104.341 109.543 103.45 112.115 102.659 114.589L100.383 121.417H101.075C107.309 121.417 109.783 118.349 112.85 112.511C115.423 107.663 117.501 101.924 123.537 101.924C127.792 101.924 130.76 104.298 130.76 108.751C130.76 111.621 129.474 114.292 126.407 114.292C124.428 114.292 122.844 113.204 122.844 111.225C122.844 109.246 124.428 108.553 124.428 106.277C124.428 104.793 123.636 103.804 121.756 103.804C118.392 103.804 116.512 107.762 113.84 112.907C111.861 116.766 109.387 120.724 105.33 121.813C110.278 122.703 111.564 125.672 113.246 132.598C114.928 139.525 116.215 142.988 119.678 142.988C122.251 142.988 124.032 141.009 126.209 135.072L127.099 135.369C124.329 143.582 121.063 145.66 115.918 145.66Z" fill="#FFB600"/>
<path fill-rule="evenodd" clip-rule="evenodd" d="M140.391 15.2617L72.793 18.2058L74.6753 61.4248L75.8758 57.9868H81.1832L92.7738 22.4217H87.2835L88.6256 18.5175H103.877L102.534 22.4217H97.1661L85.5754 57.9868H100.643L112.234 22.4217H106.744L108.086 18.5175H123.337L121.995 22.4217H116.626L105.036 57.9868H120.103L131.694 22.4217H126.204L127.546 18.5175H140.533L140.391 15.2617ZM140.703 22.4217H136.086L124.496 57.9868H130.047L128.705 61.8301H74.6929L74.8976 66.5303L142.496 63.5862L140.703 22.4217Z" fill="#FFB600"/>
<path fill-rule="evenodd" clip-rule="evenodd" d="M199.4 78.8662L148.735 66.8682L133.781 130.013L184.447 142.011L199.4 78.8662ZM172.92 103.879H173.084L169.729 113.7C165.391 126.467 160.153 128.349 155.407 128.349C149.678 128.349 147.959 125.567 149.432 121.229L144.604 120.411C142.394 124.994 143.867 132.441 155.079 132.441C164.164 132.441 170.793 127.449 175.621 112.472L187.16 76.7904H181.923L176.685 92.9947C173.493 102.897 166.782 107.726 160.972 107.726C155.816 107.726 155.898 103.961 158.598 96.923C159.467 94.6727 160.659 91.9465 161.734 89.4882C162.888 86.8502 163.907 84.5208 164.245 83.4194C165.555 79.4093 162.936 76.2994 158.68 76.2994C155.407 76.2994 151.969 78.0999 150.087 81.3734L152.952 83.6649C154.425 81.2916 156.143 80.4732 157.289 80.4732C158.517 80.4732 159.744 81.5371 159.09 83.2557C157.659 87.054 155.872 91.3873 154.462 94.8043C153.534 97.0565 152.769 98.9106 152.379 99.951C149.76 106.989 152.051 112.472 159.09 112.472C164.655 112.472 169.565 108.953 172.92 103.879Z" fill="#FFB600"/>
</svg>
