<svg width="653" height="922" viewBox="0 0 653 922" fill="none" xmlns="http://www.w3.org/2000/svg">
<path d="M96.8097 1930C109.187 1917.62 125.059 1907.63 133.42 1893.49C138.286 1883.83 141.65 1876.04 143.544 1865.27C144.698 1858.64 146.222 1852.05 148.116 1845.51C151.35 1834.4 159.808 1824.63 166.503 1813.97C166.83 1813.42 167.026 1812.84 167.091 1812.25C167.135 1811.7 167.156 1811.19 167.156 1810.71C167.156 1810.48 167.247 1810.24 167.419 1810.04C167.59 1809.84 167.838 1809.67 168.135 1809.55C168.433 1809.43 168.772 1809.37 169.116 1809.37C169.46 1809.37 169.798 1809.43 170.096 1809.55L176.464 1811.98C176.768 1812.1 177.113 1812.15 177.461 1812.15C177.809 1812.14 178.146 1812.06 178.437 1811.93C178.727 1811.8 178.958 1811.62 179.106 1811.4C179.253 1811.19 179.311 1810.95 179.273 1810.71C178.75 1807.45 178.837 1805.28 179.534 1804.17C188.57 1789.77 195.417 1774.9 200.076 1759.59C202.82 1750.57 197.496 1744.02 187.013 1739.11C184.095 1737.76 183.159 1736.02 184.204 1733.91C184.566 1733.2 185.24 1732.58 186.136 1732.14C187.031 1731.69 188.104 1731.45 189.209 1731.44C190.314 1731.42 191.398 1731.65 192.314 1732.07C193.23 1732.49 193.933 1733.1 194.328 1733.8C197.464 1739.5 203.07 1744.37 211.148 1748.43C224.44 1755.1 229.077 1746.74 236.785 1741.38C237.916 1740.6 239.414 1740.11 241.022 1739.99C242.631 1739.88 244.25 1740.15 245.603 1740.76L254.192 1744.66C254.749 1744.92 255.414 1745.03 256.081 1745C256.748 1744.96 257.378 1744.78 257.873 1744.47C258.368 1744.16 258.699 1743.75 258.813 1743.3C258.927 1742.85 258.818 1742.39 258.503 1741.99L248.085 1728.74C247.9 1728.5 247.792 1728.24 247.77 1727.97C247.747 1727.71 247.81 1727.44 247.954 1727.2C252.004 1720.05 253.201 1712.65 251.546 1705C251.372 1704.17 251.644 1703.41 252.363 1702.71L256.086 1699.23C256.565 1698.75 257.164 1698.68 257.882 1699C260.451 1700.15 262.857 1700.14 265.1 1698.98C266.036 1698.51 266.58 1697.87 266.733 1697.09C269.574 1681.52 267.582 1664.9 270.39 1651.05C273.526 1635.48 278.25 1620.14 284.564 1605.03C285.631 1602.44 286.165 1599.74 286.165 1596.93C286.132 1589.51 288.973 1583.51 289.496 1576.66C290.149 1568.07 294.852 1560.73 294.623 1552.01C294.614 1551.32 294.253 1550.66 293.603 1550.13C292.952 1549.61 292.051 1549.25 291.055 1549.13C290.059 1549.01 289.03 1549.13 288.144 1549.47C287.258 1549.8 286.569 1550.34 286.197 1550.98L278.196 1564.97C277.975 1565.34 277.555 1565.64 277.025 1565.8C276.495 1565.96 275.895 1565.98 275.355 1565.84C260.484 1562.17 254.54 1554.74 257.523 1543.56C261.877 1527.35 269.618 1511.89 280.743 1497.18C280.869 1497.02 281.045 1496.88 281.26 1496.76C281.475 1496.65 281.723 1496.57 281.987 1496.53C282.251 1496.49 282.526 1496.49 282.79 1496.53C283.055 1496.57 283.304 1496.65 283.519 1496.76L287.928 1499.12C288.398 1499.37 288.958 1499.52 289.546 1499.56C290.134 1499.6 290.725 1499.52 291.251 1499.34C291.776 1499.16 292.215 1498.88 292.517 1498.54C292.819 1498.2 292.972 1497.81 292.958 1497.41C292.729 1487.12 292.435 1478.78 289.888 1467.63C288.625 1462.19 287.961 1456.68 287.895 1451.12C287.895 1450.76 288.012 1450.41 288.238 1450.09C288.465 1449.77 288.794 1449.49 289.202 1449.27C292.555 1447.49 294.199 1445.81 294.133 1444.23C293.023 1420.94 292.402 1396.77 292.272 1371.72C292.266 1371.26 292.405 1370.8 292.679 1370.38C292.953 1369.96 293.356 1369.59 293.861 1369.28C294.366 1368.98 294.96 1368.75 295.604 1368.61C296.249 1368.48 296.928 1368.44 297.595 1368.5C301.101 1368.8 303.615 1369.94 305.139 1371.92C305.597 1372.51 305.803 1373.14 305.76 1373.81C305.39 1381.16 308.71 1387.57 315.721 1393.04C316.429 1393.6 317.362 1394 318.403 1394.2C319.445 1394.4 320.549 1394.39 321.579 1394.16C322.609 1393.93 323.519 1393.51 324.196 1392.93C324.873 1392.36 325.287 1391.66 325.388 1390.92C326.651 1381.66 326.15 1371.97 323.885 1361.86C321.991 1353.43 337.014 1345.93 323.2 1337.61C322.263 1337.05 321.85 1336.33 321.959 1335.47L323.951 1321.31C324.038 1320.53 323.689 1319.86 322.906 1319.3L316.374 1314.7L282.115 1361.52C281.68 1362.12 281.462 1362.76 281.462 1363.44V1365.72C281.465 1365.91 281.389 1366.1 281.242 1366.26C281.095 1366.43 280.883 1366.56 280.631 1366.64C280.379 1366.73 280.097 1366.77 279.816 1366.75C279.536 1366.73 279.269 1366.66 279.045 1366.54C278.348 1366.18 277.88 1365.74 277.641 1365.2C277.423 1364.65 277.608 1363.95 278.196 1363.08C289.888 1346.24 299.979 1328.82 313.533 1312.56C314.948 1311.98 315.742 1310.98 315.917 1309.55C316.983 1300.81 317.168 1292.08 316.472 1283.36C315.557 1271.21 317.517 1260.92 318.823 1249.37C320.032 1238.73 332.867 1231.53 329.666 1220.66C329.542 1220.27 329.304 1219.9 328.967 1219.57C328.63 1219.24 328.201 1218.97 327.706 1218.77C321.741 1216.31 318.671 1212.11 318.497 1206.16C318.083 1190.86 318.018 1175.6 318.301 1160.37C318.323 1159.61 318.878 1159.17 319.966 1159.03L329.013 1157.87C330.33 1157.71 331.549 1157.28 332.518 1156.65C333.487 1156.01 334.164 1155.2 334.467 1154.3L345.473 1121.94C345.566 1121.68 345.544 1121.41 345.409 1121.16C345.274 1120.91 345.032 1120.7 344.713 1120.54C344.395 1120.39 344.015 1120.3 343.621 1120.29C343.227 1120.28 342.837 1120.35 342.501 1120.49L335.708 1123.37C334.967 1123.69 334.238 1123.68 333.52 1123.32C328.142 1120.73 325.758 1117.52 326.367 1113.69C327.391 1107.35 327.162 1101.65 325.682 1096.58C320.162 1077.68 314.676 1059.24 322.22 1039.1C322.318 1038.84 322.516 1038.62 322.788 1038.44C323.06 1038.27 323.396 1038.16 323.755 1038.11L328.621 1037.53C328.894 1037.5 329.142 1037.4 329.318 1037.25C329.495 1037.11 329.59 1036.92 329.586 1036.73C329.582 1036.54 329.479 1036.36 329.297 1036.22C329.114 1036.07 328.863 1035.98 328.588 1035.95L314.414 1034.61C313.195 1034.49 312.477 1034.02 312.259 1033.19L310.136 1025.31C309.875 1024.37 310.408 1023.77 311.736 1023.5L324.93 1020.81C325.427 1020.7 325.854 1020.48 326.14 1020.18C326.425 1019.89 326.552 1019.53 326.498 1019.18L324.571 1006.28C324.528 1005.96 324.595 1005.63 324.767 1005.3C327.489 1000.37 329.1 995.31 329.601 990.136C330.45 981.303 319.378 977.109 318.823 968.544C318.344 961.183 316.57 954.231 313.5 947.688C313.305 947.279 313.256 946.844 313.355 946.418C313.455 945.993 313.7 945.589 314.072 945.24C314.444 944.89 314.932 944.604 315.496 944.406C316.061 944.207 316.686 944.102 317.321 944.097C331.19 944.038 344.537 945.941 357.361 949.807C357.833 949.948 358.221 950.196 358.458 950.508C358.696 950.821 358.77 951.18 358.667 951.525C357.361 955.941 357.567 960.142 359.287 964.127C365.199 977.711 357.328 989.221 355.597 1003.07C355.336 1005.15 356.141 1006.52 358.014 1007.15C359.407 1007.65 360.213 1007.36 360.43 1006.28C362.031 997.697 366.57 989.823 368.987 981.57C371.034 974.596 374.082 967.815 378.131 961.228C378.545 960.573 378.349 960.016 377.544 959.555L367.583 953.822C367.194 953.6 366.903 953.308 366.742 952.979C366.581 952.651 366.557 952.298 366.672 951.961C366.787 951.623 367.037 951.314 367.394 951.068C367.751 950.822 368.2 950.648 368.693 950.566L376.923 949.183C377.488 949.092 377.984 948.862 378.316 948.537C378.647 948.212 378.791 947.814 378.719 947.421C378.306 945.22 376.607 943.577 373.624 942.491C373.206 942.339 372.889 942.083 372.737 941.776C372.586 941.47 372.611 941.135 372.808 940.841L380.091 929.665C380.526 929.026 381.18 928.513 382.05 928.126C386.862 926 389.192 922.877 389.039 918.758C389.018 917.896 389.29 917.085 389.856 916.327C398.63 904.252 406.022 891.798 412.031 878.965C412.184 878.629 412.489 878.335 412.9 878.126C413.312 877.917 413.808 877.805 414.317 877.805C415.21 877.79 415.711 877.552 415.82 877.091C416.603 874.177 415.591 871.411 412.782 868.794C412.468 868.51 412.254 868.181 412.157 867.832C412.061 867.484 412.085 867.126 412.227 866.786C415.917 857.686 422.319 848.317 415.95 839.261C415.253 838.28 415.689 837.685 417.257 837.477L420.686 837.008C422.145 836.815 423.015 837.224 423.298 838.235C424.703 843.589 427.152 848.808 427.903 854.094C430.821 875.195 431.877 896.356 431.071 917.576C431.049 918.319 431.278 919.026 431.757 919.695C432.867 921.227 434.032 921.093 435.252 919.293C435.6 918.788 435.763 918.252 435.741 917.687C435.72 912.498 435.883 907.33 436.231 902.185C437.276 887.196 435.284 872.251 435.709 857.24C435.97 847.18 430.614 840.02 435.154 828.911C409.636 833.387 385.403 838.912 362.455 845.484C362.978 848.503 364.437 850.072 366.832 850.191C367.172 850.205 367.516 850.171 367.841 850.091C368.167 850.01 368.468 849.885 368.726 849.722C375.366 845.618 383.193 843.514 392.207 843.41C392.625 843.403 393.036 843.331 393.409 843.2C393.782 843.069 394.108 842.881 394.363 842.652C396.235 840.912 398.892 840.191 402.332 840.488C403.442 840.577 404.128 840.994 404.389 841.737C406.153 846.734 408.112 850.927 407.1 856.236C404.781 868.236 405.532 881.374 397.759 892.348C397.258 893.047 396.431 893.397 395.277 893.397C391.423 893.397 388.267 892.311 385.806 890.14C385.469 889.843 385.017 889.615 384.502 889.481C383.987 889.347 383.428 889.313 382.89 889.382C382.351 889.452 381.853 889.622 381.451 889.874C381.049 890.126 380.759 890.45 380.613 890.809C377.848 897.456 375.78 904.103 374.408 910.75C371.959 922.684 367.289 932.364 363.141 943.294C363.03 943.578 362.832 943.843 362.558 944.071C362.284 944.298 361.942 944.482 361.555 944.611C361.168 944.74 360.745 944.811 360.314 944.818C359.883 944.826 359.455 944.77 359.059 944.655C347.933 941.443 336.307 939.599 324.179 939.123C323.091 939.078 322.111 938.818 321.24 938.342L310.463 932.364C309.505 931.844 309.243 931.197 309.679 930.424C312.847 924.803 323.787 915.791 316.145 910.706C315.427 910.23 315.024 909.65 314.937 908.966C314.393 904.46 315.862 900.267 319.346 896.386C319.632 896.066 319.81 895.705 319.866 895.331C319.923 894.957 319.857 894.578 319.672 894.222C316.374 888.088 315.623 868.125 321.534 863.106C330.352 855.626 341.194 850.169 354.062 846.734C378.774 835.655 406.011 829.328 435.774 827.752L452.071 825.922C453.312 825.789 454.019 826.146 454.194 826.993C454.618 828.978 453.802 830.317 454.422 832.235C460.061 849.395 467.333 866.243 476.238 882.779C481.039 891.724 481.594 902.207 486.068 911.754C486.547 912.75 487.222 913.115 488.093 912.847C488.855 912.624 489.824 912.141 491 911.397C486.406 902.044 486.395 892.066 490.967 881.463C494.56 873.143 493.678 863.931 490.739 855.633C488.224 848.54 492.078 843.187 492.861 835.068C492.927 834.235 493.395 833.514 494.266 832.904C498.468 829.93 499.992 826.227 498.838 821.796C498.745 821.43 498.856 821.055 499.146 820.745C499.437 820.434 499.887 820.213 500.405 820.123L512.359 817.959C512.699 817.899 513.055 817.892 513.4 817.938C513.745 817.984 514.07 818.083 514.352 818.226C514.634 818.369 514.866 818.554 515.029 818.767C515.193 818.979 515.285 819.214 515.298 819.454C515.624 826.146 511.118 841.96 514.285 846.8C514.518 847.155 514.919 847.446 515.422 847.627C515.926 847.808 516.504 847.869 517.064 847.8C517.623 847.73 518.133 847.535 518.512 847.245C518.89 846.955 519.116 846.586 519.152 846.198C520.132 835.447 525.063 824.963 525.52 814.792C526.282 796.695 527.218 778.479 528.329 760.144C528.362 759.611 528.666 759.102 529.188 758.706C529.71 758.309 530.418 758.048 531.19 757.969C531.963 757.89 532.752 757.997 533.421 758.272C534.091 758.546 534.6 758.972 534.861 759.474C538.29 765.988 546.748 772.01 550.602 776.07C568.825 795.327 580.017 817 584.175 841.09C582.76 848.823 578.286 857.121 570.752 865.983C571.514 868.868 571.155 871.775 569.675 874.705C569.305 875.463 569.664 875.976 570.752 876.244L572.516 876.69C573.169 876.853 573.626 876.712 573.888 876.266L584.992 856.57C585.623 855.425 586.233 855.433 586.82 856.593C588.562 860.057 589.64 863.232 590.054 866.117C592.427 882.638 593.124 900.051 592.144 918.357C592.775 920.379 592.775 922.297 592.144 924.111C594.495 935.175 593.809 946.685 590.086 958.64C589.869 959.354 590.141 959.83 590.903 960.068C591.817 960.35 592.427 960.172 592.732 959.533C597.631 949.257 600.461 938.759 601.223 928.037C602.105 915.39 610.825 904.036 619.61 893.33C626.044 885.523 629.277 878.006 634.11 869.887C636.897 858.585 638.138 846.771 637.833 834.443C637.811 833.7 638.421 832.845 639.662 831.878C640.446 831.268 640.25 830.964 639.074 830.964H637.311C636.113 830.964 635.112 830.659 634.306 830.049C632.608 828.755 632.075 827.677 632.706 826.815C633.185 826.175 633.283 825.521 633 824.852L627.97 812.762C624.966 815.097 624.41 818.651 626.305 823.424C626.438 823.731 626.472 824.056 626.404 824.375C626.337 824.695 626.169 825.002 625.913 825.276L621.439 830.161C624.835 830.592 627.481 831.766 629.375 833.685C630.071 834.391 630.372 835.245 630.224 836.094C629.44 840.599 630.333 844.897 632.902 848.986C633.337 849.671 633.337 850.354 632.902 851.039C632.074 852.377 631.65 853.752 631.628 855.165C631.628 855.825 631.393 856.483 630.942 857.083C624.607 865.493 622.941 876.021 619.055 882.645C614.874 889.739 609.203 896.177 602.039 901.962C601.858 902.11 601.618 902.219 601.348 902.277C601.078 902.334 600.79 902.337 600.517 902.285C600.245 902.233 600.001 902.129 599.813 901.985C599.625 901.84 599.502 901.662 599.459 901.471C597.173 891.88 597.696 882.266 595.703 872.965C593.711 863.708 590.282 850.503 596.814 841.849C602.562 834.22 609.006 826.54 616.148 818.807L615.658 813.543C615.616 813.133 615.797 812.727 616.166 812.405C616.534 812.083 617.064 811.868 617.65 811.803C620.306 811.476 621.177 810.271 620.263 808.19C619.958 807.506 619.98 806.822 620.328 806.138C626.37 794.204 621.667 782.315 631.726 770.962C638.28 763.601 645.127 756.396 652.269 749.348C652.878 748.753 653.107 748.099 652.954 747.385C652.149 743.266 649.852 739.682 646.063 736.634C645.345 736.039 644.898 735.37 644.724 734.626C643.244 728.128 639.292 722.507 632.869 717.763C632.262 717.313 631.469 716.999 630.596 716.862C629.722 716.726 628.808 716.772 627.975 716.997C627.141 717.221 626.426 717.613 625.924 718.12C625.422 718.627 625.156 719.225 625.162 719.838L625.292 734.827C625.292 735.437 624.879 735.868 624.051 736.121L620.949 737.035C619.751 737.377 619.109 737.102 619.022 736.21L617.389 718.388C617.35 718.012 617.16 717.649 616.838 717.339C616.515 717.028 616.074 716.782 615.56 716.626L607.787 714.306C606.59 713.934 605.904 713.31 605.73 712.432C604.946 708.506 607.461 706.149 613.274 705.361C613.759 705.299 614.217 705.16 614.608 704.954C615 704.749 615.315 704.483 615.528 704.179C618.989 699.48 619.718 694.543 617.715 689.368C617.611 689.097 617.355 688.858 616.997 688.699L611.706 686.558C610.639 686.127 610.161 685.495 610.27 684.662C610.879 680.186 611.075 675.71 610.857 671.234C610.498 663.851 617.487 658.676 608.081 651.94C603.27 648.49 597.38 646.081 590.413 644.713C590.094 644.649 589.803 644.534 589.564 644.378C589.324 644.221 589.144 644.027 589.038 643.812C588.932 643.597 588.904 643.368 588.956 643.144C589.008 642.921 589.138 642.709 589.335 642.527L591.001 640.965C591.698 640.296 592.634 640.043 593.809 640.207C599.057 640.965 604.315 640.928 609.583 640.095C610.737 639.917 611.282 639.419 611.216 638.601C610.803 631.642 605.403 628.065 595.018 627.872C593.82 627.857 592.754 627.589 591.817 627.069C588.726 625.359 585.46 625.173 582.02 626.511C581.105 626.868 580.517 627.404 580.256 628.117C578.525 632.802 570.001 638.757 566.311 642.861C559.844 650.044 564.449 657.628 551.157 662.446C550.549 662.666 549.875 662.788 549.186 662.802C548.498 662.816 547.814 662.72 547.188 662.524C546.562 662.328 546.011 662.035 545.578 661.669C545.145 661.304 544.841 660.875 544.691 660.416C543.319 656.267 544.277 653.784 547.565 652.966C548.61 652.713 549.296 652.229 549.622 651.516C554.456 641.568 561.967 632.653 572.157 624.771C572.599 624.441 572.854 624.014 572.875 623.567L573.463 613.418C573.506 612.689 573.92 612.08 574.704 611.589C582.15 606.786 583.326 601.284 578.231 595.083C577.828 594.604 577.656 594.057 577.741 593.522C578.307 590.012 577.164 586.845 574.312 584.019C573.53 583.26 573.109 582.354 573.106 581.425C573.103 580.496 573.518 579.589 574.295 578.827C575.073 578.065 576.174 577.485 577.451 577.165C578.727 576.844 580.117 576.8 581.432 577.038C584.306 577.543 586.995 577.335 589.498 576.413C590.391 576.071 591.055 575.588 591.491 574.963C597.271 566.8 592.764 556.249 590.544 547.439L521.536 558.257L502.104 568.316C501.973 568.376 501.853 568.369 501.745 568.294L501.059 567.826C500.928 567.737 500.939 567.655 501.091 567.58L519.707 557.587C525.281 554.688 531.899 552.569 539.563 551.23C537.451 551.007 536.613 549.951 537.049 548.063C537.201 547.364 537.789 546.948 538.812 546.814C551.527 545.163 562.424 541.193 571.503 534.903C571.883 534.637 572.171 534.317 572.345 533.966C572.519 533.614 572.575 533.24 572.51 532.872C572.444 532.504 572.257 532.15 571.965 531.838C571.672 531.525 571.28 531.261 570.818 531.066C568.488 530.085 566.768 528.739 565.658 527.029C565.488 526.768 565.204 526.543 564.841 526.382L554.456 521.787C553.367 521.311 552.997 520.642 553.345 519.78C555.152 515.244 553.149 512.211 547.336 510.679C547.01 510.594 546.716 510.46 546.477 510.285C546.239 510.111 546.061 509.901 545.957 509.671C545.854 509.442 545.827 509.199 545.879 508.96C545.931 508.721 546.061 508.493 546.258 508.292C560.171 494.441 581.628 484.671 603.281 476.418C607.809 474.693 610.106 471.875 610.171 467.964C610.17 467.739 610.254 467.516 610.413 467.318C610.573 467.119 610.805 466.95 611.086 466.826L619.414 463.079C621.373 462.202 621.243 461.518 619.022 461.027L617.356 460.692C616.18 460.44 615.081 460.551 614.058 461.027C609.551 463.168 606.329 462.551 604.391 459.176C604.225 458.885 603.934 458.635 603.556 458.46C603.177 458.284 602.73 458.192 602.273 458.194C601.816 458.197 601.371 458.294 600.997 458.473C600.622 458.652 600.337 458.905 600.178 459.198C598.719 461.756 596.041 463.904 592.144 465.644C590.315 469.146 582.085 470.417 578.558 471.644C570.437 474.455 562.043 476.046 553.378 476.418C555.207 475.273 554.118 474.893 550.112 475.28L536.591 490.158C534.567 490.946 534.893 492.054 537.571 493.481C538.29 493.883 538.442 494.374 538.028 494.954L536.232 497.474C535.731 498.158 535.655 498.872 536.004 499.615C539.857 507.437 539.966 515.244 536.33 523.036C536.003 523.735 535.328 524.189 534.305 524.397C528.427 525.557 523.245 524.858 518.76 522.3C517.976 521.869 517.094 521.609 516.114 521.52C512.587 521.192 509.408 520.278 506.578 518.776C506.163 518.557 505.648 518.443 505.123 518.456C504.599 518.468 504.097 518.605 503.704 518.843C502.833 519.378 501.821 519.661 500.667 519.69C498.664 519.75 498.283 519.237 499.524 518.151C504.379 513.869 507.362 509.043 508.472 503.675C508.621 502.961 509.062 502.282 509.746 501.712C518.466 494.485 499.36 486.812 493.123 481.593C492.322 480.933 491.874 480.107 491.85 479.249C491.827 478.39 492.229 477.55 492.992 476.864C499.459 471.02 516.31 467.272 500.405 457.904L425.16 472.626L404.944 474.5L376.466 495.11C375.682 495.69 374.702 496.009 373.527 496.069C363.359 496.53 354.759 499.333 347.726 504.478C347.576 504.592 347.392 504.681 347.186 504.741C346.98 504.801 346.756 504.83 346.531 504.826C346.305 504.821 346.082 504.784 345.877 504.717C345.672 504.649 345.49 504.552 345.342 504.433C343.872 503.251 344.003 501.645 345.571 500.418C351.776 495.63 359.418 492.455 368.497 490.894C383.651 488.284 390.803 478.492 403.932 473.518L411.966 470.618C413.272 470.142 413.359 469.592 412.227 468.968C410.268 467.867 408.809 466.529 407.851 464.953L392.534 470.061C391.811 470.313 390.984 470.39 390.188 470.28C389.392 470.17 388.674 469.88 388.151 469.455C387.629 469.031 387.332 468.498 387.309 467.944C387.286 467.389 387.54 466.846 388.027 466.402C394.428 460.425 407.361 459.309 416.407 455.317C417.344 454.915 418.182 454.997 418.922 455.562C419.314 455.859 419.521 456.276 419.543 456.811C424.05 453.748 426.161 449.822 425.878 445.034C409.027 446.328 392.904 448.989 377.511 453.019C376.595 453.266 375.584 453.321 374.604 453.175C347.302 449.384 342.011 477.667 317.68 480.656C317.16 480.719 316.625 480.692 316.125 480.577C315.624 480.463 315.173 480.265 314.812 480.001C314.452 479.737 314.194 479.416 314.062 479.067C313.93 478.718 313.927 478.351 314.055 478.001C315.209 474.819 318.061 472.648 322.612 471.488C323.307 471.315 323.895 470.985 324.277 470.551L335.545 458.529C336.132 457.889 336.927 457.414 337.929 457.101C346.18 454.454 354.4 451.74 362.586 448.96C366.048 447.778 370.163 448.915 373.755 448.135C385.817 445.502 398.086 443.19 410.562 441.197C411.65 441.019 412.488 440.61 413.076 439.971C417.039 435.733 422.613 430.335 429.797 423.777C432.236 421.546 434.304 420.795 436.003 421.524C438.55 419.695 439.922 417.375 440.118 414.564C440.161 413.776 440.76 413.345 441.914 413.271C452.789 412.602 455.043 405.263 459.909 400.267C460.694 399.463 461.188 398.53 461.34 397.567C461.491 396.604 461.294 395.646 460.769 394.795C460.244 393.943 459.411 393.229 458.357 392.728C457.304 392.227 456.068 391.957 454.781 391.947C453.453 391.932 452.55 391.59 452.071 390.921C451.265 389.791 450.318 389.739 449.229 390.765C442.894 396.698 433.423 398.705 426.466 402.743C417.213 408.081 407.023 412.401 395.898 415.702C395.157 415.91 394.581 416.26 394.167 416.75L391.228 420.141C390.939 420.427 390.505 420.629 390.011 420.709C389.516 420.789 388.996 420.742 388.55 420.576C388.104 420.409 387.763 420.136 387.594 419.809C387.426 419.482 387.44 419.123 387.635 418.803L390.117 415.479C390.64 414.765 390.607 414.059 390.019 413.36C388.386 411.368 387.907 409.055 388.582 406.423C386.993 404.743 388.985 403.144 394.559 401.628C394.618 401.613 394.671 401.588 394.713 401.556C394.755 401.524 394.786 401.486 394.802 401.445C394.818 401.403 394.819 401.359 394.805 401.317C394.791 401.275 394.763 401.236 394.722 401.203L392.011 398.772C391.358 398.192 391.391 397.627 392.109 397.077C395.332 394.564 398.195 391.962 400.699 389.27C403.29 386.504 405.227 385.902 406.512 387.463C409.995 385.932 412.815 384.021 414.97 381.731C415.602 381.062 415.547 380.415 414.807 379.79C401.744 368.526 378.915 387.887 363.01 387.553C362.729 387.55 362.456 387.491 362.225 387.382C361.994 387.272 361.816 387.118 361.712 386.938C361.607 386.757 361.582 386.559 361.639 386.367C361.695 386.175 361.832 385.998 362.031 385.857L364.186 384.385C364.948 383.865 365.199 383.248 364.937 382.534C363.337 378.14 365.754 375.619 371.665 373.701C388.081 368.377 403.747 363.589 418.661 359.336C420.542 358.802 422.193 357.954 423.461 356.87C424.729 355.785 425.572 354.5 425.911 353.135C428.197 344.169 434.076 333.685 427.871 325.053C427.481 324.505 426.902 324.032 426.184 323.672C425.466 323.312 424.63 323.076 423.749 322.986C422.868 322.896 421.968 322.954 421.127 323.155C420.286 323.355 419.529 323.693 418.922 324.138L392.207 343.812C392.013 343.952 391.774 344.058 391.509 344.123C391.243 344.188 390.959 344.21 390.679 344.186C390.4 344.162 390.132 344.094 389.898 343.986C389.664 343.878 389.471 343.734 389.333 343.566L381.234 333.685C380.949 333.33 380.555 333.024 380.08 332.789C379.605 332.553 379.062 332.395 378.491 332.324C376.466 332.086 374.996 331.35 374.082 330.116C373.69 329.595 373.712 329.075 374.147 328.555L386.851 314.19C386.503 314.086 386.263 313.952 386.133 313.788C385.959 313.61 385.991 313.446 386.231 313.297C401.363 303.751 414.481 293.03 425.585 281.133C426.259 280.39 427.163 279.758 428.295 279.237C429.449 278.702 430.505 278.159 431.463 277.609C433.64 275.229 435.763 272.821 437.832 270.382C446.094 260.634 460.627 254.679 466.702 244.151C471.47 235.883 479.439 229.414 490.608 224.745L510.856 201.949C511.088 201.675 511.47 201.461 511.934 201.346L542.143 194.052C543.297 193.77 543.548 193.279 542.894 192.58C539.128 188.506 537.8 185.316 538.91 183.011C544.244 171.888 551.908 161.88 561.902 152.988C562.438 152.503 562.745 151.918 562.782 151.311C562.819 150.704 562.584 150.103 562.109 149.589C561.634 149.076 560.94 148.673 560.121 148.436C559.303 148.198 558.397 148.136 557.526 148.259C546.879 149.821 550.504 157.695 543.907 161.821C543.472 162.099 542.919 162.275 542.327 162.324C541.736 162.373 541.137 162.293 540.617 162.094C540.098 161.895 539.684 161.589 539.436 161.219C539.187 160.849 539.118 160.435 539.237 160.036L540.804 154.237C540.847 154.071 540.836 153.9 540.772 153.737C540.708 153.574 540.593 153.422 540.435 153.292C540.276 153.163 540.078 153.058 539.854 152.987C539.63 152.915 539.386 152.877 539.139 152.877H536.265C535.965 152.878 535.67 152.925 535.401 153.015C535.132 153.105 534.896 153.235 534.711 153.396C534.526 153.557 534.396 153.744 534.332 153.944C534.267 154.143 534.269 154.35 534.338 154.55L536.493 160.483C536.798 161.3 536.504 162.007 535.612 162.602C518.76 173.844 507.58 187.391 502.071 203.242C501.832 203.941 501.298 204.521 500.471 204.982L493.221 208.93C492.72 209.198 492.796 209.295 493.449 209.22C494.385 209.116 494.734 209.428 494.494 210.157C494.342 210.677 494.004 211.131 493.482 211.518C488.126 215.555 468.106 225.414 458.537 220.551C457.71 220.12 456.85 220.083 455.957 220.44C446.943 224.142 438.942 229.295 429.504 232.396C425.454 233.719 421.437 235.169 417.453 236.745C407.23 240.782 399.555 238.641 397.335 230.856C397.117 230.113 397.378 229.451 398.118 228.871C399.055 228.143 399.381 227.273 399.098 226.262C398.902 225.503 399.142 224.819 399.817 224.209C405.739 218.931 411.454 213.555 416.963 208.083C420.718 204.335 429.896 201.793 431.561 196.952C431.65 196.649 431.584 196.333 431.374 196.059C431.165 195.784 430.825 195.566 430.41 195.441C429.995 195.317 429.53 195.292 429.092 195.372C428.654 195.452 428.27 195.632 428.001 195.882C426.695 197.175 424.877 198.395 422.547 199.54C411.139 205.071 400.633 211.294 391.032 218.209C388.071 220.35 383.15 220.923 376.27 219.927C375.268 219.793 374.3 219.853 373.363 220.105L363.337 222.849C362.904 222.973 362.432 223.021 361.965 222.99C361.498 222.959 361.049 222.849 360.659 222.67C350.274 217.964 347.726 226.663 345.016 230.968C344.558 231.682 343.818 232.21 342.795 232.552L327.739 237.749C327.118 237.965 326.422 238.061 325.726 238.026C325.031 237.991 324.363 237.827 323.794 237.551C323.226 237.275 322.778 236.898 322.501 236.461C322.223 236.025 322.126 235.544 322.22 235.072L323.526 228.336C323.643 227.72 323.56 227.093 323.283 226.502C323.006 225.91 322.542 225.368 321.924 224.914C321.307 224.46 320.55 224.105 319.709 223.875C318.868 223.646 317.963 223.546 317.06 223.585C303.038 224.165 296.104 219.563 296.256 209.778C296.256 208.841 296.92 208.254 298.248 208.016L306.054 206.61C307.055 206.432 307.861 206.06 308.471 205.495C315.394 199.16 321.926 193.562 326.4 186.045C329.84 180.231 333.269 174.401 336.687 168.557C341.946 159.591 351.155 153.189 359.385 145.36C359.936 144.84 360.73 144.463 361.639 144.289C371.208 142.438 378.327 143.285 387.341 140.274C402.495 135.233 417.888 130.593 433.521 126.355C452.691 121.181 464.644 112.927 486.264 110.117C486.896 110.043 487.211 109.782 487.211 109.336V108.399C487.211 107.864 486.831 107.611 486.068 107.641C469.739 108.399 456.872 113.864 442.926 116.652C425.976 120.021 411.999 125.619 396.061 130.482C395.432 130.675 394.742 130.757 394.054 130.722C393.366 130.687 392.701 130.535 392.121 130.281C391.54 130.026 391.062 129.676 390.729 129.264C390.397 128.851 390.22 128.388 390.215 127.917C390.117 117.968 393.775 108.912 393.318 99.0533C393.013 91.9453 393.71 84.8745 395.408 77.8408C398.347 65.5951 396.388 54.5094 396.714 42.4867C396.736 41.7283 397.139 41.0889 397.923 40.5684C409.963 32.5236 424.028 24.4786 440.118 16.4338C447.738 12.627 453.671 13.8463 457.917 20.0918C457.307 15.7794 458.646 14.0768 461.934 14.9838C453.747 12.5005 450.264 8.79785 451.483 3.87573C451.591 3.41406 451.445 2.93945 451.074 2.54395C450.702 2.14856 450.132 1.86047 449.473 1.7356C448.815 1.6106 448.114 1.65771 447.508 1.86768C446.902 2.07764 446.433 2.43555 446.192 2.87207C440.183 13.5341 426.924 18.3969 417.616 24.397C389.529 42.5537 357.524 56.5615 321.599 66.4205C308.405 70.0563 296.713 76.0563 283.421 80.1827C282.333 80.5099 281.93 81.0676 282.213 81.8557L282.866 83.5066C283.258 84.5773 284.194 84.8818 285.675 84.4208C293.121 82.0564 301.09 80.7181 308.046 78.2422C334.478 68.8442 360.278 58.554 385.447 47.3715C386.514 46.8956 387.058 47.0889 387.08 47.9514C387.798 69.8553 387.058 91.7448 384.859 113.619C384.532 117.009 381.757 117.767 383.39 121.76C384.718 125.047 385.501 128.541 385.741 132.244C385.806 133.136 385.186 133.56 383.879 133.515C377.892 133.337 373.385 133.82 370.359 134.965C349.424 142.861 326.4 148.928 310.234 161.174C290.465 172.015 275.42 179.279 265.1 182.967C255.259 186.476 252.341 186.082 256.347 181.784L251.057 174.134C250.773 173.717 250.937 173.398 251.546 173.175L268.692 166.996C270.195 166.446 270.859 165.591 270.684 164.431L266.961 139.226C266.852 138.571 267.114 137.999 267.745 137.508C273.82 132.794 279.089 127.679 283.552 122.162C288.941 115.493 285.969 109.359 299.032 104.674C299.519 104.497 299.902 104.208 300.116 103.855C300.33 103.502 300.362 103.106 300.208 102.734C294.786 90.0198 270.946 100.838 275.322 113.53C275.583 114.258 275.474 114.964 274.995 115.649C271.109 121.046 258.274 122.586 250.436 124.392C248.955 124.734 248.172 124.378 248.085 123.322C247.78 119.827 249.837 117.582 254.257 116.586C254.501 116.529 254.726 116.438 254.915 116.319C255.104 116.2 255.252 116.055 255.352 115.894C255.451 115.733 255.498 115.56 255.489 115.387C255.481 115.214 255.417 115.044 255.302 114.89C246.942 103.47 260.103 91.4027 272.448 84.5995C273.237 84.1726 273.811 83.5879 274.09 82.9274C274.369 82.2668 274.34 81.5634 274.005 80.9149C273.671 80.2665 273.048 79.7056 272.225 79.3103C271.401 78.9152 270.417 78.7057 269.411 78.7108H263.598C262.966 78.7122 262.343 78.6075 261.784 78.4059C261.225 78.2042 260.747 77.9117 260.389 77.5537C260.032 77.1956 259.808 76.7825 259.735 76.3506C259.663 75.9187 259.744 75.481 259.972 75.075C269.552 58.1377 278.991 41.3638 288.288 24.7537C292.402 17.4152 292.108 8.84998 297.595 0.931641C297.639 0.87207 297.617 0.812378 297.53 0.75293L296.746 0.195312C296.64 0.121704 296.511 0.0665283 296.367 0.0338135C296.224 0.0012207 296.07 -0.00793457 295.918 0.00720215C295.767 0.0223389 295.621 0.0612793 295.493 0.120972C295.364 0.180664 295.257 0.259521 295.178 0.351562C289.888 6.84241 290.769 13.5786 287.144 19.7349C273.319 43.2003 258.764 66.4576 243.48 89.5066C242.173 91.4695 239.964 92.5179 236.85 92.6519C236.225 92.683 235.598 92.6151 235.017 92.454C234.435 92.293 233.915 92.0425 233.496 91.7218C233.077 91.4012 232.77 91.019 232.599 90.6041C232.427 90.1893 232.396 89.7529 232.506 89.3282C233.747 84.7036 231.331 81.1122 225.256 78.5544C223.972 78.0192 223.318 78.2646 223.297 79.2906L222.774 95.9752C222.752 96.6295 223.101 97.1722 223.819 97.6035C226.856 99.4326 227.836 101.195 225.55 103.715C220.39 109.381 218.039 115.626 210.527 119.396C210.419 119.455 210.281 119.482 210.143 119.472C210.005 119.462 209.879 119.414 209.792 119.34C209.706 119.266 209.666 119.172 209.681 119.078C209.696 118.984 209.766 118.898 209.874 118.838L211.866 117.656C212.01 117.566 212.099 117.442 212.117 117.309C212.134 117.176 212.078 117.043 211.959 116.937C211.84 116.831 211.668 116.759 211.476 116.735C211.283 116.711 211.085 116.737 210.919 116.808C210.266 117.106 209.656 117.463 209.09 117.879C208.753 118.13 208.324 118.314 207.847 118.412C207.37 118.51 206.863 118.518 206.379 118.437L201.84 117.656C200.697 117.463 199.642 117.081 198.766 116.543C197.89 116.006 197.219 115.329 196.814 114.573C196.408 113.816 196.279 113.002 196.438 112.202C196.596 111.402 197.038 110.641 197.725 109.983C206.303 101.79 209.95 92.5251 208.666 82.1903C208.618 81.8224 208.724 81.4529 208.973 81.1249C209.222 80.7969 209.602 80.5244 210.07 80.3391L219.802 76.4802C220.782 76.0936 221.381 75.5211 221.598 74.7627C222.252 72.5991 225.811 70.4131 225.746 68.7848C225.724 67.8182 224.919 67.1417 223.329 66.7551C222.415 66.5321 221.805 66.108 221.5 65.4835L220.194 62.7623C217.494 65.2308 214.424 66.7402 210.984 67.2905C213.945 67.4541 216.025 68.071 217.222 69.1417C217.875 69.7068 218.017 70.3237 217.647 70.9929C215.513 74.6957 211.67 76.3539 206.118 75.9673C205.204 75.8929 204.627 76.1606 204.387 76.7703L202.46 81.3875C202.368 81.6135 202.197 81.8212 201.961 81.9918C201.726 82.1626 201.434 82.2913 201.111 82.3662C200.788 82.4413 200.444 82.4602 200.109 82.4218C199.775 82.3834 199.461 82.2885 199.195 82.1458L187.046 75.8109C186.153 75.3351 185.173 74.9933 184.106 74.785C180.71 74.1605 177.259 73.6548 173.753 73.2682C173.458 73.2327 173.181 73.1473 172.946 73.0199C172.712 72.8925 172.528 72.7269 172.411 72.5385C172.294 72.35 172.248 72.1448 172.277 71.941C172.307 71.7373 172.41 71.5417 172.578 71.3722L177.705 66.3759C177.996 66.0823 178.13 65.7296 178.082 65.3793C178.034 65.0288 177.808 64.7026 177.444 64.4575L170.977 60.0188C170.215 59.4984 170.085 58.9183 170.585 58.2789C176.823 50.2267 187.993 46.5907 193.316 38.9622C193.773 38.308 193.621 37.7281 192.859 37.2227C186.697 33.163 179.48 31.7205 171.206 32.8953C170.139 33.0439 169.323 32.7987 168.757 32.1593L167.483 30.7317C167.358 30.5934 167.281 30.438 167.255 30.2764C167.229 30.1146 167.256 29.9507 167.334 29.7955C167.412 29.6405 167.538 29.4982 167.705 29.3787C167.872 29.259 168.075 29.1652 168.299 29.1034C172.371 28.0327 174.494 26.025 174.668 23.0807C174.685 22.7104 174.548 22.3446 174.274 22.0251C173.999 21.7057 173.598 21.4458 173.117 21.2755C172.635 21.1052 172.093 21.0315 171.552 21.0629C171.012 21.0941 170.496 21.2294 170.063 21.4525C163.27 24.9323 156.815 28.4194 150.696 31.9139C150.043 32.2858 149.444 32.464 148.9 32.4492C148.116 32.4343 147.463 32.2188 146.941 31.8024C146.788 32.0552 146.712 32.3226 146.712 32.6052C146.756 33.1405 147.158 33.4231 147.92 33.4528C152.776 33.6163 155.018 35.3936 154.648 38.7839C154.561 39.6316 154.996 40.3303 155.954 40.8805C157.783 41.9214 159.547 42.1447 161.245 41.5498C164.184 40.5015 164.805 37.1779 166.569 35.1034C167.135 34.4342 167.973 34.0775 169.083 34.0328C174.069 33.8098 176.388 35.5793 176.039 39.3416C175.931 40.6649 174.929 41.4902 173.035 41.8174C158.339 44.3156 151.567 50.9629 152.721 61.7587C152.808 62.5022 152.536 63.1787 151.905 63.7883C146.288 69.1194 141.389 79.3131 131.297 81.276C130.165 81.4843 129.218 81.2908 128.456 80.696L124.765 77.8632C124.559 77.7094 124.286 77.6034 123.987 77.5602C123.688 77.517 123.376 77.5385 123.096 77.6219C122.815 77.7054 122.58 77.8466 122.423 78.0258C122.265 78.205 122.194 78.4132 122.218 78.6216L122.675 81.6996C122.729 82.0798 122.982 82.4346 123.389 82.7003C123.796 82.9661 124.33 83.1254 124.896 83.1497C133.159 83.4619 142.728 79.6921 148.182 85.7592C149.009 86.6663 148.672 87.291 147.169 87.6331L139.233 89.4396C138.568 89.579 138.001 89.8805 137.639 90.2866C137.277 90.6927 137.147 91.1753 137.271 91.6429C137.396 92.1105 137.768 92.5308 138.316 92.8236C138.865 93.1165 139.551 93.2617 140.246 93.2317C145.297 93.0385 148.53 91.3805 149.945 88.2577C150.35 87.3767 151.202 86.6228 152.347 86.1321C153.492 85.6414 154.856 85.4457 156.194 85.58C157.531 85.7144 158.755 86.1699 159.645 86.8651C160.535 87.5603 161.033 88.4496 161.049 89.3729C161.071 92.5254 163.488 93.5587 168.299 92.4731C168.808 92.3574 169.358 92.3574 169.867 92.4731C173.917 93.3356 176.78 95.0458 178.456 97.6035C179.066 98.5552 178.641 99.1871 177.183 99.4995L150.37 105.12C149.303 105.344 148.595 105.819 148.247 106.548L147.79 107.574C147.663 107.856 147.641 108.156 147.725 108.445C147.809 108.734 147.997 109.005 148.273 109.233C148.548 109.461 148.901 109.638 149.301 109.75C149.702 109.861 150.136 109.903 150.566 109.872L171.5 108.221C172.012 108.18 172.499 108.043 172.908 107.822C173.317 107.602 173.632 107.308 173.819 106.972L175.19 104.518C175.735 103.522 176.791 103.046 178.358 103.091C185.304 103.284 188.548 105.73 188.091 110.429C188.049 110.819 188.198 111.204 188.515 111.522L191.324 114.4C192.26 115.336 191.988 116.065 190.507 116.586C184.694 118.667 180.242 121.693 177.15 125.664C176.335 126.718 176.05 127.926 176.339 129.099C176.629 130.273 177.476 131.347 178.75 132.155C182.8 134.742 190.279 138.467 191.454 142.214C192.26 144.847 190.366 146.527 185.772 147.255C185.197 147.351 184.671 147.547 184.246 147.826C183.821 148.104 183.514 148.454 183.355 148.839C180.111 156.943 173.83 163.62 164.511 168.869C163.768 169.287 163.177 169.817 162.784 170.416C162.39 171.016 162.205 171.67 162.243 172.326C162.281 172.983 162.541 173.625 163.002 174.201C163.464 174.778 164.114 175.274 164.903 175.65L172.545 179.353L178.881 174.156C184.128 163.568 189.212 156.468 194.132 152.854C197.986 150.014 200.632 147.01 202.069 143.843C202.205 143.526 202.497 143.252 202.896 143.066C203.295 142.881 203.776 142.795 204.257 142.824C204.738 142.853 205.189 142.995 205.534 143.225C205.88 143.455 206.097 143.76 206.151 144.088C208.404 155.888 214.087 185.822 198.705 193.16C197.725 193.636 196.691 193.703 195.602 193.361C192.293 192.365 189.038 192.394 185.837 193.45C183.224 194.328 182.179 195.413 182.702 196.707C183.181 197.926 184.89 199.227 187.829 200.61C189.767 201.517 189.963 202.573 188.417 203.778L139.364 242.188L118.364 257.378C118.073 257.584 117.86 257.837 117.746 258.114C117.632 258.39 117.62 258.681 117.711 258.961L119.148 263.579C119.409 264.441 119.028 265.132 118.005 265.653C108.893 270.359 95.0787 276.226 97.5934 284.1C104.953 277.289 112.736 271.943 120.944 268.062C129.327 264.791 137.437 261.564 145.275 258.381C147.06 257.653 148.073 256.85 148.312 255.973C148.369 255.749 148.334 255.518 148.21 255.307C148.086 255.096 147.878 254.913 147.612 254.78C147.345 254.647 147.03 254.569 146.703 254.555C146.376 254.541 146.051 254.592 145.765 254.701L128.292 261.125C127.831 261.296 127.3 261.36 126.78 261.309C126.259 261.258 125.778 261.094 125.409 260.841C125.039 260.589 124.802 260.262 124.733 259.911C124.664 259.56 124.767 259.203 125.027 258.895C129.577 253.303 136.381 249.764 145.438 248.277C146.505 248.099 146.962 247.63 146.81 246.872L146.255 243.972C146.124 243.318 146.396 242.768 147.071 242.322C149.836 240.478 153.081 239.162 156.804 238.373C157.892 238.15 158.861 237.771 159.71 237.236L172.643 229.251C173.536 228.686 174.581 228.47 175.778 228.604L182.604 229.384C186.654 229.845 189.147 228.715 190.083 225.994C190.736 224.15 192.63 223.429 195.765 223.83C196.081 223.869 196.379 223.956 196.638 224.085C196.897 224.214 197.11 224.382 197.261 224.575C197.412 224.768 197.497 224.982 197.509 225.201C197.522 225.419 197.461 225.637 197.333 225.838L189.495 238.708C189.326 238.973 189.261 239.265 189.307 239.554C189.352 239.843 189.507 240.12 189.756 240.359C199.586 250.106 174.603 252.805 169.834 257.868C162.933 265.2 155.279 272.144 146.875 278.702C143.054 281.691 142.826 284.88 144.459 288.405C144.85 289.193 145.395 289.245 146.091 288.561C151.404 283.475 157.62 278.977 164.74 275.066C173.296 270.337 181.984 270.694 192.14 271.832C192.636 271.89 193.147 271.837 193.594 271.68C194.042 271.523 194.403 271.271 194.622 270.962L196.484 268.375C196.963 267.72 197.725 267.319 198.77 267.17C226.432 263.11 222.121 280.731 221.729 292.665C221.708 293.306 221.425 293.932 220.913 294.472C215.731 299.87 208.404 303.193 198.933 304.442C198.438 304.507 197.984 304.675 197.633 304.922C197.282 305.17 197.052 305.485 196.974 305.825C196.059 309.602 192.728 312.1 186.98 313.32C185.783 313.573 184.563 313.677 183.322 313.632C176.943 313.394 171.369 314.614 166.601 317.29C166.16 317.541 165.618 317.694 165.046 317.729C164.475 317.765 163.901 317.682 163.401 317.491C158.567 315.632 155.835 312.77 155.203 308.903C155.137 308.563 155.253 308.218 155.529 307.932C155.804 307.645 156.222 307.436 156.706 307.342C162.432 306.138 163.956 303.446 161.278 299.267C161.172 299.106 161.115 298.931 161.11 298.753C161.105 298.575 161.153 298.398 161.25 298.232C161.347 298.066 161.492 297.914 161.677 297.786C161.861 297.657 162.08 297.554 162.323 297.483L167.973 295.899C168.14 295.855 168.281 295.775 168.375 295.67C168.469 295.566 168.509 295.443 168.491 295.321C168.472 295.199 168.396 295.085 168.272 294.996C168.149 294.907 167.987 294.848 167.81 294.829C158.164 293.52 149.151 294.516 140.768 297.818C139.854 298.175 139.505 298.71 139.723 299.424C139.941 300.197 140.681 300.948 141.944 301.676C147.91 299 152.46 297.951 155.595 298.531C155.874 298.585 156.131 298.681 156.348 298.811C156.565 298.942 156.735 299.104 156.845 299.284C156.955 299.465 157.003 299.661 156.985 299.855C156.966 300.049 156.882 300.237 156.738 300.405C148.748 309.848 141.378 319.506 134.628 329.38C130.154 335.915 121.467 343.499 118.43 352.265C118.343 352.563 118.506 352.763 118.919 352.867C119.224 352.942 119.54 353.009 119.867 353.068C120.046 353.108 120.236 353.121 120.424 353.108C120.612 353.094 120.794 353.054 120.96 352.989C121.125 352.924 121.27 352.836 121.386 352.73C121.501 352.625 121.584 352.505 121.63 352.377C125.19 342.094 136.424 340.131 149.945 340.22C153.08 340.235 154.724 341.313 154.877 343.455C155.399 350.801 155.769 358.013 155.987 365.091C156.216 372.14 153.701 384.408 156.542 394.557C166.797 384.631 161.114 353.76 161.604 340.934C161.612 340.497 161.846 340.076 162.264 339.745C162.682 339.415 163.259 339.196 163.891 339.127C181.461 337.105 199.684 337.209 218.561 339.44C222.306 338.681 224.908 337.09 226.367 334.666C226.598 334.279 226.664 333.854 226.556 333.442C226.448 333.03 226.171 332.647 225.757 332.339C225.343 332.03 224.809 331.808 224.217 331.699C223.625 331.59 223 331.598 222.415 331.722C213.27 333.663 205.334 331.298 196.419 332.213C184.27 333.484 176.431 333.172 164.478 336.317C164.086 336.423 163.662 336.464 163.241 336.437C162.821 336.41 162.416 336.315 162.059 336.161C161.703 336.006 161.404 335.797 161.189 335.548C160.974 335.3 160.848 335.021 160.821 334.733L159.547 321.528C159.46 320.666 160.015 320.071 161.212 319.744C164.413 318.881 167.407 319.171 170.194 320.614C171.217 321.134 172.175 321.09 173.068 320.48L175.974 318.473C176.736 317.967 177.64 317.744 178.685 317.803C186.033 318.205 194.296 312.985 198.443 314.123C199.728 314.465 199.913 314.993 198.999 315.707C193.643 319.737 190.703 324.554 190.181 330.161C190.115 330.979 190.66 331.261 191.814 331.008C199.456 329.335 203.865 319.722 209.384 315.127C209.972 314.636 210.734 314.383 211.67 314.368C214.326 314.324 216.395 315.097 217.875 316.688C218.206 317.042 218.693 317.314 219.264 317.463C219.835 317.612 220.459 317.629 221.043 317.513C223.678 317.023 225.833 315.989 227.51 314.413C227.973 313.969 228.672 313.658 229.469 313.543L250.273 310.443C250.841 310.361 251.43 310.375 251.989 310.484C252.547 310.593 253.058 310.794 253.477 311.069C253.896 311.344 254.209 311.685 254.391 312.061C254.572 312.438 254.616 312.84 254.518 313.231C253.212 318.517 244.492 325.633 249.652 329.804C249.816 329.939 249.918 330.105 249.948 330.279C249.977 330.454 249.932 330.63 249.819 330.788C249.705 330.946 249.527 331.078 249.306 331.168C249.086 331.259 248.832 331.304 248.574 331.298C245.853 331.209 243.785 331.997 242.369 333.662C241.934 334.168 241.934 334.681 242.369 335.202C247.595 341.194 255.335 343.157 265.59 341.09L298.542 348.406C299.217 348.555 299.544 348.875 299.522 349.366L299.391 351.841C299.384 352.063 299.292 352.28 299.124 352.47C298.956 352.66 298.719 352.817 298.433 352.927C298.148 353.037 297.825 353.095 297.495 353.097C297.166 353.098 296.84 353.042 296.55 352.934L281.331 347.18C280.439 349.366 281.353 351.931 284.074 354.875C285.272 356.184 284.967 357.314 283.16 358.266L273.003 363.619C272.552 363.856 272.199 364.169 271.978 364.527C271.756 364.886 271.675 365.277 271.74 365.663C271.806 366.05 272.017 366.418 272.353 366.732C272.689 367.046 273.138 367.295 273.656 367.455L275.942 368.125C276.443 368.288 276.487 368.496 276.073 368.749C275.833 368.913 275.594 369.069 275.355 369.218C274.658 369.664 274.701 370.065 275.485 370.422C278.141 371.642 279.361 371.366 279.143 369.597C279.115 369.478 279.152 369.357 279.247 369.256C279.341 369.155 279.486 369.081 279.655 369.048C279.824 369.015 280.005 369.025 280.163 369.077C280.321 369.129 280.447 369.218 280.515 369.329C286.567 377.329 295.81 382.965 308.242 386.237C309.244 386.501 310.127 386.941 310.802 387.512C311.477 388.083 311.921 388.765 312.09 389.489C312.258 390.214 312.146 390.956 311.763 391.642C311.38 392.328 310.74 392.933 309.908 393.397C303.572 396.891 298.586 400.988 294.95 405.687C294.461 406.312 294.256 407.019 294.362 407.717C295.298 413.204 293.633 418.2 289.365 422.706C289.126 422.953 288.822 423.166 288.469 423.33C288.116 423.495 287.721 423.609 287.308 423.665L259.515 427.479C258.444 427.628 257.334 427.585 256.294 427.354C255.254 427.123 254.318 426.712 253.577 426.161C252.835 425.609 252.313 424.936 252.061 424.206C251.808 423.476 251.833 422.714 252.134 421.992L261.768 399.04C261.979 398.567 261.921 398.057 261.605 397.612C258.927 393.843 247.987 382.757 252.363 377.783C252.951 377.143 252.711 376.712 251.644 376.489L250.077 376.132C249.892 376.092 249.695 376.086 249.506 376.115C249.317 376.145 249.143 376.208 249.002 376.3C248.862 376.391 248.76 376.506 248.708 376.634C248.655 376.761 248.654 376.897 248.705 377.025C249.445 378.928 248.607 380.251 246.19 380.995C245.167 381.322 244.775 381.857 245.015 382.601C246.757 388.029 246.789 393.478 245.113 398.951C245.069 399.098 244.992 399.242 244.884 399.375C242.816 401.68 240.127 403.56 236.817 405.018C236.316 405.242 235.892 405.539 235.576 405.89C235.26 406.241 235.059 406.636 234.989 407.048C233.747 414.765 228.99 421.152 220.717 426.208C215.361 429.487 209.057 429.732 202.101 430.691C201.66 430.758 201.26 430.915 200.953 431.141C200.646 431.368 200.447 431.652 200.383 431.958C200.319 432.263 200.393 432.574 200.595 432.85C200.797 433.126 201.117 433.354 201.513 433.502C205.65 435.004 210.037 435.48 214.675 434.929C215.388 434.845 216.12 434.889 216.8 435.057C217.48 435.226 218.086 435.513 218.556 435.89C219.027 436.268 219.347 436.723 219.485 437.211C219.623 437.7 219.575 438.205 219.345 438.677C215.883 445.755 210.821 452.105 204.159 457.726C196.027 464.596 195.145 474.522 194.067 482.976C193.958 483.793 194.241 484.544 194.916 485.229C197.899 488.292 199.162 491.764 198.705 495.645C198.596 496.403 198.846 497.11 199.456 497.764L204.485 503.251C205.117 503.92 205.367 504.649 205.236 505.437C204.714 508.813 202.362 511.11 198.182 512.33C196.963 512.687 196.146 513.281 195.733 514.114C194.274 516.984 194.437 519.713 196.223 522.3C196.789 523.118 197.126 523.973 197.235 524.865L199.684 543.736C199.772 544.42 199.619 545.082 199.227 545.721C197.202 548.888 191.324 555.402 197.79 557.677C197.98 557.74 198.187 557.776 198.398 557.783C198.609 557.79 198.82 557.768 199.019 557.718C199.217 557.668 199.398 557.591 199.552 557.492C199.706 557.393 199.829 557.274 199.913 557.141C201.437 554.747 203.821 554.398 207.065 556.093C207.216 556.182 207.339 556.296 207.425 556.427L221.664 581.521C221.855 581.842 221.9 582.199 221.794 582.547C220.793 585.804 220.913 589.061 222.154 592.317C222.285 592.664 222.284 593.029 222.153 593.376C222.022 593.723 221.763 594.042 221.402 594.302L210.266 602.31C209.973 602.523 209.773 602.787 209.687 603.073C209.6 603.359 209.632 603.656 209.777 603.931C209.922 604.206 210.176 604.448 210.51 604.63C210.844 604.812 211.246 604.928 211.67 604.964C214.544 605.172 217.168 604.57 219.541 603.158C220.308 602.697 221.254 602.397 222.264 602.296C223.275 602.194 224.307 602.294 225.236 602.584C226.165 602.874 226.951 603.342 227.499 603.931C228.048 604.519 228.335 605.204 228.326 605.901C228.282 608.176 229.426 610.206 231.755 611.991C232.583 612.615 233.051 613.344 233.16 614.176C234.401 622.623 229.709 628.831 219.084 632.801C217.93 633.233 217.451 633.887 217.647 634.764L220.031 645.471C220.292 646.631 221.272 647.114 222.97 646.921L224.44 646.742C224.932 646.682 225.373 646.499 225.676 646.231C225.978 645.962 226.12 645.627 226.073 645.293C225.332 640.118 228.5 637.486 235.576 637.396C236.158 637.389 236.719 637.245 237.164 636.989C237.61 636.733 237.914 636.381 238.026 635.991C241.357 624.459 237.536 614.377 253.081 606.191C253.499 605.975 254.004 605.853 254.528 605.84C255.051 605.827 255.568 605.925 256.007 606.12C256.446 606.315 256.787 606.598 256.982 606.93C257.177 607.262 257.218 607.627 257.098 607.976L253.114 619.664C252.853 620.407 253.092 621.062 253.832 621.627C263.325 628.973 263.238 636.348 253.571 643.753C252.853 644.304 252.591 644.943 252.787 645.672C254.355 652.021 250.24 655.702 240.442 656.713C239.484 656.817 238.635 657.07 237.895 657.472C232.125 660.639 228.141 664.334 225.942 668.557C225.672 669.042 225.15 669.443 224.476 669.683C223.802 669.923 223.023 669.985 222.286 669.859C221.549 669.732 220.906 669.425 220.478 668.996C220.05 668.567 219.868 668.046 219.965 667.531C220.945 663.13 224.363 659.836 230.22 657.65C230.937 657.381 231.517 656.969 231.882 656.469C232.247 655.969 232.38 655.405 232.263 654.852C232.146 654.299 231.784 653.784 231.227 653.375C230.669 652.966 229.942 652.683 229.142 652.564C216.112 650.646 212.193 655.219 208.796 663.226C204.659 672.877 195.711 678.811 181.951 681.026C171.108 683.48 143.969 692.224 144.622 701.346C144.709 702.402 145.308 702.573 146.418 701.859C155.595 695.926 168.724 687.294 181.624 685.933C182.065 685.886 182.516 685.906 182.944 685.994C183.371 686.082 183.764 686.234 184.093 686.44C184.423 686.646 184.68 686.9 184.846 687.182C185.013 687.465 185.083 687.77 185.053 688.075C184.596 693.368 182.691 698.358 179.338 703.042C178.837 703.741 178.87 704.424 179.436 705.094C180.851 706.774 182.822 706.915 185.347 705.518C186.088 705.101 186.567 704.573 186.784 703.934C187.873 700.677 190.006 697.77 193.185 695.213C193.796 694.723 194.132 694.106 194.132 693.473C193.969 681.294 213.238 683.636 223.427 686.513C224.288 686.755 225.043 687.146 225.617 687.647C226.192 688.148 226.566 688.741 226.705 689.371C226.843 690 226.74 690.642 226.406 691.236C226.072 691.83 225.518 692.354 224.799 692.759C217.092 697.026 211.463 702.328 207.914 708.662C203.309 716.916 211.18 731.035 215.034 739.177C215.339 739.846 215.045 740.351 214.152 740.693C213.303 741.021 212.704 741.489 212.356 742.098C211.278 743.927 215.589 751.534 213.793 756.285C213.51 756.984 213.815 757.534 214.707 757.935C221.979 761.296 223.917 765.973 220.521 771.965C220.272 772.407 219.813 772.779 219.218 773.022C218.623 773.266 217.926 773.366 217.238 773.307C216.551 773.248 215.912 773.033 215.423 772.697C214.935 772.361 214.625 771.923 214.544 771.453C213.281 763.943 209.46 757.177 203.081 751.155C201.426 749.593 201.666 747.147 203.799 743.816C203.908 743.649 203.962 743.468 203.958 743.285C203.955 743.102 203.893 742.922 203.779 742.757C203.664 742.592 203.499 742.446 203.294 742.328C203.089 742.211 202.849 742.125 202.591 742.076C198.476 741.333 196.44 739.541 196.484 736.701C196.494 736.416 196.396 736.135 196.2 735.884C196.004 735.633 195.716 735.421 195.364 735.268C195.013 735.115 194.609 735.027 194.193 735.012C193.777 734.998 193.362 735.057 192.989 735.184C191.531 735.66 190.605 736.336 190.213 737.214C189.952 737.823 190.083 738.589 190.605 739.511C199.227 754.813 212.258 764.538 203.669 782.159C203.299 782.947 202.569 783.527 201.481 783.899L192.304 787.066C191.389 787.379 190.943 787.884 190.964 788.583C191.117 794.844 187.013 799.134 178.652 801.453C178.098 801.614 177.638 801.896 177.344 802.254C177.05 802.613 176.94 803.028 177.029 803.434C177.119 803.841 177.404 804.215 177.84 804.499C178.276 804.782 178.837 804.958 179.436 805C189.92 805.647 206.412 799.468 210.135 809.394C210.407 810.13 210.249 810.91 209.694 811.568C209.139 812.225 208.232 812.71 207.163 812.918L194.982 815.305C194.153 815.465 193.421 815.801 192.891 816.264C186.033 822.183 180.721 828.703 176.954 835.826C176.519 836.644 176.91 837.172 178.13 837.41C186.556 839.105 194.568 838.696 202.166 836.183C202.488 836.078 202.839 836.02 203.195 836.013C203.551 836.006 203.905 836.05 204.232 836.143C204.56 836.236 204.853 836.375 205.094 836.551C205.335 836.727 205.517 836.936 205.628 837.165C208.078 842.183 208.208 847.046 204.583 852.198C199.532 859.44 196.114 867.143 194.328 875.307C194.154 876.095 194.59 876.668 195.635 877.025C208.208 881.329 227.902 883.225 229.045 894.646C229.11 895.345 228.685 895.828 227.771 896.096L219.606 898.572C219.338 898.651 219.098 898.769 218.904 898.918C218.709 899.066 218.565 899.241 218.481 899.431C218.397 899.62 218.375 899.819 218.417 900.014C218.459 900.208 218.564 900.394 218.724 900.557L224.832 906.825C225.398 907.419 225.43 908.029 224.93 908.654L211.311 925.561C210.891 926.085 210.291 926.531 209.564 926.863C208.837 927.194 208.003 927.4 207.133 927.464C206.264 927.528 205.385 927.446 204.571 927.228C203.757 927.009 203.033 926.659 202.46 926.208C199.412 923.769 195.548 922.907 190.867 923.621C189.626 923.814 189.114 924.342 189.332 925.204C192.075 936.424 182.114 945.435 190.213 957.793C190.53 958.239 191.074 958.595 191.748 958.796L208.078 963.525C209.101 963.823 209.678 964.351 209.809 965.109C210.919 971.934 207.61 977.392 199.88 981.481C198.901 981.987 198.313 982.648 198.117 983.466C196.571 989.429 191.629 993.035 183.29 994.284C182.114 994.463 181.254 994.917 180.71 995.645C176.791 1000.89 182.571 1011.68 183.257 1017.91C183.301 1018.19 183.105 1018.33 182.669 1018.33C182.364 1018.33 182.06 1018.33 181.755 1018.33C181.642 1018.33 181.53 1018.35 181.426 1018.38C181.323 1018.41 181.23 1018.45 181.153 1018.51C181.076 1018.57 181.018 1018.63 180.981 1018.7C180.944 1018.78 180.929 1018.86 180.938 1018.93C181.635 1025.67 179.49 1031.91 174.505 1037.67C174.258 1037.96 174.102 1038.28 174.046 1038.62C173.989 1038.96 174.035 1039.3 174.178 1039.63C175.876 1043.5 174.831 1046.67 171.043 1049.16C170.303 1049.65 169.443 1050.02 168.463 1050.27C166.22 1050.88 164.228 1051.73 162.486 1052.81C159.482 1054.73 159.873 1057.52 163.27 1058.97C164.228 1059.37 164.859 1059.93 165.164 1060.64C168.397 1067.83 156.314 1070.15 162.127 1077.75C162.715 1078.51 163.51 1078.64 164.511 1078.13L177.738 1071.55C178.391 1071.23 179.15 1071.01 179.948 1070.93C180.747 1070.85 181.561 1070.91 182.32 1071.09C183.08 1071.27 183.761 1071.58 184.306 1071.98C184.85 1072.38 185.241 1072.87 185.445 1073.4C185.946 1074.68 186.98 1075.59 188.548 1076.12C188.972 1076.27 189.328 1076.5 189.576 1076.77C189.823 1077.05 189.954 1077.36 189.952 1077.68C190.17 1090.62 190.431 1103.55 190.736 1116.47C190.834 1119.17 189.626 1122.65 191.258 1126.09C199.26 1142.57 203.048 1161 198.966 1178.97C198.835 1179.64 198.335 1179.82 197.464 1179.51L178.685 1172.88C177.683 1172.53 177.019 1171.98 176.693 1171.23C164.838 1143.22 158.077 1117.86 163.335 1090.06C163.411 1089.62 163.231 1089.17 162.834 1088.82C162.437 1088.46 161.855 1088.23 161.212 1088.17L156.412 1087.72C155.52 1087.64 154.613 1087.69 153.752 1087.87C152.891 1088.05 152.097 1088.35 151.426 1088.76C150.755 1089.17 150.222 1089.67 149.865 1090.24C149.508 1090.8 149.335 1091.41 149.357 1092.03C150.337 1122.18 161.441 1151.49 167.124 1181.56C168.691 1189.88 174.831 1205.92 174.113 1218.74C174.069 1219.41 174.178 1220.08 174.439 1220.73L176.268 1225.3C176.682 1226.31 176.137 1226.71 174.635 1226.48C166.971 1225.41 162.922 1227.46 162.486 1232.62C162.421 1233.41 162.737 1234.12 163.433 1234.76C183.551 1253.39 178.032 1274.71 173.623 1301.72C173.579 1302.02 173.34 1302.17 172.904 1302.17C172.6 1302.17 172.273 1302.16 171.925 1302.14C171.38 1302.12 171.097 1302.29 171.075 1302.66C170.488 1308.53 170.488 1314.41 171.075 1320.3C171.99 1329.16 167.581 1336.07 170.716 1345.37C173.786 1354.5 175.724 1363.74 176.529 1373.08C177.052 1379.17 174.211 1383.96 175.092 1390.72C176.116 1398.54 174.635 1406.24 170.651 1413.83C170.487 1414.15 170.22 1414.44 169.87 1414.68C169.519 1414.92 169.094 1415.1 168.626 1415.21C154.844 1418.51 170.128 1429.35 174.015 1434.04C174.276 1434.34 174.428 1434.68 174.456 1435.04C174.485 1435.39 174.389 1435.74 174.178 1436.07C170.673 1441.48 168.615 1447.08 168.006 1452.86C167.483 1457.7 173.525 1463.93 172.839 1467.23C171.119 1475.5 168.397 1483.59 164.674 1491.5C160.461 1500.37 163.27 1506.82 170.814 1513.82C174.766 1517.53 167.091 1526.14 164.511 1529.17C156.477 1538.67 153.668 1545.1 153.995 1555.51C154.256 1564.55 148.018 1572.53 146.222 1580.92C144.067 1590.96 143.12 1601.06 143.381 1611.23C143.511 1616.07 140.246 1618.73 135.249 1621.56C134.465 1622.01 133.855 1622.55 133.42 1623.19C128.739 1630.15 127.019 1635.92 128.26 1640.5C132.31 1655.73 124.471 1670.54 125.092 1686.11C125.386 1692.76 122.479 1696.75 114.608 1700.07C113.716 1700.45 113.27 1700.99 113.27 1701.7C113.313 1705.88 114.369 1709.89 116.437 1713.73C118.528 1717.65 117.417 1721.27 119.932 1725.35C123.503 1731.1 123.405 1736.94 119.638 1742.86C119.183 1743.58 118.397 1744.18 117.397 1744.57C116.398 1744.96 115.24 1745.11 114.099 1745.01C112.959 1744.91 111.897 1744.56 111.076 1744.01C110.254 1743.46 109.717 1742.74 109.546 1741.96C108.044 1735.16 108.73 1729.43 104.288 1722.74C100.935 1717.74 98.4752 1712.52 96.9075 1707.08L88.2204 1692.02C87.9414 1691.6 87.4398 1691.26 86.8151 1691.08C86.1905 1690.9 85.4883 1690.88 84.8475 1691.04C84.2067 1691.19 83.6742 1691.5 83.3553 1691.91C83.0364 1692.32 82.9545 1692.8 83.1257 1693.25L95.8624 1721.11C96.1455 1721.73 96.1891 1722.37 95.9932 1723.03C95.5142 1724.63 95.4161 1726.79 95.6992 1729.5C96.3088 1735.56 94.3712 1741.87 89.886 1748.41C89.407 1749.12 89.4287 1749.83 89.9512 1750.53C97.2994 1760.26 93.3477 1768.55 97.2667 1778.72C100.99 1788.32 98.8671 1799.18 101.284 1809.26C103.766 1819.52 99.4876 1829.42 97.2994 1839.22C97.21 1839.73 96.8437 1840.21 96.2715 1840.55C95.6992 1840.89 94.9616 1841.07 94.2016 1841.07C93.4416 1841.06 92.7132 1840.86 92.1572 1840.5C91.6013 1840.15 91.2575 1839.67 91.1923 1839.15C89.1021 1827.62 83.4849 1818.87 91.7149 1807.01C91.8573 1806.79 91.8961 1806.56 91.8255 1806.33C91.755 1806.1 91.5789 1805.89 91.323 1805.74C83.5938 1801.07 75.6251 1800.63 67.4168 1804.42C66.8734 1804.67 66.2456 1804.83 65.5898 1804.88C64.9339 1804.93 64.2703 1804.86 63.6586 1804.69C63.047 1804.52 62.5065 1804.24 62.0851 1803.89C61.6637 1803.54 61.3748 1803.13 61.2443 1802.68C59.742 1797.59 63.2364 1793.6 63.367 1789.36C63.5412 1783.45 63.5305 1777.32 63.3345 1770.98C63.3161 1770.36 63.0621 1769.76 62.5976 1769.22C62.1331 1768.69 61.4739 1768.25 60.6842 1767.94C59.8945 1767.63 59.0015 1767.47 58.0923 1767.47C57.183 1767.46 56.2885 1767.62 55.4964 1767.93C53.5151 1768.69 51.3922 1769.01 49.1279 1768.91C48.6998 1768.89 48.2845 1768.8 47.9117 1768.66C47.539 1768.52 47.2183 1768.32 46.9725 1768.08C43.6086 1764.85 42.433 1760.86 39.2651 1757.85C30.9045 1749.93 16.9264 1734.96 4.64677 1730.32C3.98955 1730.06 3.21713 1729.98 2.47504 1730.08C1.73295 1730.19 1.07246 1730.48 0.618456 1730.89C0.164448 1731.3 -0.0517449 1731.82 0.0104908 1732.33C0.0727266 1732.85 0.409123 1733.33 0.956325 1733.69C15.5874 1743.55 28.4224 1754.8 39.461 1767.44C43.3474 1771.88 43.0208 1777.99 52.4591 1781.58C52.9724 1781.78 53.3805 1782.09 53.6264 1782.46C53.8723 1782.82 53.9437 1783.23 53.8307 1783.63L51.904 1790.41C51.6645 1791.27 50.9242 1791.61 49.6832 1791.42L38.4486 1789.79C38.0837 1789.73 37.7029 1789.75 37.3527 1789.84C37.0025 1789.93 36.698 1790.09 36.4764 1790.29C36.2548 1790.5 36.1258 1790.74 36.1049 1791C36.0839 1791.25 36.172 1791.51 36.3584 1791.73L43.3799 1800.36C48.3114 1807.14 54.7779 1813.25 54.9412 1820.97C55.3005 1835.58 50.3037 1849.61 51.2508 1863.84C51.9039 1873.83 52.187 1883.83 52.0999 1893.82C52.0673 1899 54.8431 1903.63 56.8353 1908.54C57.1401 1909.29 57.1728 1910.03 56.9333 1910.77C56.4761 1912.27 57.0204 1913.4 58.5663 1914.14C59.3936 1914.53 60.1557 1914.48 60.8524 1913.98C64.9021 1911.17 67.0248 1908.83 65.6858 1904.68C62.8337 1895.82 61.6906 1886.42 62.2567 1876.49C62.3874 1874.36 63.9441 1873.25 66.9269 1873.17C67.1558 1873.16 67.3799 1873.12 67.5857 1873.05C67.7915 1872.98 67.9746 1872.89 68.1241 1872.77C68.2736 1872.65 68.3865 1872.52 68.4558 1872.37C68.525 1872.22 68.5493 1872.07 68.5271 1871.92C68.2659 1870.16 67.1663 1868.7 65.2286 1867.54C64.9346 1862.75 71.891 1862.97 72.6095 1858.09C72.9361 1855.63 74.1445 1854.36 75.1243 1852.51C72.6422 1849.06 70.9874 1845.36 70.1601 1841.4C68.3638 1832.97 64.7715 1825.65 64.7715 1817.71C64.7617 1817.53 64.8462 1817.34 65.0111 1817.19C65.176 1817.04 65.4113 1816.93 65.6781 1816.89C65.9448 1816.84 66.2271 1816.86 66.478 1816.93C66.7289 1817.01 66.9332 1817.14 67.0575 1817.31C75.2874 1827.84 80.8068 1838.22 83.6154 1848.45L79.925 1858.6C77.9872 1861.29 77.2797 1862.85 77.8023 1863.26C78.3798 1863.72 79.1002 1864.07 79.9106 1864.31C80.721 1864.55 81.6005 1864.65 82.4844 1864.63C83.3683 1864.6 84.2341 1864.44 85.0177 1864.15C85.8013 1863.86 86.4829 1863.46 87.0121 1862.97L98.0832 1852.78C98.3801 1852.51 98.7949 1852.3 99.2694 1852.2C99.7439 1852.09 100.254 1852.09 100.729 1852.2C105.279 1853.16 108.915 1852.58 111.637 1850.44C116.318 1843.43 122.566 1837.16 130.383 1831.61C131.297 1830.96 131.286 1830.31 130.35 1829.67C124.798 1825.95 118.266 1823.49 110.755 1822.29C110.321 1822.21 109.931 1822.05 109.638 1821.82C109.346 1821.59 109.166 1821.3 109.123 1821C109.08 1820.69 109.176 1820.39 109.398 1820.12C109.62 1819.86 109.957 1819.65 110.363 1819.52C112.714 1818.78 115.283 1818.9 118.07 1819.88C128.064 1823.38 148.574 1826.88 137.208 1838.17C136.76 1838.61 136.149 1838.95 135.445 1839.15C134.487 1839.4 133.736 1839.82 133.191 1840.4C132.861 1840.73 132.716 1841.14 132.782 1841.54C132.848 1841.95 133.12 1842.32 133.551 1842.61L139.984 1846.69C140.319 1846.9 140.563 1847.18 140.689 1847.47C140.816 1847.77 140.821 1848.09 140.703 1848.38C134.106 1864.47 133.387 1881.37 117.711 1897.21C113.857 1903.65 107.717 1910.11 99.2916 1916.59C96.4176 1918.8 93.7397 1922.71 92.8579 1925.05C91.7475 1927.99 93.0648 1929.64 96.8097 1930ZM290.625 1203.16C291.287 1203 292.112 1203.22 292.919 1203.76C293.726 1204.3 294.449 1205.13 294.928 1206.05C295.166 1206.51 295.337 1206.98 295.431 1207.43C295.526 1207.89 295.541 1208.32 295.478 1208.7C295.414 1209.08 295.273 1209.4 295.061 1209.65C294.85 1209.9 294.572 1210.07 294.245 1210.15C293.583 1210.31 292.758 1210.09 291.951 1209.55C291.144 1209.01 290.422 1208.18 289.942 1207.26C289.704 1206.8 289.533 1206.33 289.439 1205.88C289.345 1205.42 289.329 1204.99 289.392 1204.61C289.456 1204.23 289.597 1203.91 289.809 1203.66C290.021 1203.41 290.298 1203.24 290.625 1203.16ZM295.44 1199.61L290.606 1199.41C290.503 1199.4 290.402 1199.39 290.309 1199.36C290.215 1199.33 290.131 1199.29 290.061 1199.23C289.992 1199.18 289.938 1199.12 289.902 1199.05C289.867 1198.99 289.851 1198.92 289.855 1198.85L289.888 1198.63C290.582 1190.87 291.536 1183.43 292.54 1177.96C293.545 1172.49 294.517 1169.42 295.244 1169.43L296.158 1169.47C296.521 1169.46 296.813 1170.22 297.016 1171.69C297.22 1173.17 297.33 1175.34 297.342 1178.07C297.355 1180.81 297.268 1184.05 297.087 1187.63C296.906 1191.2 296.635 1195.03 296.289 1198.89L296.256 1199.12C296.24 1199.25 296.145 1199.38 295.993 1199.47C295.84 1199.57 295.642 1199.61 295.44 1199.61ZM280.776 1058.39C280.384 1058.28 278.751 1047.8 271.925 1044.61C271.468 1044.38 271.143 1044.05 271.008 1043.68C270.873 1043.3 270.936 1042.91 271.187 1042.56C271.437 1042.22 271.859 1041.94 272.377 1041.79C272.895 1041.64 273.476 1041.62 274.015 1041.73C284.009 1044.05 291.88 1057.9 294.297 1064.12C294.522 1064.73 294.449 1065.37 294.089 1065.94C293.729 1066.51 293.102 1066.99 292.306 1067.29C291.509 1067.6 290.588 1067.71 289.684 1067.63C288.781 1067.54 287.945 1067.25 287.308 1066.8C284.477 1064.78 282.746 1062.4 282.115 1059.66C282.055 1059.39 281.903 1059.14 281.67 1058.92C281.437 1058.69 281.131 1058.51 280.776 1058.39ZM235.707 941.019L240.442 942.246C240.557 942.273 240.661 942.316 240.751 942.371C240.841 942.426 240.914 942.493 240.966 942.568C241.017 942.643 241.046 942.724 241.052 942.806C241.058 942.889 241.039 942.971 240.998 943.049L240.834 943.339C238.604 947.37 236.311 951.34 234.088 955.021C231.865 958.701 229.754 962.02 227.879 964.785C226.003 967.55 224.399 969.708 223.159 971.134C221.918 972.56 221.066 973.226 220.651 973.094C219.832 972.81 220.814 969.346 223.384 963.459C225.953 957.572 229.901 949.738 234.368 941.666L234.499 941.376C234.542 941.297 234.608 941.225 234.693 941.165C234.777 941.104 234.879 941.055 234.992 941.022C235.105 940.989 235.226 940.971 235.349 940.971C235.472 940.97 235.594 940.987 235.707 941.019ZM584.24 791.929C589.662 785.49 592.362 778.524 592.34 771.029C592.339 770.574 592.499 770.125 592.806 769.722C593.113 769.318 593.558 768.97 594.103 768.709L597.99 766.791C598.774 766.404 599.252 765.884 599.427 765.229L604.456 744.106C604.685 743.158 605.394 742.295 606.459 741.667C607.525 741.039 608.879 740.687 610.285 740.671C611.692 740.655 613.063 740.976 614.158 741.58C615.253 742.183 616.004 743.03 616.279 743.972C617.781 749.058 613.797 755.504 613.013 760.166C610.759 773.639 605.795 785.483 604.946 800.093C604.903 800.851 605.087 801.587 605.501 802.301L612.164 813.788C612.285 813.994 612.331 814.219 612.297 814.444C612.263 814.669 612.15 814.888 611.967 815.082L591.85 836.295C591.741 836.415 591.582 836.51 591.393 836.567C591.203 836.624 590.992 836.64 590.786 836.614C590.58 836.588 590.388 836.52 590.234 836.419C590.081 836.319 589.972 836.19 589.923 836.049C588.051 830.428 587.583 824.763 588.519 819.052C588.628 818.294 588.442 817.58 587.963 816.911C585.46 813.357 583.195 809.736 581.171 806.048C577.905 800.115 570.589 792.152 568.434 784.189C568.259 783.49 568.412 782.836 568.891 782.226L571.046 779.549C571.259 779.281 571.373 778.983 571.378 778.68C571.384 778.376 571.281 778.078 571.079 777.809C568.401 774.3 569.054 771.438 573.039 769.222C573.839 768.791 574.384 768.181 574.573 767.504C576.043 762.575 575.259 756.24 586.298 757.512C587.452 757.63 587.865 758.077 587.539 758.85C583.032 769.408 580.474 780.152 579.864 791.081C579.625 795.409 581.083 795.691 584.24 791.929ZM516.089 807.453C516.005 807.941 515.641 808.386 515.077 808.69C514.512 808.995 513.794 809.133 513.08 809.076L512.756 809.05C512.402 809.022 512.06 808.946 511.75 808.827C511.439 808.709 511.165 808.55 510.945 808.359C510.724 808.168 510.561 807.949 510.464 807.715C510.367 807.481 510.338 807.237 510.38 806.995L516.271 772.746C516.355 772.259 516.719 771.814 517.283 771.51C517.847 771.205 518.565 771.067 519.279 771.124L519.604 771.15C519.957 771.178 520.299 771.254 520.61 771.372C520.921 771.491 521.194 771.65 521.415 771.841C521.635 772.032 521.799 772.25 521.896 772.484C521.993 772.718 522.021 772.963 521.979 773.205L516.089 807.453ZM413.795 753.207L418.498 754.411C418.861 754.506 419.155 754.696 419.314 754.938C419.473 755.181 419.485 755.456 419.347 755.705L419.249 755.928C417.803 758.555 416.29 761.135 414.798 763.521C413.305 765.906 411.862 768.05 410.551 769.828C409.24 771.606 408.087 772.984 407.158 773.883C406.23 774.782 405.544 775.184 405.14 775.066L403.932 774.754C403.513 774.663 403.384 774.053 403.551 772.96C403.719 771.867 404.18 770.311 404.909 768.384C405.637 766.456 406.618 764.194 407.796 761.727C408.973 759.26 410.324 756.637 411.77 754.01L411.901 753.787C412.039 753.538 412.317 753.338 412.672 753.229C413.027 753.12 413.431 753.112 413.795 753.207ZM376.139 699.384C376.475 699.138 376.918 698.975 377.402 698.918C377.886 698.861 378.384 698.913 378.82 699.067C379.257 699.221 379.607 699.468 379.819 699.771C380.031 700.074 380.092 700.416 379.993 700.744C379.775 701.458 378.883 702.38 377.315 703.51C359.919 716.135 343.034 729.065 326.661 742.299C323.167 745.11 321.175 749.058 317.746 752.203C317.455 752.519 316.997 752.746 316.468 752.838C315.938 752.929 315.377 752.877 314.902 752.693C314.426 752.509 314.073 752.207 313.916 751.85C313.758 751.493 313.808 751.108 314.055 750.775C314.969 749.244 316.439 747.578 318.464 745.779C336.013 730.195 355.238 714.73 376.139 699.384ZM530.876 736.076L530.092 730.299C530.061 730.094 530.089 729.886 530.176 729.688C530.262 729.491 530.405 729.307 530.597 729.147C530.788 728.987 531.024 728.855 531.29 728.758C531.557 728.661 531.849 728.601 532.15 728.581L534.599 728.447C536.155 728.351 537.702 728.665 538.902 729.321C540.101 729.977 540.856 730.922 541 731.949L541.164 733.065C541.304 734.095 540.818 735.124 539.814 735.922C538.81 736.721 537.368 737.226 535.808 737.325L533.358 737.481C532.757 737.519 532.158 737.392 531.693 737.128C531.228 736.865 530.934 736.487 530.876 736.076ZM483.138 656.626C483.254 656.758 483.287 656.916 483.232 657.065C483.177 657.214 483.037 657.342 482.844 657.421L432.012 678.117C431.819 678.195 431.588 678.218 431.369 678.181C431.151 678.143 430.964 678.047 430.849 677.915L430.213 677.187C430.098 677.055 430.064 676.897 430.119 676.748C430.174 676.599 430.314 676.471 430.507 676.392L481.339 655.697C481.532 655.618 481.763 655.595 481.982 655.633C482.2 655.67 482.387 655.766 482.503 655.898L483.138 656.626ZM269.803 658.832L250.991 675.583C250.981 675.595 250.968 675.604 250.953 675.611C250.937 675.619 250.919 675.623 250.901 675.625C250.882 675.628 250.863 675.627 250.845 675.624C250.827 675.62 250.81 675.614 250.795 675.606L250.632 675.516C249.815 675.079 249.995 673.802 251.134 671.966C252.273 670.13 254.277 667.885 256.706 665.724L257.327 665.167C258.53 664.095 259.803 663.076 261.071 662.168C262.34 661.259 263.579 660.479 264.72 659.872C265.86 659.266 266.878 658.844 267.717 658.63C268.555 658.418 269.198 658.418 269.607 658.631L269.77 658.721C269.793 658.734 269.81 658.752 269.816 658.772C269.822 658.793 269.817 658.814 269.803 658.832ZM529.864 656.535L536.951 654.549C537.265 654.456 537.611 654.424 537.95 654.457C538.29 654.489 538.61 654.584 538.878 654.733C539.147 654.882 539.352 655.078 539.472 655.301C539.593 655.524 539.624 655.765 539.563 655.999C538.018 661.561 534.501 666.446 529.015 670.654C528.82 670.797 528.558 670.888 528.275 670.911C527.992 670.935 527.706 670.889 527.467 670.782C527.229 670.675 527.053 670.514 526.972 670.327C526.891 670.141 526.908 669.94 527.022 669.762C529.113 666.654 529.287 663.442 527.545 660.126C527.184 659.435 527.224 658.676 527.655 658.008C528.087 657.339 528.878 656.811 529.864 656.535ZM331.854 659.323C345.876 636.214 357.23 612.533 365.917 588.28C365.982 588.057 366.102 587.923 366.276 587.878C366.516 587.804 366.842 587.782 367.256 587.811C367.459 587.83 367.654 587.877 367.829 587.948C368.005 588.019 368.159 588.114 368.28 588.226C368.402 588.338 368.49 588.466 368.538 588.602C368.587 588.737 368.595 588.878 368.562 589.016C362.531 613.909 350.872 637.523 333.585 659.858C333.481 660.015 333.29 660.137 333.054 660.198C332.819 660.258 332.557 660.252 332.328 660.181C332.098 660.11 331.919 659.98 331.831 659.819C331.742 659.658 331.75 659.479 331.854 659.323ZM468.857 628.296L477.348 616.898C477.456 616.745 477.625 616.618 477.835 616.528C478.045 616.439 478.289 616.391 478.539 616.391C478.789 616.391 479.036 616.439 479.253 616.528C479.469 616.618 479.646 616.745 479.765 616.898C480.288 617.597 480.222 618.229 479.569 618.794C478.633 619.626 478.111 620.102 478.002 620.221C467.769 633.902 454.389 645.932 437.864 656.312C437.69 656.416 437.538 656.453 437.407 656.423C437.124 656.364 436.852 656.304 436.59 656.245C436.54 656.232 436.494 656.213 436.456 656.187C436.418 656.161 436.39 656.131 436.374 656.098C436.358 656.065 436.354 656.03 436.363 655.997C436.373 655.964 436.395 655.935 436.427 655.91C445.833 647.761 454.956 639.478 463.795 631.062C464.056 630.809 464.372 630.616 464.742 630.482C465.417 630.229 466.07 629.991 466.702 629.768C467.636 629.435 468.39 628.92 468.857 628.296ZM273.689 651.717L298.379 632.11C298.462 632.043 298.58 632 298.708 631.992C298.837 631.983 298.965 632.01 299.065 632.065L299.098 632.088C299.689 632.436 300.071 632.942 300.22 633.579C300.37 634.215 300.285 634.969 299.969 635.798C299.654 636.626 299.114 637.513 298.382 638.408C297.65 639.302 296.739 640.186 295.701 641.01L286.165 648.572C284.07 650.236 281.586 651.554 279.259 652.236C276.932 652.918 274.952 652.908 273.754 652.207L273.722 652.185C273.627 652.125 273.571 652.043 273.565 651.956C273.559 651.868 273.603 651.782 273.689 651.717ZM442.6 637.597C442.838 637.501 443.119 637.465 443.392 637.497C443.665 637.528 443.913 637.624 444.093 637.768C444.272 637.912 444.372 638.094 444.373 638.284C444.375 638.473 444.279 638.656 444.102 638.802L441.163 641.322C440.956 641.494 440.666 641.608 440.345 641.644C440.025 641.68 439.696 641.635 439.42 641.518C439.144 641.4 438.94 641.219 438.846 641.006C438.752 640.794 438.775 640.565 438.909 640.363C439.693 639.173 440.923 638.251 442.6 637.597ZM465.461 611.232C462.424 612.771 460.627 615.292 457.721 617.188C456.893 617.753 456.316 618.422 455.99 619.195C453.813 624.653 450.394 629.746 445.735 634.474C445.613 634.641 445.402 634.768 445.144 634.83C444.887 634.891 444.606 634.881 444.359 634.803C444.112 634.724 443.92 634.583 443.823 634.41C443.726 634.236 443.732 634.043 443.841 633.872C445.321 630.408 447.226 626.95 449.556 623.5C450.666 621.85 449.991 620.623 447.531 619.82C446.334 619.418 446.268 618.95 447.335 618.414L521.666 580.74C521.841 580.651 521.939 580.607 521.96 580.607C522.135 580.741 522.341 580.882 522.581 581.031C523.082 581.358 523.06 581.662 522.515 581.945C503.552 591.759 484.534 601.522 465.461 611.232ZM424.409 610.117C423.452 610.465 422.627 610.959 421.998 611.562C421.37 612.166 420.955 612.86 420.787 613.591C420.62 614.323 420.703 615.071 421.031 615.776C421.359 616.482 421.923 617.125 422.678 617.656L430.516 623.188C431.169 623.649 431.343 624.169 431.039 624.749L429.7 627.381C429.447 627.845 428.964 628.233 428.336 628.479C427.708 628.725 426.974 628.813 426.261 628.728C425.548 628.644 424.9 628.391 424.431 628.015C423.962 627.639 423.699 627.162 423.69 626.667C423.734 623.039 421.644 620.184 417.42 618.102C416.375 617.582 415.384 617.626 414.448 618.236L399.555 627.827C399.423 627.916 399.266 627.985 399.094 628.032C398.922 628.079 398.738 628.101 398.553 628.099C398.367 628.097 398.185 628.07 398.015 628.02C397.845 627.969 397.692 627.896 397.563 627.805L396.584 627.136C396.372 626.99 396.207 626.816 396.098 626.625C395.99 626.433 395.94 626.229 395.952 626.024C395.965 625.818 396.038 625.617 396.17 625.433C396.301 625.248 396.486 625.084 396.714 624.95L432.9 603.693C433.15 603.574 433.454 603.521 433.757 603.543C434.06 603.564 434.341 603.659 434.551 603.81C434.76 603.961 434.883 604.158 434.898 604.366C434.913 604.573 434.818 604.778 434.631 604.942C431.931 606.89 428.524 608.615 424.409 610.117ZM381.169 613.574C376.629 607.373 388.778 603.225 394.983 600.704C415.667 592.302 436.46 584.027 457.361 575.878C459.343 575.105 461.03 574.636 462.423 574.473C462.761 574.429 463.11 574.469 463.407 574.586C463.705 574.703 463.931 574.889 464.046 575.11C464.16 575.331 464.155 575.573 464.031 575.791C463.907 576.01 463.673 576.191 463.371 576.302C449.719 581.588 435.872 585.536 423.135 591.046C410.953 596.287 384.435 603.001 383.292 613.306C383.278 613.476 383.181 613.638 383.017 613.766C382.852 613.894 382.629 613.98 382.384 614.011C382.139 614.042 381.886 614.016 381.666 613.937C381.445 613.857 381.27 613.729 381.169 613.574ZM531.268 567.58C533.946 565.454 536.918 564.063 540.184 563.409C543.232 562.785 543.45 563.089 540.837 564.324L532.313 568.361C523.103 574.473 515.951 576.748 502.757 578.532C490.902 580.138 487.538 586.785 472.319 587.454C464.459 587.797 458.755 590.659 455.206 596.042C454.662 596.904 453.823 597.075 452.691 596.555L451.712 596.109C451.409 595.968 451.194 595.755 451.109 595.512C451.025 595.268 451.077 595.012 451.254 594.793C456.501 588.414 464.525 585.373 475.324 585.67C476.478 585.7 477.566 585.536 478.59 585.179L531.268 567.58ZM477.61 577.93C477.544 578.525 477.218 578.867 476.63 578.956C474.366 579.298 473.157 578.919 473.005 577.819C472.981 577.652 473.044 577.485 473.182 577.349C473.32 577.214 473.524 577.119 473.756 577.082L477.153 576.569C477.352 576.539 477.56 576.558 477.735 576.625C477.911 576.691 478.041 576.798 478.1 576.926C478.339 577.372 478.176 577.707 477.61 577.93ZM478.1 570.569L485.415 558.056C485.451 557.998 485.519 557.951 485.604 557.926C485.69 557.901 485.786 557.9 485.873 557.922L486.068 557.967C486.638 558.122 487.108 558.436 487.453 558.891C487.797 559.345 488.009 559.931 488.076 560.614C488.142 561.298 488.063 562.066 487.842 562.875C487.621 563.683 487.262 564.517 486.787 565.327L486.428 565.952C485.951 566.764 485.367 567.538 484.708 568.228C484.049 568.918 483.329 569.511 482.588 569.973C481.848 570.435 481.102 570.758 480.393 570.921C479.685 571.085 479.027 571.086 478.459 570.926L478.296 570.882C478.21 570.857 478.142 570.81 478.106 570.752C478.069 570.694 478.067 570.629 478.1 570.569ZM294.329 549.223C303.953 543.646 317.974 534.174 336.394 520.806C337.09 520.3 337.95 519.988 338.974 519.869L347.726 518.932C348.116 518.892 348.514 518.94 348.859 519.069C349.204 519.199 349.478 519.402 349.637 519.648C349.797 519.894 349.834 520.169 349.742 520.43C349.651 520.692 349.436 520.926 349.13 521.096C323.134 535.743 298.335 551.26 274.734 567.647C274.467 567.825 274.113 567.93 273.741 567.943C273.368 567.956 273.001 567.875 272.709 567.717C272.416 567.558 272.219 567.332 272.153 567.081C272.087 566.83 272.157 566.572 272.35 566.354C278.142 560.063 285.468 554.353 294.329 549.223ZM439.007 551.097L444.788 549.357C445.607 549.098 446.538 549.067 447.385 549.271C448.232 549.476 448.928 549.9 449.327 550.453C449.726 551.006 449.795 551.646 449.521 552.236C449.247 552.826 448.65 553.321 447.858 553.617C444.723 554.777 441.664 554.621 438.681 553.149C438.43 553.027 438.231 552.861 438.104 552.67C437.978 552.478 437.929 552.266 437.962 552.057C437.996 551.848 438.11 551.649 438.294 551.48C438.477 551.311 438.724 551.179 439.007 551.097ZM276.857 434.684L290.835 435.219C293.992 433.48 296.321 432.944 297.824 433.614C301.786 430.446 309.668 428.922 321.469 429.041C328.262 429.412 336.688 429.836 346.746 430.312C350.23 430.476 353.67 431.182 357.067 432.431C357.283 432.515 357.473 432.627 357.623 432.762C357.773 432.897 357.881 433.052 357.939 433.215C357.997 433.379 358.005 433.548 357.962 433.713C357.918 433.877 357.825 434.033 357.687 434.171C350.459 441.398 341.641 447.555 331.234 452.64C323.853 456.231 315.492 457.547 307.001 460.38C306.043 460.693 305.052 460.752 304.029 460.558C294.101 458.662 288.973 460.023 282.213 465.644C275.398 471.325 266.711 475.325 256.151 477.645C254.997 477.897 254.05 478.351 253.31 479.005C248.455 483.243 242.065 485.838 234.139 486.79C233.349 486.892 232.617 487.13 232.016 487.481C228.598 489.444 226.704 491.935 226.334 494.954C226.247 495.712 226.508 496.418 227.118 497.073C232.495 502.679 230.743 507.266 221.86 510.835C221.342 511.044 220.757 511.161 220.156 511.177C219.555 511.192 218.957 511.106 218.415 510.925C217.872 510.744 217.402 510.475 217.046 510.14C216.69 509.805 216.459 509.416 216.373 509.006C215.415 504.262 213.379 499.749 210.266 495.467C209.765 494.768 209.515 494.032 209.515 493.258C209.58 490.953 210.941 489.288 213.597 488.262C215.056 487.697 215.197 487.013 214.021 486.21C207.86 481.897 206.151 476.656 208.894 470.485C209.221 469.726 209.939 469.228 211.05 468.99L222.023 466.67C222.937 466.477 223.667 466.105 224.211 465.555C228.609 461.064 234.052 457.205 240.54 453.979C241.073 453.717 241.454 453.336 241.619 452.903C241.783 452.469 241.72 452.01 241.441 451.605C241.162 451.199 240.684 450.874 240.09 450.684C239.496 450.494 238.823 450.452 238.189 450.566C232.681 451.502 228.032 453.406 224.244 456.276C224.076 456.401 223.857 456.488 223.616 456.528C223.375 456.567 223.121 456.556 222.889 456.496C222.657 456.436 222.457 456.329 222.314 456.191C222.172 456.052 222.093 455.888 222.088 455.718C222.241 446.082 228.087 438.811 239.626 433.904C240.917 433.368 242.418 433.133 243.904 433.234C256.315 434.149 266.406 429.331 276.857 434.684ZM149.064 337.432L141.781 336.116C141.071 335.986 140.466 335.668 140.099 335.233C139.731 334.798 139.631 334.281 139.821 333.796L139.886 333.64C140.604 331.784 141.474 329.974 142.448 328.314C143.423 326.655 144.481 325.178 145.564 323.968C146.647 322.758 147.732 321.839 148.759 321.264C149.785 320.688 150.732 320.467 151.545 320.614L151.774 320.658C152.593 320.797 153.263 321.301 153.744 322.144C154.225 322.986 154.509 324.15 154.579 325.568C154.649 326.986 154.503 328.63 154.151 330.406C153.798 332.182 153.246 334.054 152.525 335.915L152.46 336.094C152.269 336.579 151.804 336.992 151.167 337.243C150.53 337.494 149.774 337.562 149.064 337.432ZM449.327 247.251L463.632 239.979C465.744 238.909 466.081 239.124 464.644 240.626C461.183 244.299 456.436 246.946 450.405 248.567C450.153 248.64 449.871 248.647 449.612 248.587C449.353 248.526 449.136 248.402 449.002 248.239C448.868 248.076 448.828 247.885 448.888 247.703C448.948 247.52 449.104 247.359 449.327 247.251ZM253.571 233.087C255.988 232.016 258.002 231.511 259.613 231.57C260.767 231.615 260.887 231.875 259.972 232.351C258.601 233.035 257.044 233.459 255.302 233.622L224.342 246.225C224.239 246.278 224.122 246.316 223.997 246.338C223.872 246.36 223.743 246.365 223.615 246.352C223.488 246.34 223.365 246.31 223.255 246.266C223.144 246.221 223.047 246.161 222.97 246.091C222.893 246.021 222.837 245.941 222.805 245.856C222.773 245.771 222.766 245.682 222.784 245.595C222.802 245.508 222.845 245.424 222.911 245.349C222.976 245.273 223.063 245.207 223.166 245.154C231.919 239.623 242.054 235.6 253.571 233.087ZM363.468 229.786C366.636 224.633 373.984 218.321 382.41 221.845C383.239 222.196 383.921 222.689 384.387 223.274C384.853 223.86 385.088 224.518 385.068 225.185C385.048 225.851 384.775 226.502 384.274 227.074C383.774 227.647 383.063 228.12 382.214 228.448L369.314 233.355C368.56 233.642 367.694 233.761 366.837 233.697C365.979 233.632 365.172 233.386 364.529 232.993C363.886 232.6 363.438 232.08 363.247 231.505C363.057 230.931 363.134 230.329 363.468 229.786ZM230.024 196.796C234.335 194.811 238.45 188.654 240.344 185.576C240.585 185.179 241.009 184.849 241.552 184.635C242.095 184.421 242.728 184.335 243.353 184.391C243.978 184.446 244.562 184.64 245.015 184.943C245.469 185.245 245.767 185.64 245.864 186.067L246.354 188.208C246.55 189.086 246.234 189.874 245.407 190.573L233.878 200.476C233.64 200.681 233.345 200.851 233.01 200.976C232.675 201.102 232.306 201.18 231.926 201.207C231.546 201.234 231.162 201.209 230.796 201.133C230.43 201.057 230.09 200.933 229.796 200.766C227.292 199.354 227.368 198.03 230.024 196.796Z" fill="black"/>
</svg>
