<svg width="382" height="382" viewBox="0 0 382 382" fill="none" xmlns="http://www.w3.org/2000/svg">
<g clip-path="url(#clip0_221_26033)">
<path d="M59.5542 125.955L58.4401 126.026L30.0897 50.2078L34.8729 124.852L43.5628 124.295L43.6342 125.409L25.1403 126.594L25.0689 125.48L33.7588 124.923L28.8328 48.051L20.1429 48.6078L20.0715 47.4937L42.0191 46.0873L63.4812 103.442L77.0015 43.8457L98.9491 42.4393L99.0205 43.5533L90.3306 44.1102L95.2566 120.982L103.946 120.426L104.018 121.54L73.9374 123.467L73.866 122.353L82.556 121.796L77.7085 46.1496L59.5542 125.955ZM125.337 120.845C109.072 121.887 101.073 110.542 100.266 97.9525C99.4883 85.8089 105.359 72.6799 120.956 71.6805C135.217 70.7667 141.242 81.0078 141.999 92.8172L111.807 94.7519L111.964 97.2029C112.835 110.795 115.002 120.165 126.588 119.422C136.838 118.765 140.6 111.141 141.605 107.609L142.754 108.095C140.959 113.244 136.812 120.109 125.337 120.845ZM119.899 72.6431C112.546 73.1143 111.238 82.3712 111.736 93.6378L130.898 92.4099C130.266 84.2842 128.366 72.1006 119.899 72.6431ZM169.108 39.0621L169.037 37.948L186.862 36.8058L191.86 114.792L198.544 114.364L198.615 115.478L181.013 116.606L180.149 103.125L179.926 103.14C178.475 110.168 175.04 117.66 164.901 118.309C153.203 119.059 144.004 109.916 143.126 96.2129C142.24 82.3982 149.937 69.8234 162.192 69.0381C171.438 68.4456 176.003 75.0888 178.304 81.3177L178.527 81.3034L175.793 38.6338L169.108 39.0621ZM167.03 116.607C174.605 116.121 180.176 107.039 179.305 93.447L179.205 91.8873C178.327 78.184 171.65 69.9981 164.074 70.4836C155.05 71.0619 154.11 84.3224 154.752 94.3492C155.395 104.376 158.005 117.185 167.03 116.607ZM192.165 68.9073L192.094 67.7932L209.919 66.6509L212.918 113.443L219.602 113.014L219.674 114.128L195.164 115.699L195.092 114.585L201.777 114.157L198.85 68.4789L192.165 68.9073ZM203.214 49.2938C199.091 49.558 196.225 46.7213 195.982 42.9334C195.747 39.2569 198.228 36.0775 202.35 35.8133C206.36 35.5563 209.227 38.393 209.463 42.0695C209.705 45.8574 207.224 49.0368 203.214 49.2938ZM252.065 112.053L251.251 99.3522L251.028 99.3665C250.07 105.357 247.54 113.014 235.842 113.764C225.481 114.428 221.997 108.946 221.326 98.4731L219.32 67.1672L212.636 67.5955L212.564 66.4814L230.39 65.3392L232.581 99.5417C233.11 107.786 236.005 111.068 240.573 110.776C247.591 110.326 251.214 102.263 250.343 88.6712L248.844 65.2753L242.159 65.7036L242.088 64.5895L259.913 63.4473L262.912 110.239L269.596 109.811L269.667 110.925L252.065 112.053ZM295.799 109.25L295.728 108.136L302.412 107.708L300.235 73.7281C299.714 65.5953 297.063 62.6329 292.829 62.9042C285.699 63.3611 281.659 71.898 282.552 85.8242L284.03 108.886L290.714 108.457L290.786 109.572L266.276 111.142L266.204 110.028L272.889 109.6L269.962 63.922L263.277 64.3504L263.206 63.2363L280.808 62.1083L281.629 74.9204L281.852 74.9061C282.894 68.463 285.668 61.1257 296.92 60.4047C306.167 59.8121 309.935 64.4928 311.153 73.0285L311.376 73.0142C312.424 66.6825 315.191 59.2339 326.443 58.5128C336.693 57.856 340.399 63.3237 341.063 73.6848L343.076 105.102L349.761 104.674L349.832 105.788L325.322 107.358L325.251 106.244L331.936 105.816L329.758 71.8363C329.237 63.7034 326.586 60.741 322.352 61.0123C315.222 61.4692 311.183 70.0062 312.075 83.9323L313.553 106.994L320.238 106.566L320.309 107.68L295.799 109.25Z" fill="#B8C8CD"/>
<path d="M100.521 81.1259C102.1 82.4498 103.655 83.7118 105.201 84.8839C106.341 85.7497 108.353 86.0937 108.954 88.0956C109.561 90.0835 107.876 92.5215 108.413 94.9215C109.608 100.239 111.342 105.649 113.578 111.155C113.964 112.101 113.513 113.192 112.561 113.592C112.156 113.765 111.691 113.773 111.277 113.634C110.476 113.368 109.861 113.478 109.425 113.944C109.358 114.016 109.369 114.141 109.441 114.208C109.469 114.221 109.511 114.24 109.539 114.253L113.554 114.851C113.889 114.903 114.115 115.229 114.063 115.564C114.041 115.724 113.935 115.881 113.806 115.975L112.895 116.582C112.426 116.896 112.468 117.138 113.007 117.266C116.965 118.248 119.214 120.529 119.741 124.104C120.352 128.127 119.376 132.702 116.827 137.802C116.62 138.253 116.538 138.728 116.603 139.219C117.232 143.165 117.821 145.675 118.364 146.762C119.279 148.6 120.551 149.066 122.176 148.172C122.579 147.964 123.09 148.08 123.366 148.446C124.697 150.271 126.429 151.187 128.576 151.2C129.055 151.198 129.487 151.448 129.723 151.864C130.144 152.621 130.623 153.029 131.125 153.089C134.507 153.5 137.642 154.599 140.528 156.387C140.861 156.591 141.219 156.705 141.61 156.748C143.192 156.911 144.268 157.73 144.829 159.185C145.049 159.747 145.651 160.075 146.25 159.923C147.897 159.501 149.464 159.846 150.938 160.951C151.323 161.23 151.509 161.606 151.482 162.072C151.362 164.973 152.792 167.288 155.76 169.011C157.742 170.162 158.973 172.095 159.486 174.808C159.577 175.278 159.875 175.671 160.312 175.872C163.564 177.384 166.477 178.483 169.432 180.679C173.369 183.6 177.59 186.053 182.067 188.06C182.589 188.3 182.887 188.693 182.912 189.269L182.945 189.831C182.978 190.427 183.301 190.729 183.905 190.716C185.772 190.669 188.023 191.311 190.685 192.62C191.758 193.148 194.108 193.835 197.741 194.668C200.029 195.19 202.301 196.047 204.577 197.23C210.352 200.243 216.409 202.566 222.722 204.187C223.135 204.291 223.559 204.298 223.98 204.201L225.594 203.85C226.055 203.737 226.475 203.828 226.853 204.121C229.361 206.026 231.995 205.425 234.532 206.301C236.604 206.997 238.7 207.568 240.84 208.005C243.26 208.502 245.31 209.171 246.963 210C249.555 211.311 252.121 212.644 254.675 214.04C257.448 215.554 260.13 216.634 262.714 217.258C266.894 218.274 271.112 219.136 275.358 219.824C276.203 219.956 277.335 220.357 278.752 220.991C279.64 221.399 280.786 221.807 282.182 222.226C285.045 223.098 287.75 224.649 290.304 226.9C292.264 228.621 294.008 229.919 295.544 230.778C296.839 231.493 298.114 232.25 299.369 233.015C300.262 233.562 301.315 234.542 302.549 235.947C304.159 237.798 306.175 239.1 308.597 239.889C309.103 240.053 309.495 240.353 309.787 240.795C311.901 244.04 314.69 246.484 318.197 248.113C318.507 248.256 318.584 248.496 318.448 248.792L318.221 249.286C318.176 249.385 318.193 249.495 318.272 249.583C328.127 260.077 336.727 271.515 344.093 283.89C344.321 284.285 344.426 284.727 344.42 285.185C344.34 287.626 345.13 289.664 346.78 291.277C347.19 291.687 347.4 292.16 347.411 292.729C347.488 295.054 348.87 296.954 351.579 298.421C354.273 299.882 355.272 302.17 354.589 305.291C354.487 305.773 354.495 306.239 354.622 306.707C356.492 313.53 353.043 319.395 349.816 325.858C347.938 329.608 347.252 335.598 344.747 338.633C340.918 343.281 335.432 346.107 328.282 347.126C327.701 346.791 327.296 346.929 327.087 347.534C326.953 347.899 326.766 347.933 326.52 347.615C326.389 347.452 326.335 347.274 326.349 347.058C326.351 346.905 326.409 346.778 326.524 346.677C326.713 346.525 326.946 346.427 327.201 346.356C327.373 346.316 327.366 346.295 327.192 346.301L326.367 346.349C326.124 346.357 325.903 346.169 325.895 345.926C325.885 345.836 325.91 345.745 325.956 345.681C326.194 345.312 326.216 344.929 326.043 344.525C332.171 337.329 356.064 307.882 349.81 298.924C346.756 294.564 343.032 293.484 338.616 295.692C334.932 297.535 331.058 299.309 327.687 301.809C312.989 312.669 296.791 320.842 279.948 322.838C274.252 323.518 266.825 323.914 257.694 324.039C253.909 324.094 251.077 322.262 247.789 320.717C245.313 319.561 243.756 316.555 239.975 317.159C239.471 317.251 239.016 317.127 238.595 316.815C237.634 316.082 236.735 315.174 235.623 314.731C228.958 312.094 222.395 309.196 215.936 306.073C213.882 305.078 212.515 303.629 210.8 302.191C210.379 301.844 210.128 301.387 210.048 300.854C209.449 296.99 209.933 293.3 211.478 289.789C211.705 289.296 211.73 288.794 211.575 288.279C210.812 285.587 212.611 283.236 210.317 280.643C209.978 280.265 209.561 280.057 209.06 280.031L197.021 279.384C196.304 279.344 195.944 278.974 195.949 278.258C195.94 274.375 195.281 271.646 196.414 267.843C198.197 261.845 201.484 252.762 199.561 246.649C196.927 238.329 181.392 249.335 176.672 249.677C172.389 249.998 168.673 248.084 165.536 243.942C165.224 243.543 165.179 243.009 165.414 242.571C166.604 240.281 167.415 237.885 167.854 235.405C168.795 229.976 169.282 227.244 169.288 227.195C171.164 219.582 173.596 213.66 170.574 207.298C170.372 206.846 170.029 206.552 169.551 206.4C159.818 203.412 153.045 209.373 145.705 214.115C144.072 215.175 141.357 215.021 137.569 213.673C139.352 210.648 142.101 205.486 139.289 202.57C138.348 201.608 137.211 200.846 135.894 200.292C135.833 199.495 135.242 198.847 134.15 198.362C133.339 198.006 133.37 197.901 134.256 198.018C138.018 198.534 140.801 200.36 142.606 203.497C142.715 203.667 142.771 203.658 142.8 203.484C142.818 203.406 142.829 203.309 142.819 203.219C142.834 203.038 142.773 202.873 142.663 202.703C140.368 199.221 136.668 198.682 134.021 196.338C130.165 192.942 126.356 189.482 122.566 185.979C121.212 184.725 121.394 184.142 120.768 182.606C120.578 182.126 120.24 181.783 119.775 181.569L115.642 179.669C115.013 179.363 115.035 179.168 115.733 179.062C119.059 178.591 122.503 179.799 126.07 182.669C128.347 184.519 132.05 185.794 137.152 186.516C137.648 186.59 138.117 186.498 138.56 186.241C146.797 181.295 147.132 173.504 149.343 165.275C149.74 163.817 148.864 162.304 147.406 161.907C147.118 161.826 146.805 161.802 146.507 161.818C143.131 162.061 140.003 163.254 137.106 165.391C132.582 168.728 127.71 170.368 122.475 170.268L126.035 168.213C126.239 168.102 126.307 167.843 126.182 167.632C126.123 167.536 126.038 167.463 125.926 167.446C120.08 166.074 116.411 163.721 114.913 160.401C113.198 156.587 113.155 155.491 109.956 153.901C107.053 152.447 103.457 155.288 101.178 157.196L98.4673 158.001C98.295 158.041 98.2655 157.993 98.351 157.845C99.7127 155.514 100.133 153.708 99.5704 152.441C98.4747 149.956 97.7932 147.387 97.504 144.708C97.2391 142.347 96.7492 140.328 96.0343 138.649C95.1714 136.698 94.3909 134.715 93.6928 132.703C91.8393 127.442 77.5884 123.761 72.5356 122.635C68.981 121.855 67.1243 123.923 68.0383 127.436C68.1027 127.705 68.2494 127.944 68.4427 128.118C69.6252 129.225 69.9754 130.583 69.5213 132.202C69.3832 132.651 69.5031 133.134 69.8203 133.485C70.5991 134.355 70.9508 135.337 70.8473 136.417C70.7831 137.003 70.9324 137.533 71.2747 138.015L76.582 145.428C76.7211 145.645 76.6745 145.709 76.4359 145.634C75.3347 145.316 74.6786 145.219 73.8586 144.363C70.154 140.49 67.7212 135.783 66.5819 130.27C66.1549 128.262 64.9796 126.953 63.0561 126.342C62.5646 126.185 62.2822 125.833 62.2164 125.307L61.5157 119.397C60.7329 115.859 58.9383 113.034 56.1103 110.897C54.9845 110.038 52.106 108.902 47.4464 107.478C47.0114 107.346 46.6542 107.045 46.4465 106.642L43.2339 100.398C43.0261 99.9946 42.7318 99.7055 42.3162 99.5316C37.9161 97.5429 33.8934 95.6253 33.221 91.215C32.8212 88.5535 35.1922 83.0988 36.2427 81.4457C37.9477 78.7777 40.4352 77.3068 43.6976 77.0124C44.3557 76.9561 46.6964 77.3657 50.6915 78.2283C56.3798 79.4592 62.0786 76.7647 67.5737 79.308C67.9828 79.4961 68.2358 79.8004 68.3471 80.2275L69.3577 84.5711C69.504 85.2193 69.9123 85.595 70.562 85.7057L79.8955 87.2966C80.133 87.3375 80.3759 87.3295 80.6165 87.2521L100.507 81.1195L100.521 81.1259ZM111.817 108.704C111.746 108.45 111.697 108.222 111.684 108.028C111.697 108 111.675 107.973 111.64 107.974C111.612 107.961 111.585 107.982 111.586 108.017C111.494 110.931 109.955 112.531 106.985 112.822C106.86 112.833 106.787 112.954 106.798 113.079C106.8 113.113 106.807 113.134 106.829 113.161C110.67 119.489 110.788 119.492 107.171 113.198C107.12 113.124 107.139 113.081 107.222 113.086C109.661 113.096 111.177 112.067 111.81 109.983C111.942 109.548 111.949 109.124 111.817 108.704Z" fill="#82E243"/>
</g>
<rect x="1.03876" y="23.4245" width="358" height="358" transform="rotate(-3.66651 1.03876 23.4245)" stroke="#484848" stroke-dasharray="22 22"/>
<defs>
<clipPath id="clip0_221_26033">
<rect x="0.507812" y="22.9575" width="359" height="359" transform="rotate(-3.66651 0.507812 22.9575)" fill="white"/>
</clipPath>
</defs>
</svg>
