<svg width="360" height="360" viewBox="0 0 360 360" fill="none" xmlns="http://www.w3.org/2000/svg">
<mask id="path-2-outside-1_216_17979" maskUnits="userSpaceOnUse" x="18.0156" y="74.6201" width="320" height="216" fill="black">
<rect fill="white" x="18.0156" y="74.6201" width="320" height="216"/>
<path fill-rule="evenodd" clip-rule="evenodd" d="M259.356 114.828L224.148 79.6201L164.651 139.117L155.843 130.31L155.462 130.691L155.331 130.561L141.217 144.675L132.901 136.358L133.456 135.803L87.6515 89.9983L23.0156 154.634L68.8202 200.439L102.336 166.923L113.294 177.88L113.385 177.788L122.703 187.106L83.5973 226.212L133.59 276.204L155.59 254.204L187.591 286.204L222.238 251.557L234.178 263.496L279.617 218.057L260.099 198.539L278.986 179.652L298.572 199.238L333.123 164.687L303.124 134.689L290.973 146.84L259.158 115.025L259.356 114.828ZM227.88 174.308L213.878 160.306L193.274 180.909L183.828 171.463L163.416 191.876L186.864 215.324L227.88 174.308Z"/>
</mask>
<path fill-rule="evenodd" clip-rule="evenodd" d="M259.356 114.828L224.148 79.6201L164.651 139.117L155.843 130.31L155.462 130.691L155.331 130.561L141.217 144.675L132.901 136.358L133.456 135.803L87.6515 89.9983L23.0156 154.634L68.8202 200.439L102.336 166.923L113.294 177.88L113.385 177.788L122.703 187.106L83.5973 226.212L133.59 276.204L155.59 254.204L187.591 286.204L222.238 251.557L234.178 263.496L279.617 218.057L260.099 198.539L278.986 179.652L298.572 199.238L333.123 164.687L303.124 134.689L290.973 146.84L259.158 115.025L259.356 114.828ZM227.88 174.308L213.878 160.306L193.274 180.909L183.828 171.463L163.416 191.876L186.864 215.324L227.88 174.308Z" fill="#7F979E"/>
<path d="M224.148 79.6201L228.293 75.4748H220.002L224.148 79.6201ZM259.356 114.828L263.501 118.973V110.683L259.356 114.828ZM164.651 139.117L160.505 143.263H168.796L164.651 139.117ZM155.843 130.31L159.988 126.164H151.698L155.843 130.31ZM155.462 130.691L151.316 134.836H159.607L155.462 130.691ZM155.331 130.561L159.477 126.415H151.186L155.331 130.561ZM141.217 144.675L137.072 148.82H145.363L141.217 144.675ZM132.901 136.358L128.755 132.213V140.504L132.901 136.358ZM133.456 135.803L137.601 139.948V131.658L133.456 135.803ZM87.6515 89.9983L91.7969 85.8529L83.5061 85.8529L87.6515 89.9983ZM23.0156 154.634L18.8703 150.489V158.78L23.0156 154.634ZM68.8202 200.439L64.6749 204.584H72.9656L68.8202 200.439ZM102.336 166.923L106.482 162.777H98.191L102.336 166.923ZM113.294 177.88L109.148 182.025L117.439 182.025L113.294 177.88ZM113.385 177.788L117.531 173.643L109.24 173.643L113.385 177.788ZM122.703 187.106L126.848 191.251V182.961L122.703 187.106ZM83.5973 226.212L79.4519 222.066V230.357L83.5973 226.212ZM133.59 276.204L129.444 280.35H137.735L133.59 276.204ZM155.59 254.204L159.736 250.058H151.445L155.59 254.204ZM187.591 286.204L183.446 290.349H191.736L187.591 286.204ZM222.238 251.557L226.384 247.411H218.093L222.238 251.557ZM234.178 263.496L230.032 267.641H238.323L234.178 263.496ZM279.617 218.057L283.762 222.202V213.911L279.617 218.057ZM260.099 198.539L255.954 194.393V202.684L260.099 198.539ZM278.986 179.652L283.131 175.506H274.84L278.986 179.652ZM298.572 199.238L294.427 203.383H302.717L298.572 199.238ZM333.123 164.687L337.268 168.833V160.542L333.123 164.687ZM303.124 134.689L307.27 130.543H298.979L303.124 134.689ZM290.973 146.84L286.828 150.985H295.118L290.973 146.84ZM259.158 115.025L255.013 110.88V119.171L259.158 115.025ZM227.88 174.308L232.025 178.453V170.163L227.88 174.308ZM213.878 160.306L218.023 156.161H209.732L213.878 160.306ZM193.274 180.909L189.129 185.055H197.42L193.274 180.909ZM183.828 171.463L187.974 167.318H179.683L183.828 171.463ZM163.416 191.876L159.27 187.731V196.021L163.416 191.876ZM186.864 215.324L182.718 219.469H191.009L186.864 215.324ZM220.002 83.7655L255.21 118.973L263.501 110.683L228.293 75.4748L220.002 83.7655ZM168.796 143.263L228.293 83.7655L220.002 75.4748L160.505 134.972L168.796 143.263ZM151.698 134.455L160.505 143.263L168.796 134.972L159.988 126.164L151.698 134.455ZM159.607 134.836L159.988 134.455L151.698 126.164L151.316 126.546L159.607 134.836ZM151.186 134.706L151.316 134.836L159.607 126.546L159.477 126.415L151.186 134.706ZM145.363 148.82L159.477 134.706L151.186 126.415L137.072 140.529L145.363 148.82ZM128.755 140.504L137.072 148.82L145.363 140.529L137.046 132.213L128.755 140.504ZM129.311 131.658L128.755 132.213L137.046 140.504L137.601 139.948L129.311 131.658ZM83.5061 94.1437L129.311 139.948L137.601 131.658L91.7969 85.8529L83.5061 94.1437ZM27.161 158.78L91.7969 94.1437L83.5061 85.8529L18.8703 150.489L27.161 158.78ZM72.9656 196.293L27.161 150.489L18.8703 158.78L64.6749 204.584L72.9656 196.293ZM98.191 162.777L64.6749 196.293L72.9656 204.584L106.482 171.068L98.191 162.777ZM117.439 173.735L106.482 162.777L98.191 171.068L109.148 182.025L117.439 173.735ZM109.24 173.643L109.148 173.735L117.439 182.025L117.531 181.934L109.24 173.643ZM126.848 182.961L117.531 173.643L109.24 181.934L118.558 191.251L126.848 182.961ZM87.7427 230.357L126.848 191.251L118.558 182.961L79.4519 222.066L87.7427 230.357ZM137.735 272.059L87.7427 222.066L79.4519 230.357L129.444 280.35L137.735 272.059ZM151.445 250.058L129.444 272.059L137.735 280.35L159.736 258.349L151.445 250.058ZM191.736 282.059L159.736 250.058L151.445 258.349L183.446 290.349L191.736 282.059ZM218.093 247.411L183.446 282.059L191.736 290.349L226.384 255.702L218.093 247.411ZM238.323 259.35L226.384 247.411L218.093 255.702L230.032 267.641L238.323 259.35ZM275.472 213.911L230.032 259.35L238.323 267.641L283.762 222.202L275.472 213.911ZM255.954 202.684L275.472 222.202L283.762 213.911L264.244 194.393L255.954 202.684ZM274.84 175.506L255.954 194.393L264.244 202.684L283.131 183.797L274.84 175.506ZM302.717 195.092L283.131 175.506L274.84 183.797L294.427 203.383L302.717 195.092ZM328.977 160.542L294.427 195.092L302.717 203.383L337.268 168.833L328.977 160.542ZM298.979 138.834L328.977 168.833L337.268 160.542L307.27 130.543L298.979 138.834ZM295.118 150.985L307.27 138.834L298.979 130.543L286.828 142.694L295.118 150.985ZM255.013 119.171L286.828 150.985L295.118 142.694L263.304 110.88L255.013 119.171ZM255.21 110.683L255.013 110.88L263.304 119.171L263.501 118.973L255.21 110.683ZM232.025 170.163L218.023 156.161L209.732 164.451L223.734 178.453L232.025 170.163ZM209.732 156.161L189.129 176.764L197.42 185.055L218.023 164.451L209.732 156.161ZM197.42 176.764L187.974 167.318L179.683 175.609L189.129 185.055L197.42 176.764ZM179.683 167.318L159.27 187.731L167.561 196.021L187.974 175.609L179.683 167.318ZM159.27 196.021L182.718 219.469L191.009 211.179L167.561 187.731L159.27 196.021ZM191.009 219.469L232.025 178.453L223.734 170.163L182.718 211.179L191.009 219.469Z" fill="#FB2DCD" mask="url(#path-2-outside-1_216_17979)"/>
<path d="M47.7306 174.037L49.2035 169.397H57.0096L70.9279 126.39H63.1218L64.6683 121.751H84.3308C93.9042 121.751 98.8383 125.139 98.8383 132.061C98.8383 140.088 92.2841 145.464 82.8579 147.378C87.2765 148.557 90.2221 151.797 87.2765 160.855L86.2455 164.022C84.9199 168.072 86.2455 169.618 88.1602 169.618C89.9276 169.618 91.695 168.219 93.0942 165.936L97.2918 167.335C95.0825 171.386 91.6213 174.479 86.2455 174.479C81.4587 174.479 78.3658 171.975 80.9432 164.022L81.8269 161.297C85.1408 151.134 81.3851 150.177 72.1062 150.177H68.3504L62.1645 169.397H69.8969L68.4241 174.037H47.7306ZM83.5943 126.39H75.9356L69.8233 145.537H75.4937C83.5943 145.537 92.7996 142.371 92.7996 133.018C92.7996 128.968 91.1058 126.39 83.5943 126.39Z" fill="#B8C8CD"/>
<path d="M129.73 140.562C129.73 145.938 125.532 150.577 106.827 150.651C106.68 151.755 106.606 152.786 106.606 153.817C106.606 159.635 109.11 161.403 113.381 161.403C118.904 161.403 122.071 158.383 123.47 155.732L126.048 157.647C123.397 162.654 118.536 165.674 112.424 165.674C104.323 165.674 101.157 160.372 101.157 154.259C101.157 144.833 108.742 133.124 120.672 133.124C126.416 133.124 129.73 135.849 129.73 140.562ZM119.567 137.322C113.381 137.322 109.405 141.887 107.637 147.263C119.493 147.116 124.575 144.833 124.575 140.856C124.575 138.426 122.513 137.322 119.567 137.322Z" fill="#B8C8CD"/>
<path d="M148.164 169.045H147.575C143.304 169.119 138.075 171.107 138.075 174.053C138.075 175.599 139.548 176.409 143.378 176.409H146.323C154.571 176.409 157.517 179.65 157.517 184.363C157.517 191.58 150.595 197.25 139.327 197.25C131.3 197.25 126.661 194.378 126.661 189.37C126.661 184.657 130.711 181.859 136.013 179.723C134.099 178.692 133.289 176.851 133.289 175.378C133.289 172.065 137.118 169.045 142.126 167.572C139.327 165.805 138.223 162.786 138.223 159.619C138.223 151.371 146.25 146.732 153.172 146.732C156.044 146.732 158.474 147.615 160.242 149.162C163.261 146.363 166.059 144.743 168.858 144.743C172.098 144.743 173.718 146.805 171.583 151.592L167.827 151.813C168.49 149.53 168.563 148.72 167.164 148.72C165.544 148.72 163.997 149.751 162.083 151.297C162.893 152.77 163.408 154.464 163.408 156.379C163.408 164.185 155.823 169.045 148.164 169.045ZM140.947 180.828C140.285 180.828 139.622 180.754 139.033 180.681C134.467 182.301 131.742 185.026 131.742 188.045C131.742 191.138 134.762 193.2 140.506 193.2C147.207 193.2 152.288 190.401 152.288 185.467C152.288 182.301 150.226 180.828 145.071 180.828H140.947ZM149.343 165.289C156.265 165.289 158.622 160.724 158.622 156.526C158.622 153.728 157.591 150.708 152.215 150.708C146.765 150.708 143.157 153.728 143.157 159.472C143.157 163.375 144.851 165.289 149.343 165.289Z" fill="#B8C8CD"/>
<path d="M122.956 203.523C120.747 203.523 119.274 201.903 119.274 199.841C119.274 197.779 120.747 196.159 122.956 196.159C125.165 196.159 126.638 197.779 126.638 199.841C126.638 201.903 125.165 203.523 122.956 203.523ZM120.6 219.43L113.53 239.387C113.015 240.933 114.046 241.89 115.15 241.89C116.181 241.89 117.728 241.154 119.053 239.018L121.631 241.08C119.937 244.026 117.212 245.646 114.266 245.646C110.363 245.646 107.786 242.627 108.891 239.239L115.887 219.356C116.402 217.809 115.371 216.852 114.266 216.852C113.235 216.852 111.689 217.589 110.363 219.724L107.786 217.662C109.48 214.717 112.204 213.096 115.15 213.096C119.053 213.096 121.704 216.042 120.6 219.43Z" fill="#B8C8CD"/>
<path d="M126.273 232.272L127.598 228.222H132.68L135.92 218.133L141.369 215.776L137.319 228.222H143.579L142.253 232.272H136.067L131.133 247.516C129.071 253.849 129.218 256.132 132.017 256.132C134.447 256.132 135.552 254.438 137.172 251.051L141.075 252.376C139.16 256.574 136.288 260.33 131.133 260.33C126.052 260.33 123.474 256.721 126.125 248.547L131.354 232.272H126.273Z" fill="#B8C8CD"/>
<path d="M126.273 232.272L127.598 228.222H132.68L135.92 218.133L141.369 215.776L137.319 228.222H143.579L142.253 232.272H136.067L131.133 247.516C129.071 253.849 129.218 256.132 132.017 256.132C134.447 256.132 135.552 254.438 137.172 251.051L141.075 252.376C139.16 256.574 136.288 260.33 131.133 260.33C126.052 260.33 123.474 256.721 126.125 248.547L131.354 232.272H126.273Z" fill="#B8C8CD"/>
<path d="M180.811 216.497L172.342 242.346C171.827 243.892 172.858 244.849 173.962 244.849C174.993 244.849 176.54 244.113 177.865 241.977L180.443 244.039C178.749 246.985 176.024 248.605 173.079 248.605C169.175 248.605 166.893 245.733 167.703 242.272H167.555C164.536 246.911 160.854 248.605 156.656 248.605C149.955 248.605 146.641 244.26 146.641 237.927C146.641 228.722 153.711 216.055 165.199 216.055C169.102 216.055 173.005 217.528 174.183 221.579H174.33L176.098 216.497H180.811ZM165.567 220.327C155.92 220.327 152.164 230.71 152.164 237.043C152.164 241.83 154.447 244.334 158.645 244.334C163.358 244.334 167.776 241.241 170.575 232.846L170.869 231.962C172.71 226.439 172.784 220.327 165.567 220.327Z" fill="#B8C8CD"/>
<path d="M189.328 225.258L190.579 221.281H201.258L186.308 267.749C185.793 269.296 186.824 270.253 187.928 270.253C188.959 270.253 190.506 269.517 191.831 267.381L194.409 269.443C192.715 272.389 189.99 274.009 187.045 274.009C183.142 274.009 180.711 270.99 181.742 267.602L195.219 225.258H189.328Z" fill="#B8C8CD"/>
<path d="M222.421 209.413C220.212 209.413 218.739 207.793 218.739 205.731C218.739 203.669 220.212 202.049 222.421 202.049C224.63 202.049 226.103 203.669 226.103 205.731C226.103 207.793 224.63 209.413 222.421 209.413ZM220.065 225.32L212.995 245.277C212.479 246.823 213.51 247.781 214.615 247.781C215.646 247.781 217.192 247.044 218.518 244.909L221.096 246.971C219.402 249.916 216.677 251.536 213.731 251.536C209.828 251.536 207.251 248.517 208.355 245.129L215.351 225.246C215.867 223.7 214.836 222.742 213.731 222.742C212.7 222.742 211.154 223.479 209.828 225.614L207.251 223.552C208.945 220.607 211.669 218.987 214.615 218.987C218.518 218.987 221.169 221.932 220.065 225.32Z" fill="#B8C8CD"/>
<path d="M247.871 215.367C239.255 215.367 234.91 224.205 234.91 231.863C234.91 237.681 237.414 239.448 241.685 239.448C247.208 239.448 250.375 236.429 251.774 233.778L254.351 235.693C251.7 240.7 246.84 243.72 240.728 243.72C232.627 243.72 229.46 238.417 229.46 232.379C229.46 222.879 237.267 211.17 248.534 211.17C257.003 211.17 258.475 216.472 256.193 222.143L251.7 222.437C253.541 217.429 251.995 215.367 247.871 215.367Z" fill="#B8C8CD"/>
<path d="M192.057 159.914H191.91C188.817 164.553 184.545 167.646 179.243 167.646C173.278 167.646 170.995 162.565 173.425 156.379C175.414 151.298 177.623 146.364 179.464 141.356C180.053 139.809 178.949 138.852 177.844 138.852C176.813 138.852 175.266 139.589 173.941 141.724L171.363 139.662C173.057 136.717 176.15 135.096 179.096 135.096C182.999 135.096 185.355 138.189 184.103 141.503C182.557 145.627 180.421 149.898 179.022 153.654C176.592 160.135 176.371 163.375 181.452 163.375C186.239 163.375 192.425 159.03 195.297 150.119L200.01 135.538H204.723L196.328 161.387C195.813 162.933 196.844 163.89 197.948 163.89C198.979 163.89 200.526 163.154 201.851 161.018L204.429 163.08C202.735 166.026 199.421 167.646 196.475 167.646C192.572 167.646 190.51 164.701 192.057 159.914Z" fill="#B8C8CD"/>
<path d="M215.652 101.576L217.198 96.9368H240.469L238.923 101.576H228.613L214.695 144.583H233.547L238.407 129.634H243.489L237.155 149.223H200.261L201.734 144.583H209.54L223.458 101.576H215.652Z" fill="#B8C8CD"/>
<path d="M256.268 180.204L257.667 175.565H264.295V164.887H245.59L238.888 175.565H245.59L244.191 180.204H226.222L227.621 175.565H233.586L264.442 127.918H269.376V175.565H274.973L273.574 180.204H256.268ZM248.536 160.247H264.295L264.369 135.209L248.536 160.247Z" fill="#B8C8CD"/>
<path d="M309.377 155.658C304.591 155.658 299.657 164.716 297.742 170.534L293.397 183.642H288.684L297.079 157.794C297.595 156.247 296.564 155.29 295.459 155.29C294.428 155.29 292.882 156.027 291.556 158.162L288.979 156.1C290.672 153.155 293.986 151.534 296.932 151.534C300.835 151.534 303.118 153.965 301.571 158.751H301.719C304.223 154.406 307.095 151.534 311.219 151.534C316.373 151.534 317.257 155.585 314.312 161.402L309.746 161.623C311.292 158.53 311.66 155.658 309.377 155.658Z" fill="#B8C8CD"/>
<rect x="1.0918" y="0.704346" width="358" height="358" stroke="#484848" stroke-dasharray="22 22"/>
</svg>
