<svg width="388" height="388" viewBox="0 0 388 388" fill="none" xmlns="http://www.w3.org/2000/svg">
<g clip-path="url(#clip0_395_7)">
<rect x="30.2695" width="359" height="359" transform="rotate(4.83669 30.2695 0)" fill="#161616"/>
<rect x="30.2695" width="29.9167" height="359" transform="rotate(4.83669 30.2695 0)" fill="#80E041"/>
<rect x="60.0801" y="2.52246" width="29.9167" height="359" transform="rotate(4.83669 60.0801 2.52246)" fill="#FB2DCD"/>
<rect x="89.8906" y="5.04492" width="29.9167" height="359" transform="rotate(4.83669 89.8906 5.04492)" fill="#80E041"/>
<rect x="119.699" y="7.56738" width="29.9167" height="359" transform="rotate(4.83669 119.699 7.56738)" fill="#35CAF4"/>
<rect x="149.51" y="10.0898" width="29.9167" height="359" transform="rotate(4.83669 149.51 10.0898)" fill="#FB2DCD"/>
<rect x="179.32" y="12.6123" width="29.9167" height="359" transform="rotate(4.83669 179.32 12.6123)" fill="#35CAF4"/>
<rect x="209.131" y="15.1348" width="29.9167" height="359" transform="rotate(4.83669 209.131 15.1348)" fill="#80E041"/>
<rect x="238.941" y="17.6572" width="29.9167" height="359" transform="rotate(4.83669 238.941 17.6572)" fill="#FB2DCD"/>
<rect x="268.75" y="20.1797" width="29.9167" height="359" transform="rotate(4.83669 268.75 20.1797)" fill="#35CAF4"/>
<rect x="298.561" y="22.7021" width="29.9167" height="359" transform="rotate(4.83669 298.561 22.7021)" fill="#80E041"/>
<rect x="328.371" y="25.2246" width="29.9167" height="359" transform="rotate(4.83669 328.371 25.2246)" fill="#FB2DCD"/>
<rect x="358.182" y="27.7471" width="29.9167" height="359" transform="rotate(4.83669 358.182 27.7471)" fill="#35CAF4"/>
<mask id="path-15-outside-1_395_7" maskUnits="userSpaceOnUse" x="-27.6563" y="219.869" width="419" height="247" fill="black">
<rect fill="white" x="-27.6563" y="219.869" width="419" height="247"/>
<path d="M71.2605 339.666L72.2023 328.536L84.8946 329.61L88.8765 282.551L86.3381 282.336L63.3343 340.372L62.358 340.289L49.7259 279.238L47.0899 279.015L43.1079 326.074L55.8001 327.148L54.8583 338.278L18.3438 335.188L19.2855 324.058L31.9778 325.132L35.9598 278.073L23.2675 276.999L24.2093 265.869L48.4222 267.918L59.2097 320.553L79.1764 270.52L103.389 272.569L102.447 283.699L89.8529 282.634L85.8709 329.692L98.5631 330.766L97.6213 341.896L71.2605 339.666Z"/>
<path d="M123.217 344.652C108.475 343.405 105.486 332.237 106.387 321.595C107.238 311.539 112.321 300.268 125.404 301.375C138.975 302.523 141.852 311.518 140.481 327.725L107.188 324.908C108.498 331.509 114.727 334.592 121.073 335.129C127.419 335.666 131.059 333.319 133.569 330.385L140.647 337.376C138.642 340.156 133.957 345.561 123.217 344.652ZM124.619 310.65C117.785 310.072 110.395 311.413 107.971 316.813L139.995 319.522C138.692 314.004 132.137 311.286 124.619 310.65Z"/>
<path d="M181.713 349.012L183.043 333.293L182.848 333.277C180.534 342.029 174.244 348.97 164.578 348.152C153.839 347.243 147.471 337.658 148.537 325.064C149.611 312.371 157.49 304.09 168.23 304.999C177.895 305.816 182.938 313.618 183.74 322.732L183.936 322.749L186.753 289.456L176.501 288.589L177.328 278.826L188.555 279.776L183.516 339.331L193.767 340.199L192.941 349.962L181.713 349.012ZM165.446 337.901C172.182 338.471 182.63 338.175 183.49 328.021C184.357 317.77 174.099 315.82 167.362 315.25C160.626 314.68 150.186 314.878 149.318 325.13C148.459 335.283 158.709 337.331 165.446 337.901Z"/>
<path d="M200.785 318.176L201.611 308.413L212.839 309.363L210.112 341.582L220.364 342.449L219.538 352.213L198.058 350.395L198.885 340.632L209.136 341.499L211.036 319.044L200.785 318.176ZM213.664 293.798C210.149 293.501 208.029 290.667 208.31 287.347C208.583 284.125 211.149 281.687 214.664 281.985C218.276 282.291 220.396 285.125 220.123 288.347C219.843 291.666 217.276 294.104 213.664 293.798Z"/>
<path d="M248.404 322.206L249.23 312.443L260.36 313.384L257.634 345.603L267.885 346.471L267.059 356.234L255.832 355.284L257.244 338.589L257.049 338.572C254.843 346.055 250.803 355.448 240.551 354.581C232.936 353.936 230.233 348.693 231.101 338.441L232.588 320.868L222.336 320L223.162 310.237L234.39 311.187L232.647 331.787C231.862 341.062 237.123 343.966 243.762 344.528C249.327 344.999 256.79 343.958 257.831 331.657L258.558 323.065L248.404 322.206Z"/>
<path d="M298.02 358.854L298.846 349.09L308.805 349.933L309.73 338.998C310.507 329.821 305.344 326.926 298.704 326.364C293.139 325.893 285.677 326.933 284.636 339.235L283.909 347.826L293.965 348.677L293.139 358.441L271.855 356.64L272.681 346.876L282.932 347.744L284.832 325.288L274.581 324.421L275.407 314.658L286.635 315.608L285.222 332.303L285.417 332.319C287.624 324.836 291.566 315.435 301.915 316.311C309.53 316.955 312.119 322.386 311.268 332.442L311.095 334.492L311.29 334.509C313.399 327.017 317.732 317.649 327.788 318.5C335.403 319.144 338.008 324.38 337.141 334.631L335.654 352.205L345.905 353.072L345.079 362.836L323.893 361.043L324.719 351.28L334.678 352.122L335.603 341.188C336.379 332.01 331.216 329.115 324.577 328.553C319.012 328.082 311.549 329.122 310.508 341.424L309.781 350.016L319.837 350.867L319.011 360.63L298.02 358.854Z"/>
</mask>
<path d="M71.2605 339.666L72.2023 328.536L84.8946 329.61L88.8765 282.551L86.3381 282.336L63.3343 340.372L62.358 340.289L49.7259 279.238L47.0899 279.015L43.1079 326.074L55.8001 327.148L54.8583 338.278L18.3438 335.188L19.2855 324.058L31.9778 325.132L35.9598 278.073L23.2675 276.999L24.2093 265.869L48.4222 267.918L59.2097 320.553L79.1764 270.52L103.389 272.569L102.447 283.699L89.8529 282.634L85.8709 329.692L98.5631 330.766L97.6213 341.896L71.2605 339.666Z" fill="#E8E8E8"/>
<path d="M123.217 344.652C108.475 343.405 105.486 332.237 106.387 321.595C107.238 311.539 112.321 300.268 125.404 301.375C138.975 302.523 141.852 311.518 140.481 327.725L107.188 324.908C108.498 331.509 114.727 334.592 121.073 335.129C127.419 335.666 131.059 333.319 133.569 330.385L140.647 337.376C138.642 340.156 133.957 345.561 123.217 344.652ZM124.619 310.65C117.785 310.072 110.395 311.413 107.971 316.813L139.995 319.522C138.692 314.004 132.137 311.286 124.619 310.65Z" fill="#E8E8E8"/>
<path d="M181.713 349.012L183.043 333.293L182.848 333.277C180.534 342.029 174.244 348.97 164.578 348.152C153.839 347.243 147.471 337.658 148.537 325.064C149.611 312.371 157.49 304.09 168.23 304.999C177.895 305.816 182.938 313.618 183.74 322.732L183.936 322.749L186.753 289.456L176.501 288.589L177.328 278.826L188.555 279.776L183.516 339.331L193.767 340.199L192.941 349.962L181.713 349.012ZM165.446 337.901C172.182 338.471 182.63 338.175 183.49 328.021C184.357 317.77 174.099 315.82 167.362 315.25C160.626 314.68 150.186 314.878 149.318 325.13C148.459 335.283 158.709 337.331 165.446 337.901Z" fill="#E8E8E8"/>
<path d="M200.785 318.176L201.611 308.413L212.839 309.363L210.112 341.582L220.364 342.449L219.538 352.213L198.058 350.395L198.885 340.632L209.136 341.499L211.036 319.044L200.785 318.176ZM213.664 293.798C210.149 293.501 208.029 290.667 208.31 287.347C208.583 284.125 211.149 281.687 214.664 281.985C218.276 282.291 220.396 285.125 220.123 288.347C219.843 291.666 217.276 294.104 213.664 293.798Z" fill="#E8E8E8"/>
<path d="M248.404 322.206L249.23 312.443L260.36 313.384L257.634 345.603L267.885 346.471L267.059 356.234L255.832 355.284L257.244 338.589L257.049 338.572C254.843 346.055 250.803 355.448 240.551 354.581C232.936 353.936 230.233 348.693 231.101 338.441L232.588 320.868L222.336 320L223.162 310.237L234.39 311.187L232.647 331.787C231.862 341.062 237.123 343.966 243.762 344.528C249.327 344.999 256.79 343.958 257.831 331.657L258.558 323.065L248.404 322.206Z" fill="#E8E8E8"/>
<path d="M298.02 358.854L298.846 349.09L308.805 349.933L309.73 338.998C310.507 329.821 305.344 326.926 298.704 326.364C293.139 325.893 285.677 326.933 284.636 339.235L283.909 347.826L293.965 348.677L293.139 358.441L271.855 356.64L272.681 346.876L282.932 347.744L284.832 325.288L274.581 324.421L275.407 314.658L286.635 315.608L285.222 332.303L285.417 332.319C287.624 324.836 291.566 315.435 301.915 316.311C309.53 316.955 312.119 322.386 311.268 332.442L311.095 334.492L311.29 334.509C313.399 327.017 317.732 317.649 327.788 318.5C335.403 319.144 338.008 324.38 337.141 334.631L335.654 352.205L345.905 353.072L345.079 362.836L323.893 361.043L324.719 351.28L334.678 352.122L335.603 341.188C336.379 332.01 331.216 329.115 324.577 328.553C319.012 328.082 311.549 329.122 310.508 341.424L309.781 350.016L319.837 350.867L319.011 360.63L298.02 358.854Z" fill="#E8E8E8"/>
<path d="M71.2605 339.666L72.2023 328.536L84.8946 329.61L88.8765 282.551L86.3381 282.336L63.3343 340.372L62.358 340.289L49.7259 279.238L47.0899 279.015L43.1079 326.074L55.8001 327.148L54.8583 338.278L18.3438 335.188L19.2855 324.058L31.9778 325.132L35.9598 278.073L23.2675 276.999L24.2093 265.869L48.4222 267.918L59.2097 320.553L79.1764 270.52L103.389 272.569L102.447 283.699L89.8529 282.634L85.8709 329.692L98.5631 330.766L97.6213 341.896L71.2605 339.666Z" stroke="white" stroke-width="84" mask="url(#path-15-outside-1_395_7)"/>
<path d="M123.217 344.652C108.475 343.405 105.486 332.237 106.387 321.595C107.238 311.539 112.321 300.268 125.404 301.375C138.975 302.523 141.852 311.518 140.481 327.725L107.188 324.908C108.498 331.509 114.727 334.592 121.073 335.129C127.419 335.666 131.059 333.319 133.569 330.385L140.647 337.376C138.642 340.156 133.957 345.561 123.217 344.652ZM124.619 310.65C117.785 310.072 110.395 311.413 107.971 316.813L139.995 319.522C138.692 314.004 132.137 311.286 124.619 310.65Z" stroke="white" stroke-width="84" mask="url(#path-15-outside-1_395_7)"/>
<path d="M181.713 349.012L183.043 333.293L182.848 333.277C180.534 342.029 174.244 348.97 164.578 348.152C153.839 347.243 147.471 337.658 148.537 325.064C149.611 312.371 157.49 304.09 168.23 304.999C177.895 305.816 182.938 313.618 183.74 322.732L183.936 322.749L186.753 289.456L176.501 288.589L177.328 278.826L188.555 279.776L183.516 339.331L193.767 340.199L192.941 349.962L181.713 349.012ZM165.446 337.901C172.182 338.471 182.63 338.175 183.49 328.021C184.357 317.77 174.099 315.82 167.362 315.25C160.626 314.68 150.186 314.878 149.318 325.13C148.459 335.283 158.709 337.331 165.446 337.901Z" stroke="white" stroke-width="84" mask="url(#path-15-outside-1_395_7)"/>
<path d="M200.785 318.176L201.611 308.413L212.839 309.363L210.112 341.582L220.364 342.449L219.538 352.213L198.058 350.395L198.885 340.632L209.136 341.499L211.036 319.044L200.785 318.176ZM213.664 293.798C210.149 293.501 208.029 290.667 208.31 287.347C208.583 284.125 211.149 281.687 214.664 281.985C218.276 282.291 220.396 285.125 220.123 288.347C219.843 291.666 217.276 294.104 213.664 293.798Z" stroke="white" stroke-width="84" mask="url(#path-15-outside-1_395_7)"/>
<path d="M248.404 322.206L249.23 312.443L260.36 313.384L257.634 345.603L267.885 346.471L267.059 356.234L255.832 355.284L257.244 338.589L257.049 338.572C254.843 346.055 250.803 355.448 240.551 354.581C232.936 353.936 230.233 348.693 231.101 338.441L232.588 320.868L222.336 320L223.162 310.237L234.39 311.187L232.647 331.787C231.862 341.062 237.123 343.966 243.762 344.528C249.327 344.999 256.79 343.958 257.831 331.657L258.558 323.065L248.404 322.206Z" stroke="white" stroke-width="84" mask="url(#path-15-outside-1_395_7)"/>
<path d="M298.02 358.854L298.846 349.09L308.805 349.933L309.73 338.998C310.507 329.821 305.344 326.926 298.704 326.364C293.139 325.893 285.677 326.933 284.636 339.235L283.909 347.826L293.965 348.677L293.139 358.441L271.855 356.64L272.681 346.876L282.932 347.744L284.832 325.288L274.581 324.421L275.407 314.658L286.635 315.608L285.222 332.303L285.417 332.319C287.624 324.836 291.566 315.435 301.915 316.311C309.53 316.955 312.119 322.386 311.268 332.442L311.095 334.492L311.29 334.509C313.399 327.017 317.732 317.649 327.788 318.5C335.403 319.144 338.008 324.38 337.141 334.631L335.654 352.205L345.905 353.072L345.079 362.836L323.893 361.043L324.719 351.28L334.678 352.122L335.603 341.188C336.379 332.01 331.216 329.115 324.577 328.553C319.012 328.082 311.549 329.122 310.508 341.424L309.781 350.016L319.837 350.867L319.011 360.63L298.02 358.854Z" stroke="white" stroke-width="84" mask="url(#path-15-outside-1_395_7)"/>
</g>
<rect x="30.7256" y="0.540378" width="358" height="358" transform="rotate(4.83669 30.7256 0.540378)" stroke="#484848" stroke-dasharray="22 22"/>
<defs>
<clipPath id="clip0_395_7">
<rect x="30.2695" width="359" height="359" transform="rotate(4.83669 30.2695 0)" fill="white"/>
</clipPath>
</defs>
</svg>
