<svg width="390" height="390" viewBox="0 0 390 390" fill="none" xmlns="http://www.w3.org/2000/svg">
<g clip-path="url(#clip0_216_20995)">
<path d="M71.7473 66.0256C88.0618 67.468 111.325 67.6029 118.887 49.6941C119.71 47.6315 120.109 45.5315 120.241 44.0484C121.402 30.912 103.312 27.8179 88.904 26.5441C72.5895 25.1017 49.1144 24.948 41.7641 42.8756C40.9411 44.9382 40.5419 47.0382 40.4108 48.5213C39.2494 61.6577 57.3397 64.7518 71.7473 66.0256Z" fill="#80E041"/>
<path d="M63.3821 160.656C79.6966 162.099 102.96 162.234 110.522 144.325C111.345 142.262 111.744 140.162 111.875 138.679C113.037 125.543 94.9464 122.449 80.5388 121.175C64.2243 119.733 40.7492 119.579 33.3988 137.506C32.5759 139.569 32.1767 141.669 32.0455 143.152C30.8841 156.289 48.9744 159.383 63.3821 160.656Z" fill="#80E041"/>
<path d="M56.6008 237.357C72.9154 238.8 96.1785 238.934 103.741 221.026C104.564 218.963 104.963 216.863 105.094 215.38C106.255 202.244 88.1652 199.149 73.7575 197.876C57.443 196.433 33.968 196.28 26.6176 214.207C25.7946 216.27 25.3954 218.37 25.2643 219.853C24.1029 232.989 42.1932 236.083 56.6008 237.357Z" fill="#80E041"/>
<path d="M49.8196 314.058C66.1341 315.5 89.3973 315.635 96.9596 297.726C97.7825 295.664 98.1817 293.564 98.3128 292.081C99.4742 278.944 81.3839 275.85 66.9763 274.576C50.6618 273.134 27.1867 272.98 19.8363 290.908C19.0134 292.97 18.6142 295.07 18.483 296.554C17.3216 309.69 35.4119 312.784 49.8196 314.058Z" fill="#80E041"/>
<path d="M136.111 98.821C152.425 100.263 175.688 100.398 183.251 82.4895C184.074 80.4269 184.473 78.3269 184.604 76.8438C185.765 63.7074 167.675 60.6133 153.267 59.3395C136.953 57.8971 113.478 57.7435 106.127 75.671C105.304 77.7336 104.905 79.8336 104.774 81.3167C103.613 94.4531 121.703 97.5472 136.111 98.821Z" fill="#80E041"/>
<path d="M127.743 193.452C144.058 194.894 167.321 195.029 174.883 177.12C175.706 175.058 176.106 172.958 176.237 171.475C177.398 158.338 159.308 155.244 144.9 153.97C128.586 152.528 105.111 152.374 97.7602 170.302C96.9372 172.364 96.538 174.464 96.4069 175.948C95.2455 189.084 113.336 192.178 127.743 193.452Z" fill="#80E041"/>
<path d="M120.962 270.153C137.277 271.595 160.54 271.73 168.102 253.821C168.925 251.758 169.324 249.658 169.455 248.175C170.617 235.039 152.527 231.945 138.119 230.671C121.804 229.229 98.3293 229.075 90.9789 247.003C90.1559 249.065 89.7567 251.165 89.6256 252.648C88.4642 265.785 106.555 268.879 120.962 270.153Z" fill="#80E041"/>
<path d="M114.181 346.854C130.495 348.296 153.759 348.431 161.321 330.522C162.144 328.46 162.543 326.36 162.674 324.876C163.836 311.74 145.745 308.646 131.338 307.372C115.023 305.93 91.548 305.776 84.1977 323.704C83.3747 325.766 82.9755 327.866 82.8444 329.349C81.683 342.486 99.7733 345.58 114.181 346.854Z" fill="#80E041"/>
<path d="M210.648 73.2863C226.962 74.7287 250.225 74.8636 257.788 56.9549C258.611 54.8923 259.01 52.7922 259.141 51.3091C260.302 38.1727 242.212 35.0786 227.804 33.8048C211.49 32.3624 188.015 32.2088 180.664 50.1363C179.841 52.1989 179.442 54.2989 179.311 55.7821C178.15 68.9184 196.24 72.0125 210.648 73.2863Z" fill="#80E041"/>
<path d="M202.282 167.917C218.597 169.36 241.86 169.495 249.422 151.586C250.245 149.523 250.645 147.423 250.776 145.94C251.937 132.804 233.847 129.709 219.439 128.436C203.125 126.993 179.65 126.84 172.299 144.767C171.476 146.83 171.077 148.93 170.946 150.413C169.785 163.549 187.875 166.643 202.282 167.917Z" fill="#80E041"/>
<path d="M195.501 244.618C211.816 246.06 235.079 246.195 242.641 228.286C243.464 226.224 243.863 224.124 243.994 222.641C245.156 209.504 227.066 206.41 212.658 205.136C196.343 203.694 172.868 203.54 165.518 221.468C164.695 223.53 164.296 225.63 164.165 227.114C163.003 240.25 181.094 243.344 195.501 244.618Z" fill="#80E041"/>
<path d="M188.72 321.319C205.035 322.761 228.298 322.896 235.86 304.987C236.683 302.925 237.082 300.824 237.213 299.341C238.375 286.205 220.284 283.111 205.877 281.837C189.562 280.395 166.087 280.241 158.737 298.169C157.914 300.231 157.515 302.331 157.383 303.814C156.222 316.951 174.312 320.045 188.72 321.319Z" fill="#80E041"/>
<path d="M264.257 114.166C280.572 115.609 303.835 115.744 311.397 97.8347C312.22 95.7722 312.619 93.6721 312.75 92.189C313.912 79.0526 295.821 75.9585 281.414 74.6847C265.099 73.2423 241.624 73.0887 234.274 91.0162C233.451 93.0788 233.052 95.1788 232.921 96.662C231.759 109.798 249.849 112.892 264.257 114.166Z" fill="#80E041"/>
<path d="M255.89 208.797C272.204 210.239 295.468 210.374 303.03 192.466C303.853 190.403 304.252 188.303 304.383 186.82C305.545 173.683 287.454 170.589 273.047 169.316C256.732 167.873 233.257 167.72 225.907 185.647C225.084 187.71 224.684 189.81 224.553 191.293C223.392 204.429 241.482 207.523 255.89 208.797Z" fill="#80E041"/>
<path d="M249.109 285.498C265.423 286.94 288.686 287.075 296.249 269.166C297.072 267.104 297.471 265.004 297.602 263.521C298.763 250.384 280.673 247.29 266.265 246.016C249.951 244.574 226.476 244.42 219.125 262.348C218.302 264.41 217.903 266.51 217.772 267.993C216.611 281.13 234.701 284.224 249.109 285.498Z" fill="#80E041"/>
<path d="M242.327 362.198C258.642 363.641 281.905 363.776 289.467 345.867C290.29 343.804 290.69 341.704 290.821 340.221C291.982 327.085 273.892 323.991 259.484 322.717C243.17 321.275 219.695 321.121 212.344 339.048C211.521 341.111 211.122 343.211 210.991 344.694C209.829 357.831 227.92 360.925 242.327 362.198Z" fill="#80E041"/>
<path d="M325.2 83.4138C341.515 84.8562 364.778 84.9911 372.34 67.0823C373.163 65.0197 373.563 62.9197 373.694 61.4365C374.855 48.3002 356.765 45.206 342.357 43.9323C326.043 42.4899 302.568 42.3362 295.217 60.2638C294.394 62.3263 293.995 64.4264 293.864 65.9095C292.703 79.0459 310.793 82.14 325.2 83.4138Z" fill="#80E041"/>
<path d="M316.835 178.045C333.15 179.487 356.413 179.622 363.975 161.713C364.798 159.651 365.197 157.551 365.328 156.067C366.49 142.931 348.4 139.837 333.992 138.563C317.677 137.121 294.202 136.967 286.852 154.895C286.029 156.957 285.63 159.057 285.499 160.54C284.337 173.677 302.428 176.771 316.835 178.045Z" fill="#80E041"/>
<path d="M310.054 254.746C326.368 256.188 349.632 256.323 357.194 238.414C358.017 236.352 358.416 234.252 358.547 232.769C359.709 219.632 341.618 216.538 327.211 215.264C310.896 213.822 287.421 213.668 280.071 231.596C279.248 233.658 278.849 235.758 278.717 237.242C277.556 250.378 295.646 253.472 310.054 254.746Z" fill="#80E041"/>
<path d="M303.273 331.446C319.587 332.889 342.85 333.024 350.413 315.115C351.236 313.052 351.635 310.952 351.766 309.469C352.927 296.333 334.837 293.239 320.429 291.965C304.115 290.523 280.64 290.369 273.289 308.296C272.466 310.359 272.067 312.459 271.936 313.942C270.775 327.079 288.865 330.173 303.273 331.446Z" fill="#80E041"/>
<path d="M67.3122 101.935L48.1355 108.773L40.9562 116.17L36.5892 125.822L38.5344 143.563L68.7975 153.266L81.2489 154.366L96.0889 151.161L108.337 143.209L116.543 129.879L120.808 115.7L109.589 100.654L67.3122 101.935Z" fill="#80E041"/>
<path d="M156.339 109.806L136.274 116.565L128.782 123.934L124.247 133.572L126.361 151.328L158.112 161.162L171.163 162.316L186.699 159.172L199.499 151.268L208.041 137.969L212.451 123.802L200.632 108.703L156.339 109.806Z" fill="#80E041"/>
<path d="M293.087 121.896L274.133 128.754L267.031 136.157L262.706 145.814L264.61 163.55L294.501 173.22L306.802 174.308L321.468 171.087L333.578 163.122L342.484 151.863L345.489 140.584L334.86 120.57L293.087 121.896Z" fill="#80E041"/>
<path d="M133.849 297.555L118.225 304.707L112.294 312.214L108.599 321.926L109.872 339.607L134.182 348.783L144.234 349.672L156.289 346.22L166.329 338.073L173.799 326.686L176.439 315.375L168.062 295.56L133.849 297.555Z" fill="#80E041"/>
<path d="M44.9584 43.2436L55.4695 18.549L81.7422 20.8717L42.6093 113.288L43.2449 113.345C54.0041 95.5049 68.1345 78.1768 93.3479 80.4059C111.781 82.0356 123.402 93.099 121.659 112.804C121.21 117.889 119.857 123.534 117.6 129.741C110.847 148.148 93.5433 174.805 63.033 172.107C39.9385 170.066 32.8683 153.426 34.1608 138.806C34.3669 136.475 34.8223 133.74 35.1653 132.275L34.5296 132.219L19.9225 167.015L17.8038 166.827L69.1124 45.3791L44.9584 43.2436ZM68.7646 145.922C85.0791 147.365 108.342 147.5 115.905 129.591C116.728 127.528 117.127 125.428 117.258 123.945C118.419 110.809 100.329 107.715 85.9213 106.441C69.6068 104.999 46.1317 104.845 38.7814 122.772C37.9584 124.835 37.5592 126.935 37.4281 128.418C36.2667 141.555 54.357 144.649 68.7646 145.922ZM151.707 179.947C130.731 178.093 119.148 166.605 120.853 147.325C121.302 142.24 122.656 136.594 124.913 130.387C131.933 111.363 149.393 85.3609 182.869 88.3205C203.845 90.175 215.428 101.662 213.723 120.943C213.274 126.028 211.92 131.674 209.663 137.88C202.643 156.905 185.183 182.907 151.707 179.947ZM158.286 153.837C178.202 155.598 200.674 155.022 207.968 137.73C208.773 135.88 209.402 133.587 209.571 131.68C210.714 118.755 190.062 115.648 176.29 114.431C156.374 112.67 133.902 113.245 126.608 130.537C125.803 132.388 125.174 134.681 125.005 136.588C123.862 149.513 144.514 152.62 158.286 153.837ZM233.61 59.9225L244.121 35.2278L270.606 37.5693L219.085 158.999C217.171 163.741 215.756 167.673 215.456 171.063C215.157 174.453 216.085 176.03 218.415 176.236C224.136 176.742 230.332 167.04 236.959 152.465L258.594 163.773C248.894 181.706 238.336 187.606 226.895 186.595C216.513 185.677 212.569 179.563 213.281 171.511C213.618 167.698 215.09 163.13 217.235 158.195L257.976 62.0767L233.61 59.9225ZM350.783 70.2818L361.294 45.5872L387.779 47.9287L336.258 169.358C334.344 174.1 332.929 178.032 332.629 181.422C332.329 184.812 333.258 186.389 335.588 186.595C341.309 187.101 347.505 177.399 354.132 162.824L375.767 174.132C366.067 192.066 355.509 197.965 344.068 196.954C333.686 196.036 329.742 189.922 330.454 181.871C330.791 178.057 332.263 173.489 334.407 168.554L338.447 159.089L337.812 159.032C327.053 176.872 312.922 194.2 287.709 191.971C269.275 190.341 257.655 179.278 259.397 159.573C259.847 154.488 261.2 148.843 263.457 142.636C270.209 124.229 287.513 97.5722 318.024 100.27C341.118 102.311 348.188 118.952 346.896 133.571C346.69 135.902 346.234 138.637 345.891 140.102L346.315 140.139L375.149 72.436L350.783 70.2818ZM295.135 165.936C311.45 167.378 334.925 167.532 342.275 149.605C343.098 147.542 343.497 145.442 343.629 143.959C344.79 130.822 326.7 127.728 312.292 126.455C295.978 125.012 272.714 124.877 265.152 142.786C264.329 144.849 263.93 146.949 263.799 148.432C262.637 161.568 280.728 164.662 295.135 165.936Z" fill="#FB2DCD"/>
<path d="M34.5124 352.099C25.8999 351.338 22.5285 346.519 23.163 339.342C24.4321 324.988 44.2796 298.895 45.4693 285.437C45.7231 282.567 44.937 281.231 42.9633 281.057C38.1188 280.629 33.2146 289.056 28.6059 298.232L10.448 288.851C17.4955 276.635 26.0932 271.428 35.7823 272.285C44.5743 273.062 47.914 278.24 47.3112 285.058C46.0421 299.412 26.1946 325.505 24.989 339.142C24.7511 341.833 25.5372 343.169 27.5109 343.343C32.3554 343.771 37.6026 335.555 43.2146 323.213L61.536 332.789C53.3217 347.976 44.381 352.972 34.5124 352.099ZM59.1123 249.754C51.3969 249.072 46.8805 242.886 47.4992 235.889C48.1179 228.891 53.6495 223.593 61.3649 224.275C69.0803 224.958 73.5967 231.143 72.978 238.141C72.3593 245.139 66.8277 250.436 59.1123 249.754ZM63.1747 297.491L72.076 276.578L87.3274 277.927L100.104 247.953C100.838 247.837 101.798 247.199 102.22 246.513L102.579 246.545L89.1217 278.085L113.345 280.227L104.443 301.14L80.2204 298.998L66.2613 332.122C64.6404 336.138 63.4419 339.467 63.188 342.338C62.9342 345.209 63.7203 346.544 65.694 346.719C70.5386 347.147 75.7857 338.931 81.3977 326.588L99.7191 336.165C91.5049 351.352 82.5641 356.348 72.875 355.491C64.083 354.714 60.7434 349.536 61.3462 342.718C61.6317 339.488 62.8778 335.62 64.694 331.441L78.4261 298.839L63.1747 297.491ZM128.505 360.409C112.895 359.029 103.951 349.74 105.426 333.053C105.807 328.746 106.953 323.965 108.864 318.709C114.582 303.121 128.339 280.468 154.177 282.752C173.735 284.481 178.825 298.493 177.73 310.874C177.556 312.848 177.17 315.164 176.88 316.404L177.238 316.436L189.788 286.985L191.582 287.144L168.722 341.18C167.101 345.196 165.902 348.526 165.649 351.397C165.395 354.268 166.181 355.603 168.155 355.777C172.999 356.206 178.246 347.99 183.858 335.647L202.18 345.223C193.965 360.41 185.025 365.406 175.336 364.55C166.544 363.772 163.204 358.595 163.807 351.776C164.092 348.547 165.338 344.679 167.155 340.499L170.576 332.484L170.037 332.436C160.926 347.544 149.857 362.297 128.505 360.409ZM134.794 338.362C148.61 339.583 167.593 339.634 173.817 324.452C174.514 322.705 174.852 320.927 174.963 319.671C175.947 308.546 161.524 306.005 149.323 304.927C135.507 303.705 116.524 303.654 110.3 318.836C109.603 320.583 109.265 322.361 109.154 323.617C108.17 334.742 122.593 337.283 134.794 338.362ZM217.206 260.476L226.108 239.564L248.536 241.547L204.906 344.379C203.285 348.395 202.087 351.725 201.833 354.596C201.579 357.467 202.365 358.802 204.339 358.977C209.183 359.405 214.43 351.189 220.042 338.846L238.364 348.422C230.15 363.609 221.209 368.605 211.52 367.749C202.728 366.972 199.388 361.794 199.991 354.976C200.276 351.746 201.523 347.878 203.339 343.698L237.841 262.301L217.206 260.476ZM261.097 372.132C252.484 371.371 249.113 366.552 249.747 359.375C251.016 345.02 270.864 318.927 272.054 305.47C272.307 302.599 271.521 301.264 269.548 301.089C264.703 300.661 259.799 309.088 255.19 318.265L237.032 308.884C244.08 296.668 252.677 291.46 262.367 292.317C271.159 293.094 274.498 298.272 273.895 305.09C272.626 319.445 252.779 345.538 251.573 359.174C251.335 361.866 252.121 363.201 254.095 363.376C258.94 363.804 264.187 355.588 269.799 343.245L288.12 352.821C279.906 368.008 270.965 373.004 261.097 372.132ZM285.696 269.787C277.981 269.105 273.465 262.919 274.083 255.921C274.702 248.923 280.234 243.626 287.949 244.308C295.664 244.99 300.181 251.176 299.562 258.174C298.944 265.171 293.412 270.469 285.696 269.787ZM312.737 376.698C290.488 374.73 284.046 361.684 285.284 347.688C285.664 343.382 286.763 339.139 288.415 334.764C296.42 313.772 315.083 296.978 337.153 298.929C355.096 300.515 361.031 313.156 359.968 325.177C359.666 328.587 358.827 331.948 357.465 335.083C357.238 335.605 356.831 336.112 356.113 336.048C355.396 335.985 355.443 335.446 355.67 334.924C356.124 333.879 356.383 332.998 356.462 332.101C357.192 323.847 343.244 322.071 333.017 321.167C312.383 319.343 295.506 320.021 290.014 335.087C289.27 337.372 289.011 338.253 288.868 339.868C287.964 350.095 295.458 353.289 306.941 354.305C319.68 355.431 329.819 353.253 340.301 345.138L352.61 363.405C347.242 368.898 333.909 378.569 312.737 376.698Z" fill="#FB2DCD"/>
</g>
<rect x="32.0693" y="0.939064" width="358" height="358" transform="rotate(5.05243 32.0693 0.939064)" stroke="#484848" stroke-dasharray="22 22"/>
<defs>
<clipPath id="clip0_216_20995">
<rect x="31.6152" y="0.396973" width="359" height="359" transform="rotate(5.05243 31.6152 0.396973)" fill="white"/>
</clipPath>
</defs>
</svg>
