<svg width="389" height="389" viewBox="0 0 389 389" fill="none" xmlns="http://www.w3.org/2000/svg">
<g clip-path="url(#clip0_221_25638)">
<path d="M127.753 278.435L127.657 277.323L136.332 276.575L129.716 199.83L121.041 200.578L120.945 199.466L142.522 197.605C163.099 195.832 174.643 199.767 175.756 212.669C176.81 224.903 167.385 232.551 151.204 234.618C162.374 234.216 177.2 234.618 179.28 258.754L179.769 264.427C180.354 271.211 182.592 272.475 185.707 272.207C188.487 271.967 189.716 270.628 190.865 267.056L191.784 267.313C190.572 271.451 188.873 273.839 182.644 274.376C176.972 274.865 169.366 273.727 168.426 262.827L167.851 256.154C166.116 236.022 156.479 234.724 145.357 235.683L143.355 235.855L146.787 275.674L155.463 274.926L155.559 276.038L127.753 278.435ZM142.618 198.718L140.171 198.929L143.259 234.743L145.928 234.513C159.386 233.353 165.348 227.124 164.236 214.222C163.124 201.32 156.299 197.538 142.618 198.718Z" fill="#FB2DCE"/>
<path d="M127.753 278.435L-15.7153 290.804L-3.347 434.272L140.121 421.903L127.753 278.435ZM127.657 277.323L115.288 133.855L-28.1794 146.224L-15.8111 289.691L127.657 277.323ZM136.332 276.575L148.701 420.043L292.168 407.675L279.8 264.207L136.332 276.575ZM129.716 199.83L273.184 187.462L260.816 43.9939L117.348 56.3621L129.716 199.83ZM121.041 200.578L-22.4273 212.946L-10.059 356.414L133.409 344.046L121.041 200.578ZM120.945 199.466L108.576 55.9978L-34.8915 68.366L-22.5232 211.834L120.945 199.466ZM151.204 234.618L132.955 91.7794L156.392 378.525L151.204 234.618ZM190.865 267.056L229.659 128.38L96.1966 91.0441L53.7767 222.979L190.865 267.056ZM191.784 267.313L329.979 307.785L370.945 167.904L230.578 128.637L191.784 267.313ZM143.355 235.855L130.986 92.3875L-12.4814 104.756L-0.113174 248.224L143.355 235.855ZM146.787 275.674L3.31955 288.042L15.6878 431.51L159.156 419.142L146.787 275.674ZM155.463 274.926L298.931 262.558L286.563 119.09L143.095 131.458L155.463 274.926ZM155.559 276.038L167.927 419.506L311.395 407.138L299.027 263.67L155.559 276.038ZM140.171 198.929L127.803 55.4608L-15.6649 67.8291L-3.2966 211.297L140.171 198.929ZM143.259 234.743L-0.209061 247.111L12.1592 390.579L155.627 378.211L143.259 234.743ZM271.22 266.067L271.125 264.955L-15.8111 289.691L-15.7153 290.804L271.22 266.067ZM140.025 420.791L148.701 420.043L123.964 133.107L115.288 133.855L140.025 420.791ZM279.8 264.207L273.184 187.462L-13.7517 212.198L-7.13559 288.943L279.8 264.207ZM117.348 56.3621L108.672 57.11L133.409 344.046L142.084 343.298L117.348 56.3621ZM264.508 188.21L264.413 187.097L-22.5232 211.834L-22.4273 212.946L264.508 188.21ZM133.313 342.934L154.891 341.073L130.154 54.1376L108.576 55.9978L133.313 342.934ZM154.891 341.073C154.833 341.078 151.01 341.441 144.699 340.933C138.768 340.456 125.909 338.863 110.195 332.196C93.3251 325.038 72.7742 311.763 56.3375 289.055C39.9317 266.389 33.8272 242.894 32.2878 225.037L319.223 200.3C317.128 175.992 309.163 147.167 289.637 120.19C270.08 93.1705 245.148 76.6038 222.681 67.0716C183.557 50.4718 146.243 52.7505 130.154 54.1376L154.891 341.073ZM32.2878 225.037C28.9312 186.101 44.3689 145.871 75.3589 118.875C100.465 97.0057 125.269 92.7613 132.955 91.7794L169.452 377.457C193.319 374.408 230.927 365.306 264.528 336.037C304.012 301.643 323.635 251.471 319.223 200.3L32.2878 225.037ZM156.392 378.525C164.817 378.221 131.729 382.257 97.1565 362.483C76.477 350.655 59.8414 333.386 48.992 313.372C39.0019 294.944 36.4942 279.029 35.8126 271.122L322.748 246.386C319.078 203.808 299.107 146.21 240.145 112.486C194.846 86.5771 148.761 90.6129 146.015 90.7119L156.392 378.525ZM35.8126 271.122L36.3016 276.795L323.237 252.058L322.748 246.386L35.8126 271.122ZM36.3016 276.795C37.2579 287.888 41.156 330.124 74.9651 367.525C118.864 416.089 174.584 417.7 198.075 415.675L173.338 128.739C193.715 126.982 246.759 128.095 288.614 174.398C320.379 209.539 322.866 247.75 323.237 252.058L36.3016 276.795ZM198.075 415.675C222.674 413.554 259.917 404.005 291.522 371.897C316.84 346.176 325.743 318.008 327.953 311.133L53.7767 222.979C54.8387 219.676 62.5527 193.963 86.2737 169.865C116.281 139.379 151.52 130.62 173.338 128.739L198.075 415.675ZM152.071 405.732L152.99 405.989L230.578 128.637L229.659 128.38L152.071 405.732ZM53.5881 226.841C55.1504 221.506 64.0255 190.194 94.4607 163.657C125.52 136.576 158.308 131.939 170.276 130.908L195.012 417.843C213.209 416.275 249.96 410.176 283.73 380.732C316.874 351.833 327.205 317.258 329.979 307.785L53.5881 226.841ZM170.276 130.908C177.729 130.265 210.487 127.66 246.127 148.377C265.926 159.886 283.175 176.713 295.229 197.778C306.77 217.945 310.735 237.01 311.894 250.459L24.9585 275.196C28.5769 317.168 50.0093 367.499 101.394 397.368C142.49 421.256 181.886 418.975 195.012 417.843L170.276 130.908ZM311.894 250.459L311.319 243.786L24.3832 268.522L24.9585 275.196L311.894 250.459ZM311.319 243.786C308.916 215.909 297.672 157.263 240.895 118.795C191.214 85.135 139.075 91.6902 132.988 92.2149L157.725 379.151C157.202 379.196 148.283 380.085 136.046 378.606C122.738 376.998 101.373 372.143 79.3532 357.224C30.6084 324.198 25.0509 276.267 24.3832 268.522L311.319 243.786ZM132.988 92.2149L130.986 92.3875L155.723 379.323L157.725 379.151L132.988 92.2149ZM-0.113174 248.224L3.31955 288.042L290.255 263.306L286.823 223.487L-0.113174 248.224ZM159.156 419.142L167.831 418.394L143.095 131.458L134.419 132.206L159.156 419.142ZM11.9951 287.294L12.091 288.406L299.027 263.67L298.931 262.558L11.9951 287.294ZM143.191 132.57L115.384 134.968L140.121 421.903L167.927 419.506L143.191 132.57ZM130.25 55.2498L127.803 55.4608L152.54 342.397L154.986 342.186L130.25 55.2498ZM-3.2966 211.297L-0.209061 247.111L286.727 222.375L283.639 186.56L-3.2966 211.297ZM155.627 378.211L158.296 377.981L133.56 91.0451L130.891 91.2752L155.627 378.211ZM158.296 377.981C181.375 375.991 228.708 367.585 266.775 325.989C307.191 281.827 310.166 230.414 307.704 201.854L20.7683 226.59C19.4185 210.933 19.969 169.084 54.317 131.553C86.3171 96.5864 123.94 91.8744 133.56 91.0451L158.296 377.981ZM307.704 201.854C305.248 173.366 292.939 118.609 238.955 82.0043C193.007 50.8495 145.631 53.9239 130.25 55.2498L154.986 342.186C153.286 342.332 116.163 346.708 77.3261 320.374C30.4522 288.591 22.1119 242.175 20.7683 226.59L307.704 201.854Z" fill="#FB2DCE"/>
<path d="M45.6696 364.195L45.565 362.981L55.031 362.165L47.812 278.427L38.3459 279.243L38.2413 278.03L61.7851 276C84.2367 274.064 96.833 278.358 98.0466 292.436C99.1975 305.785 88.9133 314.13 71.2575 316.385C83.4458 315.946 99.6223 316.385 101.893 342.72L102.426 348.91C103.064 356.313 105.506 357.692 108.904 357.399C111.938 357.137 113.28 355.677 114.533 351.778L115.535 352.059C114.213 356.574 112.359 359.179 105.563 359.765C99.3734 360.299 91.0749 359.058 90.0496 347.165L89.4218 339.883C87.5281 317.917 77.0138 316.501 64.8778 317.547L62.6933 317.735L66.4388 361.182L75.9049 360.366L76.0095 361.579L45.6696 364.195ZM61.8897 277.213L59.2198 277.444L62.5887 316.521L65.5013 316.27C80.1859 315.004 86.6912 308.208 85.4775 294.131C84.2639 280.053 76.817 275.927 61.8897 277.213ZM135.573 357.178C119.068 358.601 111.506 346.049 110.355 332.699C109.183 319.107 114.686 304.939 130.584 303.568C145.147 302.313 150.996 313.424 152.105 326.288L120.43 329.018L120.671 331.81C121.926 346.373 124.525 356.663 136.782 355.607C147.705 354.665 151.362 346.036 152.235 343.393L153.5 343.895C151.682 348.331 147.83 356.121 135.573 357.178ZM129.333 304.654C120.838 305.387 119.511 315.527 120.325 327.805L142.413 325.901C141.528 317.052 139.042 303.817 129.333 304.654ZM177.052 335.507C173.654 335.8 169.95 335.386 166.527 333.97C163.581 336.669 161.97 339.253 162.242 342.408C162.65 347.141 166.628 347.899 174.031 347.261L181.434 346.622C196.725 345.304 203.937 352.385 204.701 361.244C205.611 371.802 197.294 381.689 179.818 383.196C165.619 384.42 157.461 379.132 156.833 371.851C156.258 365.176 162.098 359.171 169.16 355.994C163.715 355.241 159.327 352.563 158.804 346.495C158.396 341.762 160.7 337.284 165.504 333.446C160.53 331.063 156.592 326.512 155.975 319.352C154.908 306.973 165.117 300.591 173.976 299.828C178.224 299.461 183.193 300.378 187.196 302.845C190.048 299.053 194.155 295.643 198.403 295.277C201.68 294.994 204.86 296.432 205.216 300.558C205.456 303.349 204.147 305.174 201.234 305.425C197.836 305.718 196.777 303.364 196.652 301.907C196.474 299.844 195.54 298.947 193.963 299.083C191.778 299.271 189.983 301.137 188.108 303.5C191.757 306.119 194.551 310.158 195.053 315.983C196.12 328.362 185.79 334.754 177.052 335.507ZM180.574 382.03C190.768 381.151 199.483 375.876 198.614 365.803C197.83 356.701 189.611 354.965 181.844 355.634L169.829 356.67C165.337 359.869 163.65 364.416 164.142 370.12C164.812 377.887 170.258 382.919 180.574 382.03ZM176.979 334.658C185.474 333.926 186.535 326.376 185.708 316.789C184.882 307.201 182.545 299.945 174.049 300.677C165.554 301.41 164.493 308.959 165.32 318.546C166.146 328.134 168.484 335.39 176.979 334.658ZM242.901 347.192L241.666 332.871L241.424 332.892C240.522 339.45 238.109 348.338 225.245 349.447C214.93 350.337 211.304 345.148 210.32 333.74L207.317 298.91L200.036 299.537L199.931 298.324L216.922 296.859L220.165 334.48C220.939 343.461 224.994 346.535 229.97 346.106C237.616 345.447 241.759 336.776 240.482 321.97L238.264 296.242L230.983 296.869L230.878 295.656L247.868 294.191L252.262 345.162L259.544 344.534L259.649 345.748L242.901 347.192ZM249.534 261.037L249.429 259.823L266.42 258.358L273.743 343.31L281.025 342.683L281.129 343.896L256.857 345.989L256.753 344.775L264.034 344.147L256.815 260.409L249.534 261.037ZM293.582 343.556C285.451 344.257 280.03 340.934 279.318 332.682C278.439 322.488 286.294 317.165 299.644 316.014L306.44 315.428L305.467 304.141C304.62 294.311 301.684 290.041 294.524 290.658C290.033 291.045 287.278 293.117 287.633 297.243C287.769 298.82 288.401 300.478 288.569 302.419C288.83 305.453 287.916 307.611 284.639 307.893C281.605 308.155 279.749 306.481 279.456 303.083C278.923 296.893 283.618 290.376 295.269 289.371C302.55 288.743 314.046 290.198 315.594 308.159L317.645 331.945C318.084 337.042 319.164 339.639 322.198 339.378C324.625 339.168 325.571 337.375 326.433 334.611L327.435 334.891C326.414 338.647 325.014 340.846 319.553 341.317C315.67 341.652 308.901 341.135 308.032 331.062L307.865 329.121L307.622 329.142C306.545 337.915 302.32 342.803 293.582 343.556ZM297.215 340.309C305.831 339.566 307.633 329.263 306.722 318.705L306.545 316.641L301.69 317.06C291.496 317.939 288.621 324.3 289.249 331.581C289.73 337.164 291.996 340.759 297.215 340.309ZM318.685 289.309L318.58 288.095L335.328 286.651L336.542 300.729L336.784 300.708C337.439 292.705 339.513 285.557 348.129 284.814C355.168 284.207 358.114 288.599 358.491 292.968C358.805 296.609 357.273 298.697 354.118 298.969C351.569 299.189 349.644 298.132 349.466 296.069C349.341 294.613 350.017 293.943 349.818 291.637C349.535 288.361 347.954 287.03 345.405 287.25C337.274 287.951 337.004 303.257 337.925 313.936L339.965 337.601L349.674 336.764L349.778 337.978L323.079 340.28L322.974 339.066L330.256 338.438L325.966 288.681L318.685 289.309Z" fill="#B8C8CD"/>
</g>
<rect x="0.541098" y="31.2902" width="358" height="358" transform="rotate(-4.92725 0.541098 31.2902)" stroke="#484848" stroke-dasharray="22 22"/>
<defs>
<clipPath id="clip0_221_25638">
<rect y="30.835" width="359" height="359" transform="rotate(-4.92725 0 30.835)" fill="white"/>
</clipPath>
</defs>
</svg>
