<svg width="360" height="360" viewBox="0 0 360 360" fill="none" xmlns="http://www.w3.org/2000/svg">
<g clip-path="url(#clip0_221_26383)">
<g clip-path="url(#clip1_221_26383)">
<path d="M25.9508 0.508301H57.0108C54.8174 2.4883 52.8541 4.33497 51.1208 6.0483C50.1474 7.00163 50.0341 7.85163 50.7808 8.5983C51.5608 9.3683 53.5408 9.7683 54.5508 9.7983C63.7574 10.025 72.7374 11.495 81.4908 14.2083C83.8408 14.9383 86.0308 16.2183 88.4508 17.1483C90.3608 17.8883 91.9708 20.0683 94.0608 18.6583C94.3153 18.4848 94.5257 18.2533 94.6751 17.9823C94.8244 17.7114 94.9086 17.4087 94.9208 17.0983L95.5908 0.508301H132.201C129.667 6.2483 126.874 13.2516 123.821 21.5183C120.694 29.9583 119.074 38.365 118.961 46.7383C118.761 61.6683 130.171 70.2083 144.301 70.5083C151.001 70.6483 157.377 69.275 163.431 66.3883C167.697 64.355 170.661 62.7416 172.321 61.5483C194.771 45.4183 211.051 22.9383 226.941 0.508301H337.051C325.384 19.6283 315.171 39.3383 306.411 59.6383C305.171 62.5083 304.061 66.0683 302.721 69.4883C298.541 80.1783 295.481 96.1983 300.561 106.178C308.201 121.198 329.811 120.448 343.041 113.938C348.747 111.132 354.084 107.768 359.051 103.848V157.298C334.391 190.458 314.801 222.808 292.141 261.278C280.634 280.805 271.137 299.622 263.651 317.728C259.191 328.508 256.311 338.478 256.051 349.248C255.984 352.022 256.464 355.442 257.491 359.508H246.921C238.041 348.888 233.161 336.305 232.281 321.758C231.774 313.338 232.081 305.492 233.201 298.218C236.254 278.325 242.257 258.918 251.211 239.998C271.831 196.438 301.961 156.918 341.161 129.208C342.631 128.168 343.921 126.928 345.011 125.668C345.184 125.465 345.3 125.219 345.345 124.956C345.39 124.692 345.362 124.422 345.266 124.173C345.17 123.924 345.008 123.705 344.797 123.541C344.587 123.376 344.336 123.272 344.071 123.238C338.471 122.538 332.894 121.972 327.341 121.538C319.901 120.968 309.871 118.238 303.501 114.948C288.894 107.408 279.737 95.2583 276.031 78.4983C273.817 68.505 273.274 58.4216 274.401 48.2483C275.227 40.755 275.911 35.9216 276.451 33.7483C278.217 26.675 280.041 19.6183 281.921 12.5783C282.791 9.3383 283.261 6.2383 283.511 3.1283C283.529 2.89043 283.475 2.65265 283.357 2.44531C283.239 2.23797 283.062 2.07048 282.849 1.96424C282.635 1.85799 282.395 1.8178 282.158 1.84881C281.922 1.87981 281.7 1.9806 281.521 2.1383C274.131 8.6583 267.831 16.5783 260.921 23.6183C240.601 44.3283 215.911 61.7283 187.881 70.1183C166.371 76.5683 142.441 75.8483 122.061 65.8883C120.451 65.0983 118.031 64.9083 118.001 67.2483C117.874 80.0083 116.811 91.075 114.811 100.448C112.291 112.235 109.234 122.655 105.641 131.708C86.0208 181.118 50.5508 231.428 5.24078 260.698C3.80745 261.625 2.94411 262.715 2.65078 263.968C2.6079 264.155 2.63516 264.351 2.72736 264.519C2.81957 264.686 2.97027 264.814 3.15078 264.878C8.92078 266.908 15.8308 267.468 20.5508 268.628C25.8574 269.928 30.2674 271.165 33.7808 272.338C60.1308 281.148 79.8608 300.878 86.5808 328.138C87.4941 331.832 88.2841 335.332 88.9508 338.638C89.013 338.943 89.1499 339.227 89.349 339.466C89.548 339.705 89.8031 339.89 90.091 340.005C90.3789 340.12 90.6906 340.162 90.9978 340.126C91.3051 340.089 91.5983 339.977 91.8508 339.798C117.641 321.608 151.531 309.538 183.221 317.258C187.954 318.412 191.031 319.275 192.451 319.848C210.351 327.082 221.234 340.302 225.101 359.508H200.911C202.851 351.955 203.577 345.368 203.091 339.748C201.511 321.688 182.331 315.838 167.161 319.838C147.541 325.018 129.761 343.108 116.981 359.508H46.7308C51.3574 348.695 54.9541 337.695 57.5208 326.508C58.3541 322.855 58.9141 318.282 59.2008 312.788C60.4108 289.568 47.5008 276.718 26.2808 272.858C17.6874 271.292 8.94411 271.515 0.0507812 273.528V219.758C0.630781 217.852 1.98411 215.358 4.11078 212.278C22.1041 186.278 40.1808 157.418 58.3408 125.698C69.6108 105.998 80.0408 86.6683 88.1208 65.3883C90.3875 59.415 91.9141 54.4416 92.7008 50.4683C93.7674 45.0083 94.1574 39.775 93.8708 34.7683C93.3008 24.8283 86.8808 18.1483 77.5208 15.1683C48.3508 5.9083 19.1408 39.6783 3.51078 59.7183C2.39745 61.145 1.53745 62.4083 0.930781 63.5083C0.744115 63.8483 0.570781 63.8416 0.410781 63.4883L0.0507812 62.6783V20.6683C9.56411 14.9483 18.1974 8.2283 25.9508 0.508301Z" fill="#FB2DCD"/>
<path d="M359.051 312.388V359.508H318.001L317.481 359.118C317.214 358.918 317.217 358.722 317.491 358.528C318.601 357.718 320.091 356.868 321.041 355.958C334.534 342.972 346.614 328.778 357.281 313.378C357.691 312.788 357.781 312.328 358.091 311.688C358.264 311.348 358.444 311.342 358.631 311.668L359.051 312.388Z" fill="#FB2DCD"/>
</g>
<path d="M129.115 110.588C99.642 110.588 86.4764 86.3514 86.4764 56.5791C86.4764 26.8068 99.642 2.57004 129.115 2.57004C158.588 2.57004 171.754 26.8068 171.754 56.5791C171.754 86.3514 158.588 110.588 129.115 110.588ZM129.115 109.391C153.651 109.391 156.194 80.5166 156.194 56.5791C156.194 32.6415 153.651 3.76692 129.115 3.76692C104.579 3.76692 102.036 32.6415 102.036 56.5791C102.036 80.5166 104.579 109.391 129.115 109.391Z" fill="#B8C8CD"/>
<path d="M174.345 4.96379V3.46769H214.74V4.96379H200.078V108.194H217.134C235.536 108.194 240.473 95.4775 242.418 79.7685H243.914V109.69H174.345V108.194H186.015V4.96379H174.345Z" fill="#B8C8CD"/>
<path d="M267.584 350.955V349.458H279.104V246.228H267.584V244.732H306.184C337.153 244.732 350.917 268.071 350.917 297.843C350.917 327.616 337.153 350.955 306.184 350.955H267.584ZM306.184 246.228H293.168V349.458H306.184C332.216 349.458 335.358 321.781 335.358 297.843C335.358 273.906 332.216 246.228 306.184 246.228Z" fill="#B8C8CD"/>
<path d="M0.992442 109.69V108.194H12.662V4.96379H0.992442V3.46769H30.0167C57.3952 3.46769 72.0569 10.7986 72.0569 27.7044C72.0569 43.4134 59.4898 52.39 41.387 53.5869C62.7812 54.7837 77.1437 63.7603 77.1437 81.7135C77.1437 100.564 61.5843 109.69 31.6624 109.69H0.992442ZM31.5128 54.6341H26.7253V108.194H31.6624C52.3085 108.194 62.1827 101.612 62.1827 81.4142C62.1827 62.1146 53.2062 54.6341 31.5128 54.6341ZM30.0167 4.96379H26.7253V53.138H30.3159C48.4187 53.138 57.096 45.508 57.096 28.1533C57.096 10.7986 48.4187 4.96379 30.0167 4.96379Z" fill="#B8C8CD"/>
</g>
<rect x="0.550781" y="1.0083" width="358" height="358" stroke="#484848" stroke-dasharray="22 22"/>
<defs>
<clipPath id="clip0_221_26383">
<rect x="0.0507812" y="0.508301" width="359" height="359" fill="white"/>
</clipPath>
<clipPath id="clip1_221_26383">
<rect width="359" height="359" fill="white" transform="translate(0.0507812 0.508301)"/>
</clipPath>
</defs>
</svg>
