<svg width="381" height="381" viewBox="0 0 381 381" fill="none" xmlns="http://www.w3.org/2000/svg">
<mask id="path-2-outside-1_216_17962" maskUnits="userSpaceOnUse" x="17.6876" y="92.9761" width="347.213" height="195.58" fill="black">
<rect fill="white" x="17.6876" y="92.9761" width="347.213" height="195.58"/>
<path fill-rule="evenodd" clip-rule="evenodd" d="M260.729 113.427L206.833 110.075L203.556 162.769L171.505 160.776L170.499 176.949L137.792 174.915L138.544 162.83L111.478 161.147L112.341 147.282L31.497 142.254L27.2141 211.121L108.058 216.149L108.733 205.301L131.688 206.728L127.848 268.478L173.759 271.333L177.701 207.949L214.395 210.231L215.419 193.77L232.591 194.838L230.245 232.558L282.176 235.787L282.163 235.994L350.032 240.215L352.825 195.301L294.35 191.665L295.638 170.958L257.299 168.574L260.729 113.427Z"/>
</mask>
<path fill-rule="evenodd" clip-rule="evenodd" d="M260.729 113.427L206.833 110.075L203.556 162.769L171.505 160.776L170.499 176.949L137.792 174.915L138.544 162.83L111.478 161.147L112.341 147.282L31.497 142.254L27.2141 211.121L108.058 216.149L108.733 205.301L131.688 206.728L127.848 268.478L173.759 271.333L177.701 207.949L214.395 210.231L215.419 193.77L232.591 194.838L230.245 232.558L282.176 235.787L282.163 235.994L350.032 240.215L352.825 195.301L294.35 191.665L295.638 170.958L257.299 168.574L260.729 113.427Z" fill="#7F979E"/>
<path d="M206.833 110.075L207.205 104.087L200.844 109.703L206.833 110.075ZM260.729 113.427L266.717 113.799L261.101 107.439L260.729 113.427ZM203.556 162.769L203.183 168.758L209.544 163.142L203.556 162.769ZM171.505 160.776L171.877 154.788L165.516 160.404L171.505 160.776ZM170.499 176.949L170.127 182.937L176.487 177.321L170.499 176.949ZM137.792 174.915L131.804 174.542L137.42 180.903L137.792 174.915ZM138.544 162.83L144.532 163.203L138.916 156.842L138.544 162.83ZM111.478 161.147L105.49 160.775L111.106 167.136L111.478 161.147ZM112.341 147.282L118.329 147.654L112.713 141.293L112.341 147.282ZM31.497 142.254L31.8694 136.266L25.5085 141.882L31.497 142.254ZM27.2141 211.121L21.2256 210.748L26.8416 217.109L27.2141 211.121ZM108.058 216.149L107.685 222.137L114.046 216.521L108.058 216.149ZM108.733 205.301L109.105 199.312L102.744 204.928L108.733 205.301ZM131.688 206.728L137.677 207.101L132.061 200.74L131.688 206.728ZM127.848 268.478L121.859 268.106L127.475 274.466L127.848 268.478ZM173.759 271.333L173.387 277.322L179.748 271.706L173.759 271.333ZM177.701 207.949L178.074 201.96L171.713 207.576L177.701 207.949ZM214.395 210.231L214.023 216.219L220.384 210.603L214.395 210.231ZM215.419 193.77L215.791 187.781L209.431 193.397L215.419 193.77ZM232.591 194.838L238.58 195.21L232.964 188.849L232.591 194.838ZM230.245 232.558L224.257 232.185L229.873 238.546L230.245 232.558ZM282.176 235.787L288.164 236.16L282.548 229.799L282.176 235.787ZM282.163 235.994L276.174 235.621L281.79 241.982L282.163 235.994ZM350.032 240.215L349.659 246.203L356.02 240.587L350.032 240.215ZM352.825 195.301L358.813 195.674L353.197 189.313L352.825 195.301ZM294.35 191.665L288.362 191.292L293.978 197.653L294.35 191.665ZM295.638 170.958L301.626 171.331L296.01 164.97L295.638 170.958ZM257.299 168.574L251.311 168.202L256.927 174.562L257.299 168.574ZM206.46 116.064L260.356 119.415L261.101 107.439L207.205 104.087L206.46 116.064ZM209.544 163.142L212.821 110.448L200.844 109.703L197.567 162.397L209.544 163.142ZM171.132 166.765L203.183 168.758L203.928 156.781L171.877 154.788L171.132 166.765ZM176.487 177.321L177.493 161.149L165.516 160.404L164.511 176.576L176.487 177.321ZM137.42 180.903L170.127 182.937L170.871 170.96L138.165 168.926L137.42 180.903ZM132.555 162.458L131.804 174.542L143.781 175.287L144.532 163.203L132.555 162.458ZM111.106 167.136L138.171 168.819L138.916 156.842L111.851 155.159L111.106 167.136ZM106.352 146.909L105.49 160.775L117.467 161.52L118.329 147.654L106.352 146.909ZM31.1245 148.242L111.968 153.27L112.713 141.293L31.8694 136.266L31.1245 148.242ZM33.2025 211.493L37.4854 142.626L25.5085 141.882L21.2256 210.748L33.2025 211.493ZM108.43 210.16L27.5865 205.132L26.8416 217.109L107.685 222.137L108.43 210.16ZM102.744 204.928L102.069 215.776L114.046 216.521L114.721 205.673L102.744 204.928ZM132.061 200.74L109.105 199.312L108.36 211.289L131.316 212.717L132.061 200.74ZM133.836 268.85L137.677 207.101L125.7 206.356L121.859 268.106L133.836 268.85ZM174.132 265.345L128.22 262.49L127.475 274.466L173.387 277.322L174.132 265.345ZM171.713 207.576L167.771 270.961L179.748 271.706L183.69 208.321L171.713 207.576ZM214.768 204.242L178.074 201.96L177.329 213.937L214.023 216.219L214.768 204.242ZM209.431 193.397L208.407 209.858L220.384 210.603L221.407 194.142L209.431 193.397ZM232.964 188.849L215.791 187.781L215.047 199.758L232.219 200.826L232.964 188.849ZM236.234 232.93L238.58 195.21L226.603 194.465L224.257 232.185L236.234 232.93ZM282.548 229.799L230.618 226.569L229.873 238.546L281.803 241.776L282.548 229.799ZM288.151 236.366L288.164 236.16L276.187 235.415L276.174 235.621L288.151 236.366ZM350.404 234.226L282.535 230.005L281.79 241.982L349.659 246.203L350.404 234.226ZM346.836 194.929L344.043 239.842L356.02 240.587L358.813 195.674L346.836 194.929ZM293.978 197.653L352.452 201.29L353.197 189.313L294.723 185.676L293.978 197.653ZM289.65 170.586L288.362 191.292L300.339 192.037L301.626 171.331L289.65 170.586ZM256.927 174.562L295.266 176.947L296.01 164.97L257.672 162.586L256.927 174.562ZM254.74 113.055L251.311 168.202L263.288 168.946L266.717 113.799L254.74 113.055Z" fill="#FB2DCD" mask="url(#path-2-outside-1_216_17962)"/>
<path d="M52.1984 204.794L52.5119 199.754L60.7114 200.263L63.4061 156.934L55.2066 156.424L55.52 151.384L75.3794 152.619C89.0703 153.47 95.5502 157.347 94.9186 167.503C94.4414 175.175 90.0888 178.378 82.5573 179.269C87.5931 180.866 91.4494 184.429 90.874 193.682L90.6728 196.916C90.4389 200.677 92.1227 202.746 94.1537 202.872C96.1848 202.998 97.6277 201.653 98.4498 199.363L103.251 201.097C102.081 205.328 98.8098 208.146 94.0706 207.851C88.3535 207.495 84.6009 204.694 85.1062 196.57L85.2793 193.787C85.9249 183.406 81.6979 182.161 71.9186 181.553L67.3299 181.268L66.1276 200.6L74.3271 201.11L74.0137 206.15L52.1984 204.794ZM75.9687 157.715L68.8223 157.271L67.6434 176.227L74.1127 176.63C83.9672 177.243 88.6725 174.439 89.0842 167.819C89.4959 161.2 85.8983 158.333 75.9687 157.715Z" fill="#B8C8CD"/>
<path d="M117.578 200.284C107.122 199.634 103.015 191.6 103.548 183.025C104.058 174.825 108.738 166.356 119.872 167.049C130.253 167.694 133.692 175.535 132.449 185.804L108.603 184.321C108.736 190.672 111.766 195.392 118.686 195.822C122.899 196.084 126.481 194.343 129.099 191.108L132.099 193.862C130.384 197.154 125.025 200.747 117.578 200.284ZM119.14 171.534C115.378 171.3 110.094 172.482 108.851 180.334L127.431 181.489C128.027 176.769 125.759 171.946 119.14 171.534Z" fill="#B8C8CD"/>
<path d="M152.895 205.786C150.337 205.627 148.033 205.031 146.134 204.007C144.408 205.032 143.116 206.386 142.999 208.267C142.849 210.674 144.754 211.623 150.095 211.956L154.232 212.213C165.741 212.929 169.283 217.906 168.937 223.473C168.488 230.695 161.776 235.412 150.793 234.729C141.314 234.14 135.079 229.976 135.477 223.582C135.725 219.595 138.469 216.745 142.573 215.113C139.418 213.633 138.36 211.226 138.509 208.819C138.668 206.261 140.313 204.098 143.237 202.014C141.177 199.923 139.996 197.055 140.211 193.595C140.656 186.448 147.157 182.699 154.303 183.144C157.237 183.326 159.757 184.087 161.864 185.426C164.289 182.858 166.601 180.888 170.212 181.112C173.898 181.342 176.25 183.602 175.118 188.44L171.117 188.418C171.173 186.307 171.088 185.245 169.508 185.146C167.778 185.039 166.194 186.224 164.587 187.786C166.129 189.694 167.028 192.242 166.841 195.251C166.392 202.472 160.869 206.282 152.895 205.786ZM148.535 216.39C147.783 216.343 147.035 216.221 146.438 216.108C142.503 217.449 140.502 220.496 140.338 223.129C140.076 227.342 144.599 229.889 151.445 230.314C157.989 230.721 163.687 228.961 164.019 223.62C164.333 218.58 159.518 217.073 154.102 216.736L148.535 216.39ZM153.157 201.574C159.175 201.948 161.887 199.625 162.163 195.186C162.434 190.823 160.134 187.735 153.891 187.347C148.625 187.019 145.254 189 144.946 193.965C144.66 198.553 147.816 201.242 153.157 201.574Z" fill="#B8C8CD"/>
<path d="M173.796 173.669L174.072 169.231L185.506 169.942L184.355 188.447C183.991 194.315 185.435 197.803 189.948 198.083C194.989 198.397 199.886 194.926 200.452 185.823L201.103 175.367L194.483 174.955L194.759 170.517L206.268 171.233L204.533 199.141L211.077 199.548L210.801 203.987L199.442 203.28L199.905 195.833L199.755 195.824C197.617 199.844 194.073 203.399 187.98 203.02C181.736 202.632 178.825 198.449 179.293 190.926L180.341 174.076L173.796 173.669Z" fill="#B8C8CD"/>
<path d="M213.243 140.807L213.556 135.767L238.08 137.292L237.766 142.332L226.859 141.654L224.164 184.983L244.023 186.218L244.954 171.248L250.37 171.585L249.126 191.595L210.235 189.176L210.548 184.136L218.748 184.646L221.442 141.317L213.243 140.807Z" fill="#B8C8CD"/>
<path d="M266.512 227.972L266.826 222.932L273.446 223.344L270.701 212.827L250.917 211.597L247.042 221.702L254.113 222.141L253.799 227.182L234.918 226.007L235.231 220.967L241.55 221.36L260.657 173.992L265.847 174.314L278.937 223.685L285.106 224.069L284.792 229.109L266.512 227.972ZM262.436 181.805L252.81 206.655L269.285 207.68L262.436 181.805Z" fill="#B8C8CD"/>
<path d="M293.132 201.611L293.408 197.173L304.842 197.884L304.398 205.03L304.548 205.04C305.906 200.216 309.008 197.69 313.672 197.98C319.088 198.317 321.915 202.646 320.855 209.981L316.101 209.912C316.824 206.785 316.16 202.892 312.249 202.649C306.983 202.322 304.216 209.172 303.757 216.545L303.182 225.797L311.457 226.312L311.181 230.75L291.396 229.52L291.673 225.081L298.292 225.493L299.752 202.023L293.132 201.611Z" fill="#B8C8CD"/>
<rect x="22.7512" y="0.938763" width="358" height="358" transform="rotate(3.55869 22.7512 0.938763)" stroke="#484848" stroke-dasharray="22 22"/>
</svg>
