<svg width="359" height="360" viewBox="0 0 359 360" fill="none" xmlns="http://www.w3.org/2000/svg">
<path d="M89.1385 71.397L91.9272 62.8048H101.725L113.483 26.4763H111.599L82.732 72.4522H81.9783L83.4104 26.4763H81.2246L69.4669 62.8048H79.265L76.4763 71.397H48.2878L51.0765 62.8048H60.8747L72.6324 26.4763H62.9096L65.623 17.8841H84.3902L83.1843 57.5288L108.056 17.8841H126.824L124.035 26.4763H114.312L102.554 62.8048H112.277L109.488 71.397H89.1385ZM130.571 71.8492C122.431 71.8492 118.964 67.8546 118.964 61.9757C118.964 60.0161 119.341 57.4535 120.019 55.0416C122.054 47.8815 127.481 38.5355 138.259 38.5355C144.967 38.5355 147.755 42.0779 147.755 47.8815C147.755 52.479 145.193 57.755 133.586 57.755H120.019C119.944 58.0564 119.944 58.4333 119.944 58.584C120.17 62.8048 124.391 64.689 128.988 64.689C133.661 64.689 137.053 62.654 139.691 60.0914L144.665 65.6688C142.404 68.5329 137.882 71.8492 130.571 71.8492ZM137.053 45.6957C130.646 45.6957 125.144 47.2031 122.054 51.4992H137.053C144.439 51.4992 147.077 50.3687 147.077 48.7859C147.077 46.374 141.726 45.6957 137.053 45.6957ZM181.343 25.4211L183.755 17.8841H192.423L178.027 62.3525C177.5 64.0861 177.123 65.5181 177.123 66.724C177.123 68.0053 177.65 68.6083 178.555 68.6083C180.439 68.6083 182.172 65.8949 183.906 60.8451L190.991 63.5585C188.504 69.6635 185.112 71.8492 181.494 71.8492C177.876 71.8492 176.369 69.8142 176.369 66.9501C176.369 65.5935 176.746 63.9353 177.349 62.1264L178.178 59.4131H177.952C174.56 66.7994 169.36 71.8492 162.049 71.8492C156.396 71.8492 151.572 68.759 151.572 61.2974C151.572 59.5638 151.874 57.4535 152.552 55.0416C154.888 46.7509 161.521 38.5355 170.641 38.5355C177.65 38.5355 180.816 43.4346 180.816 49.012C180.816 49.8411 180.74 50.8209 180.665 51.2731H180.816L189.182 25.4211H181.343ZM163.556 63.9353C168.455 63.9353 177.123 63.1062 179.535 55.1924C179.911 54.1372 179.987 53.0066 179.987 52.3283C179.987 47.2031 173.957 46.4494 169.284 46.4494C164.31 46.4494 155.642 47.2785 153.155 55.117C152.853 56.2475 152.703 57.3027 152.703 58.0564C152.703 63.1062 158.732 63.9353 163.556 63.9353ZM202.743 71.8492C199.125 71.8492 197.617 69.8896 197.617 66.9501C197.617 60.9205 205.004 49.3135 205.004 43.5853C205.004 42.3794 204.476 41.7765 203.572 41.7765C201.687 41.7765 200.18 44.5652 198.597 48.5598L191.513 45.8465C193.849 40.7966 197.015 38.5355 200.557 38.5355C204.25 38.5355 205.757 40.5705 205.757 43.4346C205.757 49.4642 198.371 61.0712 198.371 66.7994C198.371 68.0053 198.899 68.6083 199.803 68.6083C201.687 68.6083 203.421 65.8949 205.155 60.8451L212.239 63.5585C209.752 69.6635 206.36 71.8492 202.743 71.8492ZM209.3 27.0039C206.511 27.0039 204.702 24.9689 204.702 22.4063C204.702 19.9191 206.511 17.8841 209.3 17.8841C212.013 17.8841 213.822 19.9191 213.822 22.4063C213.822 24.9689 212.013 27.0039 209.3 27.0039ZM226.139 71.8492C222.069 71.8492 219.506 69.8142 219.506 65.3674C219.506 62.3525 220.787 58.6594 222.521 54.514C224.254 50.3687 225.913 46.2987 225.913 43.6607C225.913 42.3794 225.46 41.7765 224.481 41.7765C222.596 41.7765 220.938 44.4898 219.205 49.5396L212.044 46.8263C214.607 40.7213 217.999 38.5355 221.616 38.5355C225.234 38.5355 226.666 40.4952 226.666 43.3592C226.666 46.374 224.933 50.5194 223.199 54.7401C222.446 56.4737 222.144 57.755 222.144 58.9609C222.144 62.4279 224.933 63.9353 229.38 63.9353C233.525 63.9353 239.781 62.654 242.795 53.1574L247.393 38.9878H248.147L240.384 62.8048C239.931 64.3122 239.63 65.6688 239.63 66.7994C239.63 68.0053 240.082 68.6083 241.062 68.6083C242.946 68.6083 244.454 65.8196 246.036 61.8249L253.046 64.4629C250.785 69.4373 247.695 71.8492 243.926 71.8492C240.384 71.8492 238.876 69.7388 238.876 67.0255C238.876 65.6688 239.178 64.2368 239.705 62.5787L240.987 58.584H240.836C237.746 64.6136 233.826 71.8492 226.139 71.8492ZM304.43 71.8492C300.812 71.8492 299.305 69.8896 299.305 66.9501C299.305 64.0107 301.038 59.79 302.847 55.6446C303.601 53.8357 303.903 52.5544 303.903 51.4239C303.903 47.8815 301.265 46.4494 296.818 46.4494C292.672 46.4494 286.643 47.7307 283.553 57.2274L279.03 71.397H278.277L283.326 55.5692C283.854 53.9111 284.231 52.6298 284.231 51.2731C284.231 47.8815 281.744 46.4494 277.221 46.4494C273.076 46.4494 267.046 47.7307 264.032 57.2274L259.434 71.397H258.68L266.444 47.5046C266.896 46.0726 267.197 44.6405 267.197 43.5853C267.197 42.3794 266.745 41.7765 265.765 41.7765C263.881 41.7765 262.374 44.5652 260.791 48.5598L253.781 45.8465C256.042 40.9474 259.133 38.5355 262.901 38.5355C266.444 38.5355 267.951 40.5705 267.951 43.3592C267.951 44.7159 267.649 46.1479 267.122 47.7307L265.841 51.7253H265.991C269.081 45.6957 272.85 38.5355 280.462 38.5355C284.457 38.5355 286.718 40.4952 286.718 44.8666C286.718 46.977 286.04 49.3135 285.211 51.7253H285.361C288.527 45.6957 292.522 38.5355 300.059 38.5355C304.129 38.5355 306.465 40.4952 306.465 44.942C306.465 48.0322 305.259 51.7253 303.526 55.7953C301.717 60.0161 300.059 64.0861 300.059 66.724C300.059 68.0053 300.586 68.6083 301.491 68.6083C303.375 68.6083 305.108 65.8949 306.842 60.8451L313.927 63.5585C311.44 69.6635 308.048 71.8492 304.43 71.8492Z" fill="#B8C8CD"/>
<path d="M115.169 340.849C111.552 340.849 110.044 338.89 110.044 335.95C110.044 329.921 117.431 318.313 117.431 312.585C117.431 311.379 116.903 310.776 115.998 310.776C114.114 310.776 112.607 313.565 111.024 317.56L103.939 314.846C106.276 309.797 109.441 307.536 112.984 307.536C116.677 307.536 118.184 309.571 118.184 312.435C118.184 318.464 110.798 330.071 110.798 335.799C110.798 337.005 111.326 337.608 112.23 337.608C114.114 337.608 115.848 334.895 117.581 329.845L124.666 332.558C122.179 338.663 118.787 340.849 115.169 340.849ZM121.727 296.004C118.938 296.004 117.129 293.969 117.129 291.406C117.129 288.919 118.938 286.884 121.727 286.884C124.44 286.884 126.249 288.919 126.249 291.406C126.249 293.969 124.44 296.004 121.727 296.004ZM127.84 315.525L130.327 307.988H136.583L140.577 295.853C140.879 295.778 141.256 295.401 141.407 295.099H141.557L137.337 307.988H146.381L143.969 315.525H134.925L129.799 331.353C129.272 333.086 128.895 334.518 128.895 335.724C128.895 337.005 129.423 337.608 130.327 337.608C132.211 337.608 133.945 334.895 135.678 329.845L142.763 332.558C140.276 338.663 136.884 340.849 133.267 340.849C129.649 340.849 128.141 338.814 128.141 335.95C128.141 334.593 128.518 332.935 129.121 331.126L134.171 315.525H127.84ZM158.375 340.849C152.722 340.849 148.275 337.759 148.275 330.297C148.275 328.564 148.577 326.453 149.255 324.042C151.592 315.751 157.847 307.536 166.967 307.536C173.976 307.536 176.765 312.435 176.765 318.012C176.765 318.841 176.69 319.821 176.614 320.273H176.765L180.76 307.988H181.514L173.976 331.353C173.449 333.086 173.072 334.518 173.072 335.724C173.072 337.005 173.6 337.608 174.504 337.608C176.388 337.608 178.122 334.895 179.855 329.845L186.94 332.558C184.453 338.663 181.061 340.849 177.444 340.849C173.826 340.849 172.318 338.814 172.318 335.95C172.318 334.593 172.695 332.935 173.298 331.126L174.127 328.413H173.901C170.509 335.799 165.686 340.849 158.375 340.849ZM159.807 332.935C164.781 332.935 173.072 332.106 175.484 324.192C175.861 323.137 175.936 322.007 175.936 321.328C175.936 316.203 170.283 315.449 165.61 315.449C160.711 315.449 152.345 316.203 149.858 324.117C149.557 325.248 149.406 326.303 149.406 327.056C149.406 332.106 155.059 332.935 159.807 332.935ZM194.627 294.421L197.115 286.884H205.782L191.386 331.353C190.859 333.086 190.482 334.518 190.482 335.724C190.482 337.005 190.934 337.608 191.914 337.608C193.798 337.608 195.456 334.895 197.19 329.845L204.35 332.558C201.788 338.663 198.396 340.849 194.853 340.849C191.16 340.849 189.728 338.814 189.728 335.95C189.728 334.593 190.105 332.935 190.708 331.126L202.541 294.421H194.627ZM216.963 340.849C213.346 340.849 211.838 338.89 211.838 335.95C211.838 329.921 219.225 318.313 219.225 312.585C219.225 311.379 218.697 310.776 217.793 310.776C215.908 310.776 214.401 313.565 212.818 317.56L205.733 314.846C208.07 309.797 211.235 307.536 214.778 307.536C218.471 307.536 219.978 309.571 219.978 312.435C219.978 318.464 212.592 330.071 212.592 335.799C212.592 337.005 213.12 337.608 214.024 337.608C215.908 337.608 217.642 334.895 219.375 329.845L226.46 332.558C223.973 338.663 220.581 340.849 216.963 340.849ZM223.521 296.004C220.732 296.004 218.923 293.969 218.923 291.406C218.923 288.919 220.732 286.884 223.521 286.884C226.234 286.884 228.043 288.919 228.043 291.406C228.043 293.969 226.234 296.004 223.521 296.004ZM240.035 340.849C231.217 340.849 228.353 335.95 228.353 330.448C228.353 328.338 228.805 326.077 229.408 323.966C231.895 315.826 238.452 307.536 248.175 307.536C255.109 307.536 257.747 311.756 257.747 316.278C257.747 317.711 257.521 319.369 256.993 320.725C256.918 320.951 256.767 321.178 256.466 321.178C256.164 321.178 256.164 320.951 256.24 320.725C256.39 320.198 256.541 319.746 256.541 319.293C256.541 315.902 251.341 315.449 247.044 315.449C238.829 315.449 232.196 317.108 230.086 324.268C229.785 325.323 229.634 326.227 229.634 327.132C229.634 331.428 233.026 333.086 237.849 333.086C243.276 333.086 246.894 330.9 250.21 327.509L255.637 333.538C252.999 336.855 248.024 340.849 240.035 340.849Z" fill="#B8C8CD"/>
<path d="M123.978 288.821C121.976 296.756 120.419 304.791 119.309 312.925C118.825 316.448 118.192 318.73 117.411 319.771C115.33 322.581 107.287 323.998 106.363 318.662C105.746 315.077 104.994 311.697 105.432 307.946C106.338 300.139 106.315 292.72 105.365 285.688C105.176 284.275 104.381 283.143 102.98 282.291C96.6435 278.465 90.4979 274.354 84.5437 269.96C78.989 265.868 75.1318 260.735 70.7674 255.407C70.5639 255.161 70.2995 254.974 70.001 254.863C69.7026 254.752 69.3805 254.721 69.0674 254.774C68.7544 254.826 68.4613 254.961 68.2179 255.163C67.9744 255.366 67.7892 255.629 67.6808 255.927C65.9631 260.6 60.3683 261.969 56.1699 263.614C50.9235 265.68 46.8545 268.886 40.2558 269.134C37.125 269.248 36.0066 264.201 36.1891 261.82C36.225 261.408 36.4091 261.081 36.7411 260.838C46.2898 253.92 53.7215 245.41 61.6409 237.196C65.0979 233.606 64.3916 230.498 62.7779 226.192C59.8835 218.474 55.3095 211.83 56.9659 203.186C57.9979 197.764 57.9513 192.292 59.1355 187.052C60.3667 181.658 60.8411 176.464 62.9284 171.242C65.4767 164.858 67.2902 157.868 69.8674 152.161C73.1159 144.953 74.7636 139.793 78.2547 134.529C79.0304 133.359 80.6421 131.497 83.0897 128.941C87.8655 123.94 92.0403 118.451 95.614 112.475C96.0253 111.789 96.5119 111.26 97.0737 110.889C97.717 110.472 98.357 110.109 98.9939 109.799C113.334 102.901 122.244 98.2572 125.725 95.8684C126.103 95.6099 126.808 94.9797 127.839 93.9779C128.132 93.6932 128.305 93.3475 128.358 92.9408C128.705 90.4592 128.934 88.4238 130.314 86.2188C134.219 80.0205 136.128 75.6197 134.714 68.4552C133.732 63.4948 135.99 59.0717 135.201 53.8109C133.835 44.7022 133.4 35.3392 136.391 26.4581C136.489 26.1722 136.666 25.92 136.901 25.7307C137.136 25.5414 137.42 25.4229 137.72 25.3889C138.02 25.355 138.324 25.4069 138.596 25.5387C138.867 25.6705 139.096 25.8768 139.255 26.1336C142.724 31.7505 145.634 37.8064 147.986 44.3015C150.087 50.1326 153.984 54.2 156.405 59.7581C159.731 67.42 163.053 74.7379 166.369 81.7117C166.72 82.4596 167.319 83.0628 168.064 83.4188C168.809 83.7749 169.654 83.8618 170.456 83.6648L180.28 81.2661C180.639 81.182 181.012 81.2082 181.351 81.3412C191.579 85.4047 202.036 88.6341 212.721 91.0295C215.906 91.7466 219.994 93.7728 221.959 95.4749C226.453 99.336 230.647 102.375 234.539 104.593C240.674 108.088 242.59 109.786 246.767 114.719C253.206 122.327 266.388 118.206 274.789 113.928C278.44 112.071 282.954 111.14 286.864 108.654C291.126 105.939 297.575 101.844 302.198 103.805C302.539 103.95 302.793 104.183 302.961 104.504C305.058 108.623 304.321 111.73 300.75 113.826C292.959 118.402 286.876 123.9 282.502 130.32C280.799 132.823 279.275 134.723 277.929 136.022C273.082 140.674 267.523 143.121 270.314 151.308C272.943 159.063 274.455 166.998 274.85 175.114C274.937 176.787 275.328 178.719 276.021 180.907C277.896 186.764 274.893 191.459 277.974 196.893C278.739 198.258 278.693 200.607 277.837 203.942C276.351 209.753 275.154 216.55 274.244 224.333C273.372 231.859 266.652 236.437 264.927 244.314C264.06 248.259 266.399 251.456 266.952 254.809C268.248 262.789 271.33 270.78 276.198 278.783C278.229 282.126 279.672 286.282 280.526 291.252C280.584 291.598 280.524 291.955 280.357 292.267C276.111 299.91 267.425 289.649 263.084 287.13C258.313 284.367 258.458 280.397 255.577 276.147C253.35 272.894 249.424 271.754 246.32 269.282C246.054 269.069 245.729 268.946 245.391 268.93C245.054 268.915 244.722 269.008 244.444 269.196C234.928 275.557 225.75 281.865 216.913 288.119C215.754 288.94 214.062 289.651 211.836 290.253C200.742 293.268 189.469 295.176 178.017 295.979C168.653 296.632 158.236 295.441 148.215 295.085C145.319 294.98 142.712 294.47 140.393 293.554C136.341 291.96 128.898 287.2 124.795 288.038C124.356 288.128 124.084 288.389 123.978 288.821ZM177.995 154.219C172.429 146.115 167.107 137.844 162.027 129.406C159.327 124.93 157.735 118.514 153.173 114.327C152.108 113.346 151.415 113.564 151.095 114.982C149.038 124.087 148.186 132.887 148.54 141.383C148.751 146.535 148.585 153.125 146.499 157.921C145.429 160.374 144.895 162.234 144.898 163.5C144.887 170.604 143.779 177.52 141.572 184.248C141.417 184.721 141.561 184.855 142.005 184.65C146.763 182.476 151.618 180.517 156.57 178.773C162.057 176.838 165.792 174.248 170.281 171.007C173.543 168.643 177.063 167.733 180.652 166.154C182.375 165.409 182.905 164.155 182.243 162.391C181.152 159.475 179.736 156.751 177.995 154.219ZM195.731 119.317C191.817 118.272 188.117 116.838 184.631 115.015C184.502 114.948 184.359 114.913 184.213 114.914C184.068 114.915 183.925 114.951 183.796 115.019C183.668 115.088 183.558 115.186 183.476 115.306C183.394 115.427 183.342 115.565 183.325 115.709C183.107 117.589 183.488 119.44 184.468 121.264C188.564 128.869 193.376 135.989 198.905 142.622C201.07 145.216 201.749 147.512 201.58 150.694C201.574 150.794 201.593 150.893 201.634 150.985C201.675 151.076 201.738 151.156 201.816 151.218C201.894 151.279 201.986 151.322 202.084 151.341C202.182 151.36 202.284 151.355 202.379 151.326C210.382 148.873 217.531 144.941 223.827 139.529C224.057 139.33 224.334 139.191 224.635 139.125C225.637 138.915 226.495 138.446 227.207 137.717C227.277 137.646 227.331 137.561 227.367 137.468C227.404 137.375 227.42 137.275 227.417 137.174C227.414 137.074 227.39 136.975 227.348 136.883C227.306 136.791 227.246 136.708 227.171 136.639C218.118 128.246 207.638 122.472 195.731 119.317ZM87.1119 187.073C85.9518 196.424 85.0401 205.734 86.3487 215.157C86.3713 215.323 86.4413 215.48 86.5503 215.608C86.6592 215.736 86.8026 215.83 86.9633 215.878C87.1241 215.927 87.2953 215.928 87.4567 215.882C87.6182 215.836 87.7629 215.744 87.8738 215.618C91.0554 212.03 94.7668 209.444 99.008 207.86C101.823 206.813 105.99 201.302 109.342 199.397C112.637 197.515 119.519 197.146 119.028 192.066C118.406 185.734 118.651 180.068 119.762 175.067C120.669 170.993 120.167 167.291 120.755 163.71C122.043 156.057 124.196 145.767 127.214 132.839C127.686 130.827 127.373 128.754 126.275 126.617C126.073 126.237 125.828 126.201 125.539 126.51C123.255 128.973 120.737 131.159 117.985 133.067C115.621 134.696 114.1 137.582 111.799 139.516C102.662 147.217 95.967 156.488 91.7131 167.327C89.609 172.69 88.0753 179.272 87.1119 187.073ZM248.446 209.676C251.725 198.676 252.394 188.433 250.419 177.077C249.487 171.767 249.874 166.198 248.944 160.754C248.435 157.735 246.805 155.855 244.149 154.671C243.781 154.505 243.364 154.482 242.982 154.607C242.6 154.732 242.28 154.997 242.086 155.348C240.717 157.811 238.705 159.846 236.049 161.455C230.066 165.069 223.903 168.259 217.558 171.025C217.406 171.091 217.274 171.193 217.172 171.323C217.07 171.453 217.001 171.607 216.973 171.77C216.945 171.933 216.958 172.1 217.011 172.257C217.064 172.414 217.155 172.555 217.275 172.668C220.286 175.472 222.565 178.915 224.113 182.997C226.137 188.366 229.836 192.71 232.565 197.644C234.695 201.474 233.898 205.48 236.129 209.621C237.757 212.642 239.185 215.75 240.413 218.944C240.55 219.286 240.79 219.577 241.101 219.778C243.104 221.031 245.271 221.526 247.602 221.263C248.128 221.207 248.331 220.921 248.212 220.405C247.339 216.721 247.418 213.145 248.446 209.676ZM224.466 238.337C222.093 233.786 219.558 229.331 216.861 224.972C212.715 218.268 209.678 212.083 206.273 205.449C204.626 202.244 204.323 198.497 203.193 195.838C201.208 191.18 197.814 188.315 193.012 187.241C192.607 187.147 192.216 187.189 191.841 187.366C186.151 189.973 180.359 192.386 174.465 194.605C172.711 195.258 170.665 196.353 168.33 197.892C164.497 200.405 160.289 202.064 155.706 202.869C150.816 203.73 147.634 206.859 144.437 210.26C142.124 212.703 140.212 215.789 138.7 219.518C132.934 233.725 131.897 247.488 132.043 262.708C132.048 263.102 132.169 263.486 132.39 263.814C132.612 264.142 132.925 264.4 133.291 264.555C139.135 267.045 145.275 268.623 151.712 269.291C154.896 269.615 158.031 270.126 161.116 270.823C174.184 273.791 187.127 272.77 199.944 267.76C204.044 266.152 209.941 263.258 217.636 259.08C222.17 256.611 225.382 251.856 230.031 248.845C230.202 248.733 230.328 248.564 230.386 248.367C230.444 248.17 230.431 247.958 230.349 247.768C228.796 244.256 225.94 241.169 224.466 238.337ZM107.541 232.795C103.294 235.593 97.487 236.572 95.6605 242.042C95.5534 242.369 95.5442 242.699 95.6329 243.033C97.1361 248.583 100.493 252.555 105.705 254.948C106.215 255.186 106.439 255.023 106.376 254.457C105.897 250.219 106.363 246.078 107.773 242.034C107.917 241.631 107.916 241.192 107.77 240.792C106.863 238.25 107.026 235.804 108.26 233.453C108.311 233.354 108.329 233.241 108.31 233.132C108.29 233.022 108.236 232.922 108.153 232.847C108.071 232.772 107.967 232.726 107.856 232.716C107.745 232.707 107.634 232.735 107.541 232.795Z" fill="#FB2DCD"/>
<rect x="0.5" y="0.896973" width="358" height="358" stroke="#484848" stroke-dasharray="22 22"/>
</svg>
