<svg width="393" height="394" viewBox="0 0 393 394" fill="none" xmlns="http://www.w3.org/2000/svg">
<path d="M214.105 375.858C263.504 370.959 307.083 354.753 337.607 332.488C368.12 310.23 385.665 281.849 382.765 252.61C379.865 223.371 357.087 198.989 322.796 183.159C288.493 167.323 242.58 159.994 193.182 164.893C143.783 169.792 100.204 185.997 69.6801 208.263C39.167 230.521 21.6223 258.901 24.5223 288.141C27.4223 317.38 50.2 341.762 84.4906 357.592C118.794 373.428 164.707 380.757 214.105 375.858Z" fill="#82E243" stroke="#161616"/>
<path d="M120.002 302.287L119.08 292.993L128.789 292.03L125.749 261.375L116.04 262.338L115.118 253.045L134.121 251.16C147.159 249.867 152.676 254.643 153.467 262.619C154.024 268.236 151.892 271.459 147.806 273.335C154.012 274.471 157.345 277.712 157.978 284.093C158.707 291.444 155.442 298.772 140.739 300.23L120.002 302.287ZM139.882 278.884L128.3 280.032L129.483 291.961L141.065 290.813C151.815 289.746 157.697 288.323 157.188 283.19C156.679 278.058 150.632 277.817 139.882 278.884ZM135.528 260.406L126.443 261.307L127.378 270.739L136.464 269.838C147.976 268.696 153.269 267.681 152.849 263.45C152.429 259.22 147.041 259.264 135.528 260.406ZM185.279 296.233C172.171 297.533 163.359 287.061 161.99 273.259C160.621 259.458 167.205 247.459 180.313 246.159C193.421 244.859 202.234 255.331 203.602 269.132C204.971 282.934 198.387 294.933 185.279 296.233ZM184.33 286.662C195.011 285.602 204.161 281.123 202.978 269.194C201.795 257.265 191.943 254.67 181.262 255.73C170.582 256.789 161.431 261.268 162.614 273.197C163.797 285.126 173.649 287.721 184.33 286.662ZM207.067 253.31L206.145 244.017L230.558 241.596L231.48 250.889L217.47 252.279L220.511 282.933L246.519 280.354L233.018 269.226L245.572 267.981L247.718 289.62L211.029 293.258L210.107 283.965L219.817 283.002L216.777 252.347L207.067 253.31ZM252.615 289.134L251.693 279.841L261.403 278.878L258.362 248.223L248.653 249.186L247.731 239.892L265.694 238.111C281.021 236.591 288.795 245.064 290.329 260.53C291.863 275.997 285.905 285.832 270.578 287.352L252.615 289.134ZM267.309 247.336L259.056 248.154L262.096 278.809L270.349 277.99C284.775 276.559 290.874 272.383 289.705 260.592C288.535 248.802 281.735 245.905 267.309 247.336Z" fill="white"/>
<path d="M124.711 178.718C125.803 178.61 126.739 177.9 127.53 176.81C128.323 175.717 129.016 174.182 129.619 172.281C130.826 168.474 131.707 163.083 132.24 156.514C133.308 143.368 132.989 125.405 131.039 105.737C129.088 86.0689 125.872 68.3937 122.243 55.7134C120.43 49.3773 118.507 44.264 116.576 40.7687C115.611 39.023 114.629 37.6539 113.638 36.7382C112.648 35.8244 111.591 35.3127 110.499 35.4211C109.406 35.5294 108.47 36.2387 107.679 37.3291C106.887 38.4218 106.193 39.957 105.59 41.8583C104.383 45.6648 103.502 51.0562 102.969 57.625C101.902 70.771 102.22 88.7337 104.171 108.402C106.121 128.07 109.338 145.745 112.966 158.426C114.779 164.762 116.702 169.875 118.634 173.37C119.598 175.116 120.58 176.485 121.572 177.401C122.561 178.315 123.618 178.826 124.711 178.718Z" fill="#82E243" stroke="#161616"/>
<path d="M264.027 164.901C265.12 164.792 266.055 164.083 266.846 162.993C267.639 161.9 268.332 160.365 268.935 158.463C270.143 154.657 271.024 149.265 271.557 142.697C272.624 129.551 272.306 111.588 270.355 91.9197C268.404 72.2515 265.188 54.5763 261.559 41.896C259.746 35.5599 257.823 30.4466 255.892 26.9514C254.927 25.2056 253.946 23.8365 252.954 22.9208C251.964 22.007 250.907 21.4953 249.815 21.6037C248.722 21.712 247.787 22.4213 246.996 23.5117C246.203 24.6044 245.51 26.1396 244.907 28.0409C243.699 31.8474 242.818 37.2388 242.285 43.8076C241.218 56.9537 241.536 74.9163 243.487 94.5845C245.438 114.253 248.654 131.928 252.283 144.608C254.096 150.944 256.019 156.058 257.95 159.553C258.915 161.299 259.896 162.668 260.888 163.583C261.878 164.497 262.935 165.009 264.027 164.901Z" fill="#82E243" stroke="#161616"/>
<rect x="0.546907" y="36.2773" width="358" height="358" transform="rotate(-5.66409 0.546907 36.2773)" stroke="#484848" stroke-dasharray="22 22"/>
</svg>
