<svg width="360" height="359" viewBox="0 0 360 359" fill="none" xmlns="http://www.w3.org/2000/svg">
<g clip-path="url(#clip0_221_26048)">
<path d="M96.1177 344.702C90.3862 344.702 86.9941 342.362 86.9941 337.45C86.9941 328.677 97.8722 309.26 97.8722 300.488C97.8722 298.031 97.4043 296.16 95.1819 296.16C92.6086 296.16 89.5674 298.382 86.6432 304.581L85.7074 304.114C89.4505 295.809 94.2462 293.001 99.5098 293.001C104.773 293.001 107.113 295.809 107.113 300.721C107.113 311.366 96.2347 329.613 96.2347 337.333C96.2347 340.374 97.8722 341.427 100.329 341.427C103.604 341.427 106.294 339.438 108.867 332.186L109.803 332.537C106.645 342.362 101.732 344.702 96.1177 344.702ZM108.867 273.117C105.358 273.117 103.019 270.543 103.019 267.268C103.019 263.993 105.358 261.42 108.867 261.42C112.376 261.42 114.716 263.993 114.716 267.268C114.716 270.543 112.376 273.117 108.867 273.117ZM116.257 294.873L116.608 293.703H123.509L127.72 280.837C132.984 280.486 137.429 275.573 138.715 273H139.651L132.867 293.703H140.821L140.47 294.873H132.516L121.287 329.613C120.234 333.005 119.883 335.227 119.883 336.865C119.883 340.14 121.287 341.427 123.86 341.427C127.136 341.427 129.826 339.438 132.399 332.186L133.335 332.537C130.177 342.362 125.147 344.702 119.883 344.702C114.035 344.702 110.643 341.895 110.643 336.631C110.643 334.175 111.345 331.367 112.163 328.794L123.159 294.873H116.257ZM150.191 344.702C141.068 344.702 135.921 337.45 135.921 327.975C135.921 313.237 148.554 293.001 165.046 293.001C173.585 293.001 176.158 298.499 176.158 306.336V307.974H176.392L180.954 293.703H190.312L178.732 329.613C177.679 333.005 177.328 335.227 177.328 336.865C177.328 340.14 178.732 341.427 181.305 341.427C184.58 341.427 187.27 339.438 189.844 332.186L190.779 332.537C187.621 342.362 182.709 344.702 176.977 344.702C171.48 344.702 168.087 342.596 168.087 337.216C168.087 334.993 168.672 332.186 169.374 329.964H169.14C165.514 336.865 159.666 344.702 150.191 344.702ZM151.946 343.181C159.198 343.181 167.62 334.058 172.415 319.67L172.883 318.267C174.287 314.056 174.989 310.196 174.989 306.336C174.989 299.318 172.649 294.756 167.152 294.756C154.051 294.756 145.045 320.021 145.045 332.888C145.045 338.619 146.799 343.181 151.946 343.181ZM207.165 262.122L207.516 260.952H223.892L201.668 329.613C200.615 333.005 200.264 335.227 200.264 336.865C200.264 340.14 201.668 341.427 204.241 341.427C207.516 341.427 210.206 339.438 212.78 332.186L213.715 332.537C210.557 342.362 205.528 344.702 200.264 344.702C194.416 344.702 191.023 341.895 191.023 336.631C191.023 334.175 191.725 331.367 192.544 328.794L214.183 262.122H207.165ZM227.452 344.702C221.721 344.702 218.328 342.362 218.328 337.45C218.328 328.677 229.207 309.26 229.207 300.488C229.207 298.031 228.739 296.16 226.516 296.16C223.943 296.16 220.902 298.382 217.978 304.581L217.042 304.114C220.785 295.809 225.581 293.001 230.844 293.001C236.108 293.001 238.447 295.809 238.447 300.721C238.447 311.366 227.569 329.613 227.569 337.333C227.569 340.374 229.207 341.427 231.663 341.427C234.938 341.427 237.628 339.438 240.202 332.186L241.137 332.537C237.979 342.362 233.067 344.702 227.452 344.702ZM240.202 273.117C236.693 273.117 234.353 270.543 234.353 267.268C234.353 263.993 236.693 261.42 240.202 261.42C243.711 261.42 246.05 263.993 246.05 267.268C246.05 270.543 243.711 273.117 240.202 273.117ZM259.523 344.702C246.422 344.702 241.509 336.982 241.509 327.273C241.509 312.301 253.44 293.001 272.623 293.001C281.864 293.001 286.425 297.446 286.425 303.295C286.425 307.038 284.554 310.664 279.992 310.664C276.717 310.664 275.898 308.792 275.898 307.038C275.898 303.178 279.992 301.657 279.992 298.382C279.992 295.458 276.717 293.937 273.091 293.937C264.552 293.937 257.885 302.71 253.674 314.875C251.92 319.904 250.165 326.923 250.165 332.303C250.165 341.31 255.195 343.415 261.043 343.415C272.155 343.415 277.77 335.695 279.992 331.484L281.045 331.952C279.29 335.227 276.6 338.619 273.325 340.842C270.401 342.83 265.956 344.702 259.523 344.702Z" fill="#FB2DCE"/>
<path d="M39.2941 196.961C37.857 192.747 39.2375 188.748 43.1007 187.43C44.1543 187.071 46.0301 186.823 46.8522 186.935C46.0139 184.477 46.9316 181.419 48.919 180.35C56.1113 185.346 70.5995 193.342 91.9596 193.899L112.497 194.344L113.216 196.452L93.1572 197.411C85.8856 197.931 81.9026 198.897 78.3906 200.095C67.5034 203.807 62.6109 209.004 59.9372 212.66C57.2312 211.623 54.1578 208.358 53.3194 205.9C46.399 206.299 41.0906 202.229 39.2941 196.961ZM273.711 192.294L293.77 191.335C301.042 190.815 305.025 189.849 308.537 188.651C319.424 184.939 324.316 179.742 326.99 176.086C329.696 177.123 332.769 180.388 333.608 182.846C340.528 182.446 345.837 186.517 347.633 191.785C349.07 195.999 347.69 199.998 343.826 201.316C342.773 201.675 340.897 201.923 340.075 201.811C340.913 204.269 339.996 207.327 338.008 208.396C330.816 203.4 316.328 195.403 294.968 194.847L274.43 194.402L273.711 192.294ZM79.6143 139.303C79.8377 137.659 81.7053 136.238 83.1101 135.759C83.8126 135.519 84.515 135.28 85.6883 135.271C84.0116 130.355 86.4539 127.17 90.3171 125.852C96.9899 123.577 104.533 128.453 106.809 135.126C109.507 134.99 113.626 136.722 115.518 138.821C111.798 144.009 105.533 154.379 111.298 173.583L116.704 191.734L114.708 191.63L107.778 173.607C100.369 154.18 86.8066 144.299 79.6143 139.303ZM232.846 136.839C233.069 135.194 234.937 133.773 236.342 133.294C237.044 133.055 237.747 132.815 238.92 132.807C237.243 127.89 239.685 124.705 243.549 123.388C250.221 121.112 257.765 125.989 260.04 132.661C262.738 132.526 266.857 134.257 268.749 136.356C265.03 141.545 258.414 152.034 264.179 171.238L269.584 189.389L267.589 189.286L260.659 171.263C253.249 151.835 240.038 141.835 232.846 136.839ZM118.178 252.389C121.897 247.201 128.513 236.712 122.749 217.507L117.343 199.357L119.339 199.46L126.269 217.483C133.678 236.911 146.889 246.911 154.081 251.907C153.858 253.552 151.99 254.973 150.585 255.452C149.883 255.691 149.181 255.931 148.007 255.939C149.684 260.856 147.242 264.041 143.379 265.358C136.706 267.634 129.162 262.757 126.887 256.084C124.189 256.22 120.07 254.489 118.178 252.389ZM271.41 249.925C275.129 244.736 281.394 234.367 275.629 215.163L270.223 197.012L272.219 197.116L279.149 215.138C286.558 234.566 300.121 244.447 307.313 249.443C307.09 251.087 305.222 252.508 303.817 252.987C303.115 253.227 302.412 253.466 301.239 253.474C302.916 258.391 300.473 261.576 296.61 262.894C289.937 265.169 282.394 260.293 280.118 253.62C277.42 253.756 273.302 252.024 271.41 249.925ZM121.062 194.168L164.588 193.047L221.141 192.187L265.146 192.471L265.865 194.578L222.339 195.699L165.786 196.559L121.781 196.275L121.062 194.168Z" fill="#FB2DCE"/>
<path d="M26.8723 160.527C25.4351 156.312 26.8156 152.313 30.6788 150.996C31.7324 150.636 33.6082 150.389 34.4304 150.5C33.592 148.042 34.5097 144.985 36.4971 143.915C43.6894 148.911 58.1776 156.908 79.5377 157.465L100.076 157.91L100.794 160.017L80.7353 160.977C73.4637 161.496 69.4807 162.462 65.9687 163.66C55.0815 167.373 50.189 172.569 47.5153 176.225C44.8093 175.188 41.7359 171.924 40.8976 169.465C33.9771 169.865 28.6687 165.795 26.8723 160.527ZM261.289 155.86L281.348 154.9C288.62 154.381 292.603 153.414 296.115 152.217C307.002 148.504 311.894 143.307 314.568 139.651C317.274 140.689 320.348 143.953 321.186 146.412C328.106 146.012 333.415 150.082 335.211 155.35C336.648 159.565 335.268 163.564 331.405 164.881C330.351 165.24 328.475 165.488 327.653 165.376C328.491 167.835 327.574 170.892 325.586 171.962C318.394 166.966 303.906 158.969 282.546 158.412L262.008 157.967L261.289 155.86ZM67.1924 102.868C67.4158 101.224 69.2835 99.8031 70.6883 99.324C71.3907 99.0845 72.0931 98.845 73.2664 98.8369C71.5898 93.9201 74.032 90.735 77.8952 89.4176C84.568 87.1421 92.1115 92.0185 94.387 98.6913C97.0849 98.5554 101.204 100.287 103.096 102.386C99.3766 107.575 93.1116 117.944 98.8764 137.149L104.282 155.299L102.286 155.196L95.3563 137.173C87.9472 117.745 74.3847 107.865 67.1924 102.868ZM220.424 100.404C220.647 98.7597 222.515 97.3387 223.92 96.8596C224.622 96.6201 225.325 96.3806 226.498 96.3725C224.821 91.4557 227.264 88.2706 231.127 86.9532C237.8 84.6777 245.343 89.5541 247.619 96.2269C250.316 96.091 254.435 97.8227 256.327 99.9218C252.608 105.111 245.992 115.6 251.757 134.804L257.162 152.955L255.167 152.851L248.237 134.828C240.828 115.4 227.616 105.4 220.424 100.404ZM105.756 215.955C109.475 210.766 116.091 200.277 110.327 181.073L104.921 162.922L106.917 163.026L113.847 181.049C121.256 200.476 134.467 210.477 141.659 215.473C141.436 217.117 139.568 218.538 138.164 219.017C137.461 219.257 136.759 219.496 135.585 219.504C137.262 224.421 134.82 227.606 130.957 228.923C124.284 231.199 116.74 226.323 114.465 219.65C111.767 219.786 107.648 218.054 105.756 215.955ZM258.988 213.49C262.707 208.302 268.972 197.933 263.207 178.728L257.802 160.577L259.797 160.681L266.727 178.704C274.136 198.132 287.699 208.012 294.891 213.008C294.668 214.653 292.8 216.074 291.395 216.553C290.693 216.792 289.99 217.032 288.817 217.04C290.494 221.957 288.051 225.142 284.188 226.459C277.515 228.735 269.972 223.858 267.696 217.185C264.999 217.321 260.88 215.59 258.988 213.49ZM108.64 157.733L152.166 156.612L208.719 155.753L252.725 156.036L253.443 158.143L209.917 159.265L153.364 160.124L109.359 159.841L108.64 157.733Z" fill="#FB2DCE"/>
<path d="M14.4445 124.091C13.0074 119.876 14.3879 115.877 18.2511 114.56C19.3047 114.2 21.1805 113.953 22.0026 114.064C21.1643 111.606 22.082 108.549 24.0694 107.479C31.2617 112.475 45.7499 120.472 67.1099 121.029L87.6479 121.474L88.3664 123.581L68.3076 124.541C61.036 125.06 57.053 126.026 53.541 127.224C42.6538 130.937 37.7612 136.133 35.0876 139.789C32.3816 138.752 29.3082 135.488 28.4698 133.029C21.5494 133.429 16.241 129.359 14.4445 124.091ZM248.862 119.424L268.92 118.464C276.192 117.945 280.175 116.978 283.687 115.781C294.574 112.068 299.467 106.871 302.14 103.215C304.846 104.253 307.92 107.517 308.758 109.975C315.679 109.576 320.987 113.646 322.783 118.914C324.221 123.129 322.84 127.128 318.977 128.445C317.923 128.804 316.048 129.052 315.225 128.94C316.064 131.399 315.146 134.456 313.159 135.526C305.966 130.53 291.478 122.533 270.118 121.976L249.58 121.531L248.862 119.424ZM54.7647 66.4324C54.9881 64.788 56.8557 63.3671 58.2605 62.888C58.9629 62.6485 59.6653 62.409 60.8387 62.4009C59.162 57.4841 61.6042 54.299 65.4675 52.9816C72.1403 50.7061 79.6838 55.5825 81.9593 62.2553C84.6572 62.1193 88.7761 63.8511 90.668 65.9502C86.9488 71.1389 80.6839 81.5081 86.4487 100.712L91.8542 118.863L89.8586 118.76L82.9286 100.737C75.5194 81.3091 61.957 71.4285 54.7647 66.4324ZM207.996 63.968C208.22 62.3236 210.087 60.9027 211.492 60.4236C212.195 60.1841 212.897 59.9446 214.07 59.9365C212.394 55.0197 214.836 51.8346 218.699 50.5172C225.372 48.2417 232.915 53.1181 235.191 59.7909C237.889 59.6549 242.008 61.3867 243.9 63.4858C240.18 68.6745 233.564 79.1635 239.329 98.3679L244.735 116.519L242.739 116.415L235.809 98.3921C228.4 78.9644 215.189 68.9641 207.996 63.968ZM93.3284 179.519C97.0475 174.33 103.664 163.841 97.8989 144.637L92.4934 126.486L94.489 126.59L101.419 144.613C108.828 164.04 122.039 174.041 129.232 179.037C129.008 180.681 127.141 182.102 125.736 182.581C125.033 182.821 124.331 183.06 123.158 183.068C124.834 187.985 122.392 191.17 118.529 192.487C111.856 194.763 104.313 189.887 102.037 183.214C99.3392 183.35 95.2203 181.618 93.3284 179.519ZM246.56 177.054C250.279 171.866 256.544 161.496 250.779 142.292L245.374 124.141L247.369 124.245L254.299 142.268C261.709 161.696 275.271 171.576 282.463 176.572C282.24 178.217 280.372 179.638 278.967 180.117C278.265 180.356 277.563 180.596 276.389 180.604C278.066 185.521 275.624 188.706 271.761 190.023C265.088 192.299 257.544 187.422 255.269 180.749C252.571 180.885 248.452 179.154 246.56 177.054ZM96.2126 121.297L139.739 120.176L196.292 119.317L240.297 119.6L241.015 121.707L197.489 122.829L140.936 123.688L96.9312 123.405L96.2126 121.297Z" fill="#FB2DCE"/>
<path d="M2.02265 87.6555C0.585493 83.4411 1.96603 79.4419 5.82923 78.1245C6.88283 77.7652 8.7586 77.5176 9.58076 77.6293C8.74242 75.1709 9.66008 72.1137 11.6475 71.0439C18.8398 76.04 33.328 84.0367 54.6881 84.5935L75.226 85.0387L75.9446 87.1459L55.8857 88.1055C48.6141 88.625 44.6311 89.5912 41.1191 90.7889C30.2319 94.5015 25.3394 99.6983 22.6657 103.354C19.9597 102.317 16.8863 99.0525 16.048 96.5941C9.12754 96.9938 3.81909 92.9235 2.02265 87.6555ZM236.44 82.9886L256.499 82.029C263.77 81.5095 267.753 80.5433 271.265 79.3456C282.152 75.633 287.045 70.4362 289.719 66.7802C292.425 67.8176 295.498 71.082 296.336 73.5404C303.257 73.1407 308.565 77.2111 310.362 82.4791C311.799 86.6935 310.418 90.6926 306.555 92.01C305.501 92.3693 303.626 92.6169 302.803 92.5052C303.642 94.9636 302.724 98.0208 300.737 99.0906C293.544 94.0945 279.056 86.0978 257.696 85.541L237.158 85.0958L236.44 82.9886ZM42.3428 29.9973C42.5662 28.353 44.4339 26.932 45.8387 26.4529C46.5411 26.2134 47.2435 25.9739 48.4168 25.9658C46.7401 21.049 49.1824 17.8639 53.0456 16.5465C59.7184 14.271 67.2619 19.1474 69.5374 25.8202C72.2353 25.6843 76.3542 27.416 78.2461 29.5151C74.527 34.7038 68.262 45.0731 74.0268 64.2774L79.4323 82.4282L77.4368 82.3246L70.5067 64.3017C63.0976 44.874 49.5351 34.9934 42.3428 29.9973ZM195.574 27.5329C195.798 25.8886 197.665 24.4676 199.07 23.9886C199.773 23.749 200.475 23.5095 201.648 23.5014C199.972 18.5846 202.414 15.3995 206.277 14.0821C212.95 11.8067 220.493 16.683 222.769 23.3558C225.467 23.2199 229.586 24.9516 231.478 27.0507C227.759 32.2394 221.142 42.7285 226.907 61.9328L232.313 80.0835L230.317 79.9799L223.387 61.9571C215.978 42.5294 202.767 32.529 195.574 27.5329ZM80.9065 143.084C84.6257 137.895 91.2419 127.406 85.4771 108.202L80.0716 90.051L82.0671 90.1546L88.9972 108.177C96.4063 127.605 109.618 137.605 116.81 142.602C116.586 144.246 114.719 145.667 113.314 146.146C112.612 146.385 111.909 146.625 110.736 146.633C112.412 151.55 109.97 154.735 106.107 156.052C99.4343 158.328 91.8908 153.451 89.6153 146.779C86.9173 146.915 82.7984 145.183 80.9065 143.084ZM234.138 140.619C237.857 135.431 244.122 125.061 238.357 105.857L232.952 87.7064L234.947 87.8099L241.878 105.833C249.287 125.261 262.849 135.141 270.041 140.137C269.818 141.782 267.95 143.203 266.546 143.682C265.843 143.921 265.141 144.161 263.967 144.169C265.644 149.086 263.202 152.271 259.339 153.588C252.666 155.863 245.122 150.987 242.847 144.314C240.149 144.45 236.03 142.719 234.138 140.619ZM83.7907 84.8623L127.317 83.7409L183.87 82.8817L227.875 83.165L228.593 85.2722L185.067 86.3937L128.514 87.2529L84.5093 86.9695L83.7907 84.8623Z" fill="#FB2DCE"/>
<path d="M332.106 188.961C333.543 184.747 332.163 180.748 328.3 179.43C327.246 179.071 325.37 178.823 324.548 178.935C325.386 176.477 324.469 173.419 322.481 172.35C315.289 177.346 300.801 185.342 279.441 185.899L258.903 186.344L258.184 188.452L278.243 189.411C285.515 189.931 289.498 190.897 293.01 192.095C303.897 195.807 308.79 201.004 311.463 204.66C314.169 203.623 317.243 200.358 318.081 197.9C325.001 198.299 330.31 194.229 332.106 188.961ZM97.6892 184.294L77.6304 183.335C70.3587 182.815 66.3758 181.849 62.8638 180.651C51.9766 176.939 47.084 171.742 44.4104 168.086C41.7044 169.123 38.631 172.388 37.7926 174.846C30.8722 174.446 25.5638 178.517 23.7673 183.785C22.3302 187.999 23.7107 191.998 27.5739 193.316C28.6275 193.675 30.5033 193.923 31.3254 193.811C30.4871 196.269 31.4048 199.327 33.3922 200.396C40.5845 195.4 55.0727 187.403 76.4327 186.847L96.9707 186.402L97.6892 184.294ZM291.786 131.303C291.563 129.659 289.695 128.238 288.29 127.759C287.588 127.519 286.885 127.28 285.712 127.271C287.389 122.355 284.947 119.17 281.083 117.852C274.411 115.577 266.867 120.453 264.592 127.126C261.894 126.99 257.775 128.722 255.883 130.821C259.602 136.009 265.867 146.379 260.102 165.583L254.697 183.734L256.692 183.63L263.622 165.607C271.031 146.18 284.594 136.299 291.786 131.303ZM138.554 128.839C138.331 127.194 136.463 125.773 135.059 125.294C134.356 125.055 133.654 124.815 132.48 124.807C134.157 119.89 131.715 116.705 127.852 115.388C121.179 113.112 113.635 117.989 111.36 124.661C108.662 124.526 104.543 126.257 102.651 128.356C106.37 133.545 112.987 144.034 107.222 163.238L101.816 181.389L103.812 181.286L110.742 163.263C118.151 143.835 131.362 133.835 138.554 128.839ZM253.222 244.389C249.503 239.201 242.887 228.712 248.652 209.507L254.057 191.357L252.062 191.46L245.132 209.483C237.723 228.911 224.511 238.911 217.319 243.907C217.542 245.552 219.41 246.973 220.815 247.452C221.517 247.691 222.22 247.931 223.393 247.939C221.716 252.856 224.159 256.041 228.022 257.358C234.695 259.634 242.238 254.757 244.514 248.084C247.212 248.22 251.33 246.489 253.222 244.389ZM99.9908 241.925C96.2717 236.736 90.0067 226.367 95.7715 207.163L101.177 189.012L99.1814 189.116L92.2514 207.138C84.8423 226.566 71.2798 236.447 64.0875 241.443C64.3109 243.087 66.1785 244.508 67.5833 244.987C68.2857 245.227 68.9881 245.466 70.1615 245.474C68.4848 250.391 70.927 253.576 74.7902 254.894C81.4631 257.169 89.0066 252.293 91.2821 245.62C93.98 245.756 98.0989 244.024 99.9908 241.925ZM250.338 186.168L206.812 185.047L150.259 184.187L106.254 184.471L105.535 186.578L149.062 187.699L205.614 188.559L249.62 188.275L250.338 186.168Z" fill="#FB2DCE"/>
<path d="M344.528 152.527C345.965 148.312 344.585 144.313 340.722 142.996C339.668 142.636 337.792 142.389 336.97 142.5C337.808 140.042 336.891 136.985 334.903 135.915C327.711 140.911 313.223 148.908 291.863 149.465L271.325 149.91L270.606 152.017L290.665 152.977C297.937 153.496 301.92 154.462 305.432 155.66C316.319 159.373 321.211 164.569 323.885 168.225C326.591 167.188 329.664 163.924 330.503 161.465C337.423 161.865 342.732 157.795 344.528 152.527ZM110.111 147.86L90.0522 146.9C82.7806 146.381 78.7977 145.414 75.2857 144.217C64.3985 140.504 59.5059 135.307 56.8322 131.651C54.1262 132.689 51.0528 135.953 50.2145 138.412C43.2941 138.012 37.9856 142.082 36.1892 147.35C34.752 151.565 36.1326 155.564 39.9958 156.881C41.0494 157.24 42.9251 157.488 43.7473 157.376C42.909 159.835 43.8266 162.892 45.8141 163.962C53.0064 158.966 67.4946 150.969 88.8546 150.412L109.393 149.967L110.111 147.86ZM304.208 94.8684C303.985 93.2241 302.117 91.8031 300.712 91.324C300.01 91.0845 299.307 90.845 298.134 90.8369C299.811 85.9201 297.368 82.735 293.505 81.4176C286.832 79.1421 279.289 84.0185 277.013 90.6913C274.315 90.5554 270.197 92.2871 268.305 94.3862C272.024 99.5749 278.289 109.944 272.524 129.149L267.118 147.299L269.114 147.196L276.044 129.173C283.453 109.745 297.016 99.8645 304.208 94.8684ZM150.976 92.404C150.753 90.7597 148.885 89.3387 147.481 88.8596C146.778 88.6201 146.076 88.3806 144.902 88.3725C146.579 83.4557 144.137 80.2706 140.274 78.9532C133.601 76.6777 126.057 81.5541 123.782 88.2269C121.084 88.091 116.965 89.8227 115.073 91.9218C118.792 97.1105 125.408 107.6 119.644 126.804L114.238 144.955L116.234 144.851L123.164 126.828C130.573 107.4 143.784 97.4001 150.976 92.404ZM265.644 207.955C261.925 202.766 255.309 192.277 261.074 173.073L266.479 154.922L264.484 155.026L257.554 173.049C250.145 192.476 236.933 202.477 229.741 207.473C229.964 209.117 231.832 210.538 233.237 211.017C233.939 211.257 234.642 211.496 235.815 211.504C234.138 216.421 236.581 219.606 240.444 220.923C247.117 223.199 254.66 218.323 256.936 211.65C259.633 211.786 263.752 210.054 265.644 207.955ZM112.413 205.49C108.694 200.302 102.429 189.933 108.193 170.728L113.599 152.577L111.603 152.681L104.673 170.704C97.2641 190.132 83.7017 200.012 76.5094 205.008C76.7327 206.653 78.6004 208.074 80.0052 208.553C80.7076 208.792 81.41 209.032 82.5834 209.04C80.9067 213.957 83.3489 217.142 87.2121 218.459C93.8849 220.735 101.428 215.858 103.704 209.185C106.402 209.321 110.521 207.59 112.413 205.49ZM262.76 149.733L219.234 148.612L162.681 147.753L118.676 148.036L117.957 150.143L161.483 151.265L218.036 152.124L262.041 151.841L262.76 149.733Z" fill="#FB2DCE"/>
<path d="M356.956 116.091C358.393 111.876 357.012 107.877 353.149 106.56C352.096 106.2 350.22 105.953 349.398 106.064C350.236 103.606 349.318 100.549 347.331 99.479C340.139 104.475 325.651 112.472 304.29 113.029L283.753 113.474L283.034 115.581L303.093 116.541C310.364 117.06 314.347 118.026 317.859 119.224C328.747 122.937 333.639 128.133 336.313 131.789C339.019 130.752 342.092 127.488 342.931 125.029C349.851 125.429 355.159 121.359 356.956 116.091ZM122.539 111.424L102.48 110.464C95.2084 109.945 91.2254 108.978 87.7134 107.781C76.8262 104.068 71.9336 98.8713 69.26 95.2153C66.554 96.2527 63.4806 99.5171 62.6422 101.975C55.7218 101.576 50.4134 105.646 48.6169 110.914C47.1798 115.129 48.5603 119.128 52.4235 120.445C53.4771 120.804 55.3529 121.052 56.175 120.94C55.3367 123.399 56.2544 126.456 58.2418 127.526C65.4341 122.53 79.9223 114.533 101.282 113.976L121.82 113.531L122.539 111.424ZM316.636 58.4324C316.412 56.788 314.545 55.3671 313.14 54.888C312.437 54.6485 311.735 54.409 310.562 54.4009C312.238 49.4841 309.796 46.299 305.933 44.9816C299.26 42.7061 291.717 47.5825 289.441 54.2553C286.743 54.1193 282.624 55.8511 280.732 57.9502C284.452 63.1389 290.717 73.5081 284.952 92.7125L279.546 110.863L281.542 110.76L288.472 92.7367C295.881 73.3091 309.443 63.4285 316.636 58.4324ZM163.404 55.968C163.181 54.3236 161.313 52.9027 159.908 52.4236C159.206 52.1841 158.503 51.9446 157.33 51.9365C159.007 47.0197 156.565 43.8346 152.701 42.5172C146.029 40.2417 138.485 45.1181 136.21 51.7909C133.512 51.6549 129.393 53.3867 127.501 55.4858C131.22 60.6745 137.836 71.1635 132.071 90.3679L126.666 108.519L128.661 108.415L135.591 90.3921C143.001 70.9644 156.212 60.9641 163.404 55.968ZM278.072 171.519C274.353 166.33 267.737 155.841 273.501 136.637L278.907 118.486L276.911 118.59L269.981 136.613C262.572 156.04 249.361 166.041 242.169 171.037C242.392 172.681 244.26 174.102 245.665 174.581C246.367 174.821 247.069 175.06 248.243 175.068C246.566 179.985 249.008 183.17 252.871 184.487C259.544 186.763 267.088 181.887 269.363 175.214C272.061 175.35 276.18 173.618 278.072 171.519ZM124.84 169.054C121.121 163.866 114.856 153.496 120.621 134.292L126.027 116.141L124.031 116.245L117.101 134.268C109.692 153.696 96.1294 163.576 88.9371 168.572C89.1605 170.217 91.0282 171.638 92.433 172.117C93.1353 172.356 93.8377 172.596 95.0111 172.604C93.3344 177.521 95.7767 180.706 99.6399 182.023C106.313 184.299 113.856 179.422 116.132 172.749C118.83 172.885 122.948 171.154 124.84 169.054ZM275.188 113.297L231.662 112.176L175.109 111.317L131.104 111.6L130.385 113.707L173.911 114.829L230.464 115.688L274.469 115.405L275.188 113.297Z" fill="#FB2DCE"/>
<path d="M369.378 79.6555C370.815 75.4411 369.434 71.4419 365.571 70.1245C364.518 69.7652 362.642 69.5176 361.82 69.6293C362.658 67.1709 361.74 64.1137 359.753 63.0439C352.561 68.04 338.072 76.0367 316.712 76.5935L296.174 77.0387L295.456 79.1459L315.515 80.1055C322.786 80.625 326.769 81.5912 330.281 82.7889C341.168 86.5015 346.061 91.6983 348.735 95.3543C351.441 94.3169 354.514 91.0525 355.352 88.5941C362.273 88.9938 367.581 84.9235 369.378 79.6555ZM134.961 74.9886L114.902 74.029C107.63 73.5095 103.647 72.5433 100.135 71.3456C89.2481 67.633 84.3555 62.4362 81.6819 58.7802C78.9758 59.8176 75.9025 63.082 75.0641 65.5404C68.1437 65.1407 62.8353 69.2111 61.0388 74.4791C59.6017 78.6935 60.9822 82.6926 64.8454 84.01C65.899 84.3693 67.7747 84.6169 68.5969 84.5052C67.7586 86.9636 68.6762 90.0208 70.6637 91.0906C77.856 86.0945 92.3442 78.0978 113.704 77.541L134.242 77.0958L134.961 74.9886ZM329.058 21.9973C328.834 20.353 326.967 18.932 325.562 18.4529C324.859 18.2134 324.157 17.9739 322.984 17.9658C324.66 13.049 322.218 9.86394 318.355 8.54654C311.682 6.27105 304.139 11.1474 301.863 17.8202C299.165 17.6843 295.046 19.416 293.154 21.5151C296.873 26.7038 303.138 37.0731 297.374 56.2774L291.968 74.4282L293.964 74.3246L300.894 56.3017C308.303 36.874 321.865 26.9934 329.058 21.9973ZM175.826 19.5329C175.603 17.8886 173.735 16.4676 172.33 15.9886C171.628 15.749 170.925 15.5095 169.752 15.5014C171.429 10.5846 168.986 7.39955 165.123 6.08215C158.45 3.80665 150.907 8.68301 148.631 15.3558C145.934 15.2199 141.815 16.9516 139.923 19.0507C143.642 24.2394 150.258 34.7285 144.493 53.9328L139.088 72.0835L141.083 71.9799L148.013 53.9571C155.422 34.5294 168.634 24.529 175.826 19.5329ZM290.494 135.084C286.775 129.895 280.159 119.406 285.923 100.202L291.329 82.051L289.333 82.1546L282.403 100.177C274.994 119.605 261.783 129.605 254.591 134.602C254.814 136.246 256.682 137.667 258.086 138.146C258.789 138.385 259.491 138.625 260.665 138.633C258.988 143.55 261.43 146.735 265.293 148.052C271.966 150.328 279.51 145.451 281.785 138.779C284.483 138.915 288.602 137.183 290.494 135.084ZM137.262 132.619C133.543 127.431 127.278 117.061 133.043 97.8571L138.448 79.7064L136.453 79.8099L129.523 97.8328C122.114 117.261 108.551 127.141 101.359 132.137C101.582 133.782 103.45 135.203 104.855 135.682C105.557 135.921 106.26 136.161 107.433 136.169C105.756 141.086 108.199 144.271 112.062 145.588C118.735 147.863 126.278 142.987 128.554 136.314C131.251 136.45 135.37 134.719 137.262 132.619ZM287.61 76.8623L244.084 75.7409L187.531 74.8817L143.525 75.165L142.807 77.2722L186.333 78.3937L242.886 79.2529L286.891 78.9695L287.61 76.8623Z" fill="#FB2DCE"/>
</g>
<rect x="1.00781" y="0.5" width="358" height="358" stroke="#484848" stroke-dasharray="22 22"/>
<defs>
<clipPath id="clip0_221_26048">
<rect x="0.507812" width="359" height="359" fill="white"/>
</clipPath>
</defs>
</svg>
