<svg width="20" height="20" viewBox="0 0 20 20" fill="none" xmlns="http://www.w3.org/2000/svg">
<path fill-rule="evenodd" clip-rule="evenodd" d="M9.58301 8.75C10.4163 8.75 11.083 8.33333 11.4163 7.83333C11.833 7.33333 11.9163 6.83333 11.9163 6.41667H9.58301V5.75H11.9163C11.833 5.33333 11.6663 4.83333 11.4163 4.5C10.9163 3.83333 10.1663 3.75 9.66634 3.75H8.33301V15.75H9.58301V11.25H11.2497V15.75H12.7497V13.6667C12.7497 10.9167 11.833 9.41667 9.58301 9.41667V8.75Z" fill="white"/>
<path fill-rule="evenodd" clip-rule="evenodd" d="M14.5833 16.5H6.5V3.08333H9.33333H9.41667H10.0833C11.4167 3.08333 12 3.33333 12.6667 3.83333C13.5833 4.58333 13.75 5.66667 13.75 6.16667C13.75 6.83333 13.5833 7.5 13.0833 8.08333C12.8333 8.41667 12.4167 8.83333 11.75 9.08333C13.8333 9.83333 14.5833 11.5 14.5833 13.9167V16.5ZM10 0C4.5 0 0 4.5 0 10C0 15.5 4.5 20 10 20C15.5 20 20 15.5 20 10C20 4.5 15.5 0 10 0Z" fill="white"/>
</svg>
