<svg width="169" height="183" viewBox="0 0 169 183" fill="none" xmlns="http://www.w3.org/2000/svg">
<path fill-rule="evenodd" clip-rule="evenodd" d="M54 0H0V123H54V0ZM2.92558 93.1395V94H26.1581V93.1395H19.4465V67.7558C20.7372 68.014 22.6302 68.1861 25.1256 68.1861C38.893 68.1861 48.8744 61.5605 48.8744 50.0303C48.8744 38.8442 39.5813 32.907 23.5767 32.907H2.92558V33.7675H9.6372V93.1395H2.92558ZM19.4465 33.7675H23.1465C34.2465 33.7675 38.2907 39.9629 38.2907 50.4605C38.2907 61.0442 34.1604 67.3256 23.8349 67.3256C22.0279 67.3256 20.6511 67.1535 19.4465 66.9814V33.7675Z" fill="#161616"/>
<path d="M85.3154 83.7945V78.9055H106.477V83.7945H98.523V117.142C98.523 125.679 92.4665 131.152 80.4994 131.152C68.5323 131.152 63.3514 125.679 63.3514 117.142V83.7945H55.3976V78.9055H76.559V83.7945H68.6052V116.266C68.6052 123.49 72.6186 126.774 80.9372 126.774C89.2558 126.774 93.2692 123.49 93.2692 116.266V83.7945H85.3154Z" fill="#161616"/>
<path d="M59.4838 182.633V168.501H60.4329C61.0656 176.938 65.073 181.789 73.8259 181.789C82.4734 181.789 83.9498 177.149 83.9498 173.88C83.9498 160.909 60.1165 165.549 60.1165 149.625C60.1165 142.032 65.3894 136.021 74.8805 136.021C79.2042 136.021 81.7352 137.286 83.528 137.286C84.5825 137.286 85.3207 136.864 85.4262 136.021H86.1644V149.203H85.1098C84.3716 141.821 80.8915 136.864 73.9314 136.864C68.4476 136.864 65.2839 139.923 65.2839 144.668C65.2839 157.534 89.1172 152.577 89.1172 168.818C89.1172 173.88 86.7971 182.633 73.2986 182.633C68.1312 182.633 64.1239 181.367 62.1202 181.367C60.7493 181.367 60.4329 182 60.222 182.633H59.4838Z" fill="#161616"/>
<path fill-rule="evenodd" clip-rule="evenodd" d="M134.043 14L62 17.1377L64.2431 68.6398L136.286 65.5021L134.043 14ZM68.5389 56.7938L66.1334 64.2056H90.449L92.8546 56.7938H84.4026L94.5449 25.4566H97.4706L101.632 64.2056H109.433L121.981 25.4566H130.498L132.839 18.0449H108.523L106.183 25.4566H114.57L104.427 56.7938H101.502L97.3406 18.0449H81.0868L78.7463 25.4566H87.1332L76.9909 56.7938H68.5389Z" fill="#161616"/>
<path fill-rule="evenodd" clip-rule="evenodd" d="M168.778 82.2582L114.781 69.4712L98.8447 136.768L152.842 149.555L168.778 82.2582ZM128.461 76.7786L128.199 77.6508H133.432L113.633 138.706H120.611L127.676 116.726C129.509 117.783 130.316 121.235 131.295 125.421C131.528 126.414 131.769 127.448 132.037 128.501C134.13 136.699 135.875 139.229 141.195 139.229C145.731 139.229 148.609 137.397 151.051 130.158L150.266 129.896C148.347 135.129 146.777 136.874 144.509 136.874C141.457 136.874 140.148 133.821 138.666 127.716C137.183 121.61 136.049 117.598 131.688 116.464C135.002 115.854 136.311 113.673 138.142 110.359C138.472 109.757 138.783 109.172 139.082 108.609C140.995 105.009 142.416 102.334 145.207 102.334C146.864 102.334 147.562 103.207 147.562 104.515C147.562 105.553 147.188 106.217 146.828 106.859C146.492 107.456 146.167 108.034 146.167 108.876C146.167 110.62 147.562 111.58 149.307 111.58C152.098 111.58 153.144 109.225 153.144 106.695C153.144 102.77 150.528 100.677 146.777 100.677C141.87 100.677 140.069 104.353 138.239 108.084C137.923 108.731 137.605 109.379 137.27 110.01C134.566 115.156 133.083 116.028 127.937 116.028L140.672 76.7786H128.461Z" fill="#161616"/>
</svg>
